# This file uses centimeters as units for non-parametric coordinates.

mtllib Altar.mtl
g default
v -28.118690 43.469952 -27.688202
v 28.118690 43.469952 -27.688202
v -52.294750 31.484032 -27.688202
v -45.757908 46.656658 -27.688202
v -26.147375 31.484032 -27.688202
v 52.294750 31.484032 -27.688202
v -52.294750 -29.206467 -27.688202
v 45.757908 46.656658 -27.688202
v 26.147375 31.484032 -27.688202
v 52.294750 -29.206467 -27.688202
v 26.147375 39.070335 -27.688202
v 58.279373 46.487465 -27.688202
v -26.147375 39.070335 -27.688202
v -58.279373 46.487465 -27.688202
v 32.684219 46.656658 -27.688202
v -32.684219 46.656658 -27.688202
v -60.977722 33.351242 -27.688202
v 60.977722 33.351242 -27.688202
v 61.152107 43.557377 -27.688202
v -61.152107 43.557377 -27.688202
v 63.851326 38.901165 -27.688202
v -63.851326 38.901165 -27.688202
vt 0.118812 0.704752
vt 0.118812 0.909504
vt 0.059406 0.704752
vt 0.118812 0.295248
vt 0.118812 0.090496
vt 0.594061 0.090496
vt 0.594061 0.909504
vt 0.024954 0.720189
vt 0.059406 0.295248
vt 0.000000 0.755940
vt 0.024954 0.279811
vt 0.000000 0.858316
vt 0.000000 0.244060
vt 0.001325 0.956368
vt 0.000000 0.141684
vt 0.024270 0.978863
vt 0.001325 0.043632
vt 0.060731 1.000000
vt 0.024270 0.021137
vt 0.104191 0.977498
vt 0.060731 -0.000000
vt 0.104191 0.022502
vn 0.000000 0.000000 -1.000000
vn -0.000000 0.000000 -1.000000
vn 0.000000 0.000000 -1.000000
vn 0.000000 0.000000 -1.000000
vn -0.000000 0.000000 -1.000000
vn 0.000000 0.000000 -1.000000
vn 0.000000 0.000000 -1.000000
vn -0.000000 0.000000 -1.000000
vn -0.000000 0.000000 -1.000000
vn 0.000000 0.000000 -1.000000
vn 0.000000 0.000000 -1.000000
vn -0.000000 0.000000 -1.000000
vn 0.000000 0.000000 -1.000000
vn 0.000000 0.000000 -1.000000
vn 0.000000 0.000000 -1.000000
vn -0.000000 0.000000 -1.000000
vn 0.000000 0.000000 -1.000000
vn -0.000000 0.000000 -1.000000
vn 0.000000 0.000000 -1.000000
vn -0.000000 0.000000 -1.000000
vn -0.000000 0.000000 -1.000000
vn 0.000000 0.000000 -1.000000
s 1
g AltarBack
usemtl AltarBack2
f 5/1/1 3/2/2 13/3/3
f 9/4/4 6/5/5 10/6/6 7/7/7 3/2/2 5/1/1
f 6/5/5 2/11/8 15/13/9
f 13/3/3 3/2/2 1/8/10
f 9/4/4 11/9/11 6/5/5
f 20/16/12 3/2/2 22/18/13
f 6/5/5 11/9/11 2/11/8
f 1/8/10 3/2/2 16/10/14
f 6/5/5 15/13/9 8/15/15
f 16/10/14 3/2/2 4/12/16
f 6/5/5 8/15/15 12/17/17
f 4/12/16 3/2/2 14/14/18
f 6/5/5 12/17/17 19/19/19
f 14/14/18 3/2/2 20/16/12
f 6/5/5 21/21/20 18/22/21
f 22/18/13 3/2/2 17/20/22
f 6/5/5 19/19/19 21/21/20
g default
v 28.118690 43.469952 27.688202
v -28.118690 43.469952 27.688202
v 52.294750 31.484032 27.688202
v 26.147375 31.484032 27.688202
v -52.294750 31.484032 27.688202
v -52.294750 -29.206467 27.688202
v 52.294750 -29.206467 27.688202
v -39.221062 46.656658 27.688202
v -26.147375 31.484032 27.688202
v 26.147375 39.070335 27.688202
v -26.147375 39.070335 27.688202
v 45.757908 46.656658 27.688202
v -45.757908 46.656658 27.688202
v 32.684219 46.656658 27.688202
v -32.684219 46.656658 27.688202
v -60.977722 33.351242 27.688202
v 60.977722 33.351242 27.688202
v 61.152107 43.557377 27.688202
v -61.152107 43.557377 27.688202
v 58.279373 46.487465 27.688202
v -58.279373 46.487465 27.688202
v 63.851326 38.901165 27.688202
v -63.851326 38.901165 27.688202
vt 0.474539 0.296064
vt 0.474539 0.092127
vt 0.533708 0.296064
vt 0.474539 0.703936
vt 0.474539 0.907872
vt 0.001183 0.907872
vt 0.001183 0.092127
vt 0.568023 0.280688
vt 0.533708 0.703936
vt 0.592877 0.245080
vt 0.568023 0.719311
vt 0.592877 0.143112
vt 0.592877 0.754920
vt 0.591558 0.045450
vt 0.592877 0.805904
vt 0.592877 0.856888
vt 0.568704 0.023045
vt 0.591558 0.954550
vt 0.532388 0.001992
vt 0.568704 0.976955
vt 0.489102 0.024405
vt 0.532388 0.998008
vt 0.489102 0.975595
vn 0.000000 0.000000 1.000000
vn 0.000000 0.000000 1.000000
vn 0.000000 0.000000 1.000000
vn 0.000000 0.000000 1.000000
vn 0.000000 0.000000 1.000000
vn 0.000000 0.000000 1.000000
vn 0.000000 0.000000 1.000000
vn 0.000000 0.000000 1.000000
vn 0.000000 0.000000 1.000000
vn 0.000000 0.000000 1.000000
vn 0.000000 0.000000 1.000000
vn -0.000000 0.000000 1.000000
vn 0.000000 0.000000 1.000000
vn -0.000000 0.000000 1.000000
vn 0.000000 0.000000 1.000000
vn 0.000000 0.000000 1.000000
vn 0.000000 0.000000 1.000000
vn 0.000000 0.000000 1.000000
vn 0.000000 0.000000 1.000000
vn 0.000000 0.000000 1.000000
vn 0.000000 0.000000 1.000000
vn 0.000000 0.000000 1.000000
vn 0.000000 0.000000 1.000000
s 1
g AltarFront
usemtl AltarFront2
f 26/23/23 25/24/24 32/25/25
f 31/26/26 27/27/27 28/28/28 29/29/29 25/24/24 26/23/23
f 27/27/27 33/31/30 24/33/31
f 44/41/32 25/24/24 39/43/33
f 31/26/26 33/31/30 27/27/27
f 32/25/25 25/24/24 23/30/34
f 27/27/27 24/33/31 37/35/35
f 23/30/34 25/24/24 36/32/36
f 27/27/27 37/35/35 30/37/37 35/38/38
f 36/32/36 25/24/24 34/34/39
f 27/27/27 35/38/38 43/40/40
f 34/34/39 25/24/24 42/36/41
f 27/27/27 43/40/40 41/42/42
f 42/36/41 25/24/24 40/39/43
f 27/27/27 41/42/42 45/44/44
f 40/39/43 25/24/24 44/41/32
f 27/27/27 45/44/44 38/45/45
g default
v -52.294750 -44.379093 27.688202
v 52.294750 -44.379093 27.688202
v -52.294750 -44.379093 -27.688202
v 52.294750 -44.379093 -27.688202
v 0.000000 -44.379093 27.688202
v 0.000000 -44.379093 -27.688202
v 0.000000 -44.379093 0.000000
v 52.294750 -44.379093 0.000000
v -52.294750 -44.379093 0.000000
v -26.147375 -44.379093 27.688202
v -26.147375 -44.379093 -13.844101
v -52.294750 -44.379093 -13.844101
v -26.147375 -44.379093 -27.688202
v 0.000000 -44.379093 -13.844101
v -26.147375 -44.379093 0.000000
v 52.294750 -44.379093 13.844101
v 26.147375 -44.379093 27.688202
v 26.147375 -44.379093 -27.688202
v 26.147375 -44.379093 -13.844101
v 52.294750 -44.379093 -13.844101
v 26.147375 -44.379093 0.000000
v 26.147375 -44.379093 13.844101
v 0.000000 -44.379093 13.844101
v -26.147375 -44.379093 13.844101
v -52.294750 -44.379093 13.844101
v -39.221062 -44.379093 -6.922051
v -39.221062 -44.379093 0.000000
v -52.294750 -44.379093 -6.922051
v -39.221062 -44.379093 -13.844101
v -26.147375 -44.379093 -6.922051
v 13.073688 -44.379093 27.688202
v -13.073688 -44.379093 -27.688202
v 13.073688 -44.379093 -20.766151
v 0.000000 -44.379093 -20.766151
v 13.073688 -44.379093 -27.688202
v 26.147375 -44.379093 -20.766151
v 13.073688 -44.379093 -13.844101
v 39.221062 -44.379093 6.922051
v 39.221062 -44.379093 0.000000
v 52.294750 -44.379093 6.922051
v 39.221062 -44.379093 13.844101
v 26.147375 -44.379093 6.922051
v -13.073688 -44.379093 20.766151
v 0.000000 -44.379093 20.766151
v -13.073688 -44.379093 27.688202
v -26.147375 -44.379093 20.766151
v -13.073688 -44.379093 13.844101
v 52.294750 -29.206467 -6.922051
v 52.294750 -29.206467 0.000000
v 52.294750 -44.379093 -6.922051
v 52.294750 -29.206467 -13.844101
v 52.294750 31.484032 -20.766151
v 52.294750 31.484032 -13.844101
v -52.294750 -29.206467 6.922051
v -52.294750 -29.206467 0.000000
v -52.294750 -44.379093 6.922051
v -52.294750 -29.206467 13.844101
v -52.294750 31.484032 20.766151
v -52.294750 31.484032 13.844101
v -39.221062 -44.379093 27.688202
v -39.221062 -44.379093 -20.766151
v -52.294750 -44.379093 -20.766151
v -39.221062 -44.379093 -27.688202
v -26.147375 -44.379093 -20.766151
v -13.073688 -44.379093 -20.766151
v -13.073688 -44.379093 -13.844101
v -13.073688 -44.379093 -6.922051
v 0.000000 -44.379093 -6.922051
v -13.073688 -44.379093 0.000000
v 52.294750 -29.206467 20.766151
v 52.294750 -44.379093 20.766151
v 52.294750 -29.206467 13.844101
v 52.294750 -29.206467 6.922051
v -52.294750 -29.206467 -20.766151
v -52.294750 -29.206467 -13.844101
v -52.294750 -29.206467 -6.922051
v 39.221062 -44.379093 27.688202
v 39.221062 -44.379093 -27.688202
v 39.221062 -44.379093 -20.766151
v 52.294750 -44.379093 -20.766151
v 39.221062 -44.379093 -13.844101
v 39.221062 -44.379093 -6.922051
v 26.147375 -44.379093 -6.922051
v 13.073688 -44.379093 -6.922051
v 13.073688 -44.379093 0.000000
v 39.221062 -44.379093 20.766151
v 26.147375 -44.379093 20.766151
v 13.073688 -44.379093 20.766151
v 13.073688 -44.379093 13.844101
v 13.073688 -44.379093 6.922051
v 0.000000 -44.379093 6.922051
v -39.221062 -44.379093 20.766151
v -52.294750 -44.379093 20.766151
v -39.221062 -44.379093 13.844101
v -39.221062 -44.379093 6.922051
v -26.147375 -44.379093 6.922051
v -13.073688 -44.379093 6.922051
v 52.294750 -29.206467 -20.766151
v 52.294750 31.484032 -6.922051
v 52.294750 31.484032 0.000000
v 52.294750 31.484032 20.766151
v 52.294750 31.484032 13.844101
v 52.294750 31.484032 6.922051
v -52.294750 -29.206467 20.766151
v -52.294750 31.484032 6.922051
v -52.294750 31.484032 0.000000
v -52.294750 31.484032 -20.766151
v -52.294750 31.484032 -13.844101
v -52.294750 31.484032 -6.922051
v -26.147375 -44.379093 35.787575
v -26.147375 -29.206467 35.787575
v -9.249364 -44.379093 35.787575
v -9.249364 -29.206467 35.787575
v 59.943398 -44.379093 17.893787
v 59.943398 -29.206467 17.893787
v 59.943398 -44.379093 8.946893
v 59.943398 -29.206467 8.946893
v -59.943398 -44.379093 -17.893787
v -59.943398 -29.206467 -17.893787
v -59.943398 -44.379093 -8.946893
v -59.943398 -29.206467 -8.946893
v 26.147375 -44.379093 35.787575
v 26.147375 -29.206467 35.787575
v 43.045383 -44.379093 35.787575
v 43.045383 -29.206467 35.787575
v 26.147375 -44.379093 -35.787575
v 26.147375 -29.206467 -35.787575
v 9.249364 -44.379093 -35.787575
v 9.249364 -29.206467 -35.787575
v -26.147375 -44.379093 -35.787575
v -26.147375 -29.206467 -35.787575
v -43.045383 -44.379093 -35.787575
v -43.045383 -29.206467 -35.787575
v 59.943398 -44.379093 -17.893787
v 59.943398 -29.206467 -17.893787
v 59.943398 -44.379093 -26.840677
v 59.943398 -29.206467 -26.840677
v -59.943398 -44.379093 17.893787
v -59.943398 -29.206467 17.893787
v -59.943398 -44.379093 26.840677
v -59.943398 -29.206467 26.840677
v 0.000000 -44.379093 35.787575
v 0.000000 -29.206467 35.787575
v 9.249364 -44.379093 35.787575
v 9.249364 -29.206467 35.787575
v 0.000000 -44.379093 -35.787575
v 0.000000 -29.206467 -35.787575
v -9.249364 -44.379093 -35.787575
v -9.249364 -29.206467 -35.787575
v 59.943398 -44.379093 0.000000
v 59.943398 -29.206467 0.000000
v 59.943398 -44.379093 -8.946893
v 59.943398 -29.206467 -8.946893
v -59.943398 -44.379093 0.000000
v -59.943398 -29.206467 0.000000
v -59.943398 -44.379093 8.946893
v -59.943398 -29.206467 8.946893
v -59.943398 -44.379093 35.787575
v -59.943398 -29.206467 35.787575
v -43.045383 -44.379093 35.787575
v -43.045383 -29.206467 35.787575
v 59.943398 -44.379093 35.787575
v 59.943398 -29.206467 35.787575
v 59.943398 -44.379093 26.840677
v 59.943398 -29.206467 26.840677
v -59.943398 -29.206467 -35.787575
v -59.943398 -44.379093 -35.787575
v -59.943398 -44.379093 -26.840677
v -59.943398 -29.206467 -26.840677
v 59.943398 -29.206467 -35.787575
v 59.943398 -44.379093 -35.787575
v 43.045383 -44.379093 -35.787575
v 43.045383 -29.206467 -35.787575
v 51.494389 -29.206467 35.787575
v 51.494389 -44.379093 35.787575
v 45.757908 -44.379093 27.688202
v 45.757908 -44.379093 20.766151
v 45.757908 -44.379093 13.844101
v 45.757908 -44.379093 6.922051
v 45.757908 -44.379093 0.000000
v 45.757908 -44.379093 -6.922051
v 45.757908 -44.379093 -13.844101
v 45.757908 -44.379093 -20.766151
v 45.757908 -44.379093 -27.688202
v 51.494389 -44.379093 -35.787575
v 51.494389 -29.206467 -35.787575
v -51.494389 -29.206467 35.787575
v -51.494389 -44.379093 35.787575
v -45.757908 -44.379093 27.688202
v -45.757908 -44.379093 20.766151
v -45.757908 -44.379093 13.844101
v -45.757908 -44.379093 6.922051
v -45.757908 -44.379093 0.000000
v -45.757908 -44.379093 -6.922051
v -45.757908 -44.379093 -13.844101
v -45.757908 -44.379093 -20.766151
v -45.757908 -44.379093 -27.688202
v -51.494389 -44.379093 -35.787575
v -51.494389 -29.206467 -35.787575
v 32.684219 -44.379093 27.688202
v 34.596378 -44.379093 35.787575
v 34.596378 -29.206467 35.787575
v 34.596378 -29.206467 -35.787575
v 34.596378 -44.379093 -35.787575
v 32.684219 -44.379093 -27.688202
v 32.684219 -44.379093 -20.766151
v 32.684219 -44.379093 -13.844101
v 32.684219 -44.379093 -6.922051
v 32.684219 -44.379093 0.000000
v 32.684219 -44.379093 6.922051
v 32.684219 -44.379093 13.844101
v 32.684219 -44.379093 20.766151
v -32.684219 -44.379093 27.688202
v -34.596378 -44.379093 35.787575
v -34.596378 -29.206467 35.787575
v -34.596378 -29.206467 -35.787575
v -34.596378 -44.379093 -35.787575
v -32.684219 -44.379093 -27.688202
v -32.684219 -44.379093 -20.766151
v -32.684219 -44.379093 -13.844101
v -32.684219 -44.379093 -6.922051
v -32.684219 -44.379093 0.000000
v -32.684219 -44.379093 6.922051
v -32.684219 -44.379093 13.844101
v -32.684219 -44.379093 20.766151
v -60.977722 33.351242 0.000000
v -60.977722 33.351242 6.922051
v -60.977722 33.351242 -20.766151
v -60.977722 33.351242 20.766151
v -60.977722 33.351242 13.844101
v -60.977722 33.351242 -13.844101
v -60.977722 33.351242 -6.922051
v 60.977722 33.351242 20.766151
v 60.977722 33.351242 13.844101
v 60.977722 33.351242 6.922051
v 60.977722 33.351242 0.000000
v 60.977722 33.351242 -6.922051
v 60.977722 33.351242 -13.844101
v 60.977722 33.351242 -20.766151
v 61.152107 43.557377 -20.766151
v 61.152107 43.557377 -13.844101
v 61.152107 43.557377 -6.922051
v 61.152107 43.557377 0.000000
v 61.152107 43.557377 6.922051
v 61.152107 43.557377 13.844101
v 61.152107 43.557377 20.766151
v -61.152107 43.557377 -20.766151
v -61.152107 43.557377 -13.844101
v -61.152107 43.557377 -6.922051
v -61.152107 43.557377 0.000000
v -61.152107 43.557377 6.922051
v -61.152107 43.557377 13.844101
v -61.152107 43.557377 20.766151
v 58.279373 46.487465 20.766151
v 58.279373 46.487465 13.844101
v 58.279373 46.487465 6.922051
v 58.279373 46.487465 0.000000
v 58.279373 46.487465 -6.922051
v 58.279373 46.487465 -13.844101
v 58.279373 46.487465 -20.766151
v -58.279373 46.487465 20.766151
v -58.279373 46.487465 13.844101
v -58.279373 46.487465 6.922051
v -58.279373 46.487465 0.000000
v -58.279373 46.487465 -6.922051
v -58.279373 46.487465 -13.844101
v -58.279373 46.487465 -20.766151
v 63.851326 38.901165 -20.766151
v 63.851326 38.901165 -13.844101
v 63.851326 38.901165 -6.922051
v 63.851326 38.901165 0.000000
v 63.851326 38.901165 6.922051
v 63.851326 38.901165 13.844101
v 63.851326 38.901165 20.766151
v -63.851326 38.901165 -20.766151
v -63.851326 38.901165 -13.844101
v -63.851326 38.901165 -6.922051
v -63.851326 38.901165 0.000000
v -63.851326 38.901165 6.922051
v -63.851326 38.901165 13.844101
v -63.851326 38.901165 20.766151
v 32.684219 46.656658 0.000000
v 28.118690 43.469952 0.000000
v 26.147375 39.070335 0.000000
v 26.147375 31.484032 0.000000
v -26.147375 31.484032 0.000000
v -26.147375 39.070335 0.000000
v -28.118690 43.469952 0.000000
v -32.684219 46.656658 0.000000
v -32.684219 46.656658 -13.844101
v -28.118690 43.469952 -13.844101
v -26.147375 39.070335 -13.844101
v -26.147375 31.484032 -13.844101
v 26.147375 31.484032 -13.844101
v 26.147375 39.070335 -13.844101
v 28.118690 43.469952 -13.844101
v 32.684219 46.656658 -13.844101
v 32.684219 46.656658 13.844101
v 28.118690 43.469952 13.844101
v 26.147375 39.070335 13.844101
v 26.147375 31.484032 13.844101
v -26.147375 31.484032 13.844101
v -26.147375 39.070335 13.844101
v -28.118690 43.469952 13.844101
v -32.684219 46.656658 13.844101
v 32.684219 46.656658 20.766151
v 28.118690 43.469952 20.766151
v 26.147375 39.070335 20.766151
v 26.147375 31.484032 20.766151
v -26.147375 31.484032 20.766151
v -26.147375 39.070335 20.766151
v -28.118690 43.469952 20.766151
v -32.684219 46.656658 20.766151
v 32.684219 46.656658 6.922050
v 28.118690 43.469952 6.922050
v 26.147375 39.070335 6.922050
v 26.147375 31.484032 6.922050
v -26.147375 31.484032 6.922050
v -26.147375 39.070335 6.922050
v -28.118690 43.469952 6.922050
v -32.684219 46.656658 6.922050
v 32.684219 46.656658 -6.922050
v 28.118690 43.469952 -6.922050
v 26.147375 39.070335 -6.922050
v 26.147375 31.484032 -6.922050
v -26.147375 31.484032 -6.922050
v -26.147375 39.070335 -6.922050
v -28.118690 43.469952 -6.922050
v -32.684219 46.656658 -6.922050
v -32.684219 46.656658 -20.766151
v -28.118690 43.469952 -20.766151
v -26.147375 39.070335 -20.766151
v -26.147375 31.484032 -20.766151
v 26.147375 31.484032 -20.766151
v 26.147375 39.070335 -20.766151
v 28.118690 43.469952 -20.766151
v 32.684219 46.656658 -20.766151
v 52.294750 -29.206467 -27.688202
v 52.294750 31.484032 -27.688202
v 60.977722 33.351242 -27.688202
v 63.851326 38.901165 -27.688202
v 61.152107 43.557377 -27.688202
v 58.279373 46.487465 -27.688202
v 45.757908 46.656658 -27.688202
v 32.684219 46.656658 -27.688202
v 28.118690 43.469952 -27.688202
v 26.147375 39.070335 -27.688202
v 26.147375 31.484032 -27.688202
v -26.147375 31.484032 -27.688202
v -26.147375 39.070335 -27.688202
v -28.118690 43.469952 -27.688202
v -32.684219 46.656658 -27.688202
v -45.757908 46.656658 -27.688202
v -58.279373 46.487465 -27.688202
v -61.152107 43.557377 -27.688202
v -63.851326 38.901165 -27.688202
v -60.977722 33.351242 -27.688202
v -52.294750 31.484032 -27.688202
v -52.294750 -29.206467 -27.688202
v 52.294750 -29.206467 27.688202
v 52.294750 31.484032 27.688202
v 60.977722 33.351242 27.688202
v 63.851326 38.901165 27.688202
v 61.152107 43.557377 27.688202
v 58.279373 46.487465 27.688202
v 45.757908 46.656658 27.688202
v 32.684219 46.656658 27.688202
v 28.118690 43.469952 27.688202
v 26.147375 39.070335 27.688202
v 26.147375 31.484032 27.688202
v -26.147375 31.484032 27.688202
v -26.147375 39.070335 27.688202
v -28.118690 43.469952 27.688202
v -32.684219 46.656658 27.688202
v -45.757908 46.656658 27.688202
v -58.279373 46.487465 27.688202
v -61.152107 43.557377 27.688202
v -63.851326 38.901165 27.688202
v -60.977722 33.351242 27.688202
v -52.294750 31.484032 27.688202
v -52.294750 -29.206467 27.688202
vt 0.233809 0.774112
vt 0.204583 0.774112
vt 0.175357 0.774112
vt 0.146131 0.774112
vt 0.116904 0.774112
vt 0.087678 0.774112
vt 0.058452 0.774112
vt 0.029226 0.774112
vt 0.000000 0.774112
vt 0.000000 0.517866
vt 0.029226 0.517866
vt 0.058452 0.517866
vt 0.087678 0.517866
vt 0.116904 0.517866
vt 0.146131 0.517866
vt 0.175357 0.517866
vt 0.204583 0.517866
vt 0.233809 0.517866
vt 0.545393 0.270629
vt 0.481331 0.270629
vt 0.481331 0.232854
vt 0.545393 0.232854
vt 0.481331 0.308404
vt 0.545393 0.308404
vt 0.481331 0.195078
vt 0.545393 0.195078
vt 0.545393 0.346180
vt 0.481331 0.346180
vt 0.481331 0.157303
vt 0.545393 0.157303
vt 0.481331 0.119527
vt 0.545393 0.119527
vt 0.481331 0.081752
vt 0.545393 0.081752
vt 0.481331 0.043977
vt 0.545393 0.043977
vt 0.342325 0.517866
vt 0.371551 0.517866
vt 0.400777 0.517866
vt 0.430004 0.517866
vt 0.459230 0.517866
vt 0.488456 0.517866
vt 0.517682 0.517866
vt 0.546908 0.517866
vt 0.546908 0.774112
vt 0.517682 0.774112
vt 0.488456 0.774112
vt 0.459230 0.774112
vt 0.430004 0.774112
vt 0.400777 0.774112
vt 0.371551 0.774112
vt 0.342325 0.774112
vt 0.313099 0.774112
vt 0.313099 0.517866
vt 0.858492 0.744518
vt 0.794431 0.744518
vt 0.794431 0.706743
vt 0.858492 0.706743
vt 0.794431 0.782294
vt 0.858492 0.782294
vt 0.794431 0.668967
vt 0.858492 0.668967
vt 0.858492 0.820069
vt 0.794431 0.820069
vt 0.794431 0.631192
vt 0.858492 0.631192
vt 0.794431 0.593417
vt 0.858492 0.593417
vt 0.794431 0.555641
vt 0.858492 0.555641
vt 0.794431 0.517866
vt 0.858492 0.517866
vt 0.760724 0.277307
vt 0.740505 0.277307
vt 0.740505 0.245496
vt 0.760724 0.245496
vt 0.760724 0.309117
vt 0.740505 0.309117
vt 0.740505 0.499983
vt 0.705641 0.499983
vt 0.705641 0.468172
vt 0.705641 0.436361
vt 0.705641 0.404550
vt 0.705641 0.372739
vt 0.705641 0.340928
vt 0.705641 0.309117
vt 0.705641 0.277307
vt 0.705641 0.245496
vt 0.740505 0.340928
vt 0.740505 0.372739
vt 0.740505 0.404550
vt 0.740505 0.436361
vt 0.740505 0.468172
vt 0.775368 0.245496
vt 0.775368 0.277307
vt 0.760724 0.340928
vt 0.775368 0.309117
vt 0.760724 0.372739
vt 0.760724 0.404550
vt 0.760724 0.436361
vt 0.760724 0.468172
vt 0.760724 0.499983
vt 0.775368 0.340928
vt 0.775368 0.372739
vt 0.775368 0.404550
vt 0.775368 0.436361
vt 0.775368 0.468172
vt 0.775368 0.499983
vt 0.964944 0.741774
vt 0.964944 0.773761
vt 0.939297 0.773761
vt 0.939297 0.741774
vt 0.986460 0.741774
vt 0.986460 0.773761
vt 0.939297 0.709787
vt 0.964944 0.709787
vt 1.000000 0.741774
vt 1.000000 0.773761
vt 0.986460 0.709787
vt 0.964944 0.677800
vt 0.939297 0.677800
vt 1.000000 0.709787
vt 0.986460 0.677800
vt 0.939297 0.645813
vt 0.964944 0.645813
vt 1.000000 0.677800
vt 0.986460 0.645813
vt 0.964944 0.613827
vt 0.939297 0.613827
vt 1.000000 0.645813
vt 0.986460 0.613827
vt 0.939297 0.581840
vt 0.964944 0.581840
vt 1.000000 0.613827
vt 0.986460 0.581840
vt 0.964944 0.549853
vt 0.939297 0.549853
vt 1.000000 0.581840
vt 0.986460 0.549853
vt 0.939297 0.517866
vt 0.964944 0.517866
vt 1.000000 0.549853
vt 0.986460 0.517866
vt 1.000000 0.517866
vt 0.661062 0.499983
vt 0.661062 0.468172
vt 0.681281 0.468172
vt 0.681281 0.499983
vt 0.626198 0.309117
vt 0.626198 0.277307
vt 0.626198 0.245496
vt 0.661062 0.245496
vt 0.661062 0.277307
vt 0.661062 0.309117
vt 0.661062 0.340928
vt 0.661062 0.372739
vt 0.661062 0.404550
vt 0.661062 0.436361
vt 0.626198 0.499983
vt 0.626198 0.468172
vt 0.626198 0.436361
vt 0.626198 0.404550
vt 0.626198 0.372739
vt 0.626198 0.340928
vt 0.681281 0.436361
vt 0.695925 0.468172
vt 0.695925 0.499983
vt 0.681281 0.277307
vt 0.681281 0.245496
vt 0.681281 0.309117
vt 0.681281 0.340928
vt 0.681281 0.372739
vt 0.681281 0.404550
vt 0.695925 0.436361
vt 0.695925 0.245496
vt 0.695925 0.277307
vt 0.695925 0.309117
vt 0.695925 0.340928
vt 0.695925 0.372739
vt 0.695925 0.404550
vt 0.894847 0.741774
vt 0.894847 0.773761
vt 0.869201 0.773761
vt 0.869201 0.741774
vt 0.916363 0.741774
vt 0.916363 0.773761
vt 0.869201 0.709787
vt 0.894847 0.709787
vt 0.929903 0.741774
vt 0.929903 0.773761
vt 0.916363 0.709787
vt 0.894847 0.677800
vt 0.869201 0.677800
vt 0.929903 0.709787
vt 0.916363 0.677800
vt 0.869201 0.645813
vt 0.894847 0.645813
vt 0.929903 0.677800
vt 0.916363 0.645813
vt 0.894847 0.613827
vt 0.869201 0.613827
vt 0.929903 0.645813
vt 0.916363 0.613827
vt 0.869201 0.581840
vt 0.894847 0.581840
vt 0.929903 0.613827
vt 0.916363 0.581840
vt 0.894847 0.549853
vt 0.869201 0.549853
vt 0.929903 0.581840
vt 0.916363 0.549853
vt 0.869201 0.517866
vt 0.894847 0.517866
vt 0.929903 0.549853
vt 0.916363 0.517866
vt 0.929903 0.517866
vt 0.121875 0.391090
vt 0.151101 0.391090
vt 0.151101 0.418690
vt 0.121875 0.418690
vt 0.121875 0.363490
vt 0.151101 0.363490
vt 0.180328 0.391090
vt 0.180328 0.418690
vt 0.151101 0.446289
vt 0.121875 0.446289
vt 0.092649 0.418690
vt 0.092649 0.391090
vt 0.151101 0.308291
vt 0.121875 0.308291
vt 0.180328 0.363490
vt 0.092649 0.363490
vt 0.209554 0.391090
vt 0.209554 0.418690
vt 0.180328 0.446289
vt 0.151101 0.473889
vt 0.121875 0.473889
vt 0.092649 0.446289
vt 0.063423 0.391090
vt 0.063423 0.418690
vt 0.180328 0.308291
vt 0.092649 0.308291
vt 0.121875 0.253092
vt 0.151101 0.253092
vt 0.209554 0.363490
vt 0.063423 0.363490
vt 0.238780 0.391090
vt 0.238780 0.418690
vt 0.209554 0.446289
vt 0.180328 0.473889
vt 0.151101 0.506183
vt 0.113326 0.506183
vt 0.092649 0.473889
vt 0.063423 0.446289
vt 0.034197 0.418690
vt 0.034197 0.391090
vt 0.180328 0.253092
vt 0.209554 0.308291
vt 0.063423 0.308291
vt 0.092649 0.253092
vt 0.151101 0.197892
vt 0.121875 0.197892
vt 0.238780 0.363490
vt 0.034197 0.363490
vt 0.268006 0.391090
vt 0.268006 0.418690
vt 0.238780 0.446289
vt 0.209554 0.473889
vt 0.188877 0.506183
vt 0.075551 0.506183
vt 0.063423 0.473889
vt 0.034197 0.446289
vt 0.000000 0.399163
vt 0.000000 0.434837
vt 0.180328 0.197892
vt 0.209554 0.253092
vt 0.238780 0.308291
vt 0.034197 0.308291
vt 0.063423 0.253092
vt 0.092649 0.197892
vt 0.121875 0.142693
vt 0.151101 0.142693
vt 0.268006 0.363490
vt 0.000000 0.363490
vt 0.302203 0.399163
vt 0.302203 0.434837
vt 0.268006 0.446289
vt 0.238780 0.473889
vt 0.226652 0.506183
vt 0.037775 0.506183
vt 0.034197 0.473889
vt 0.000000 0.470510
vt 0.180328 0.142693
vt 0.209554 0.197892
vt 0.238780 0.253092
vt 0.268006 0.308291
vt 0.000000 0.292144
vt 0.034197 0.253092
vt 0.063423 0.197892
vt 0.092649 0.142693
vt 0.121875 0.115093
vt 0.151101 0.115093
vt 0.302203 0.363490
vt 0.302203 0.470510
vt 0.268006 0.473889
vt 0.264427 0.506183
vt 0.000000 0.506183
vt 0.180328 0.115093
vt 0.209554 0.142693
vt 0.238780 0.197892
vt 0.268006 0.253092
vt 0.302203 0.292144
vt 0.000000 0.253092
vt 0.034197 0.197892
vt 0.063423 0.142693
vt 0.092649 0.115093
vt 0.151101 0.087493
vt 0.121875 0.087493
vt 0.302203 0.506183
vt 0.180328 0.087493
vt 0.209554 0.115093
vt 0.238780 0.142693
vt 0.268006 0.197892
vt 0.302203 0.253092
vt 0.000000 0.214039
vt 0.034197 0.142693
vt 0.063423 0.115093
vt 0.092649 0.087493
vt 0.121875 0.059894
vt 0.151101 0.059894
vt 0.180328 0.059894
vt 0.209554 0.087493
vt 0.238780 0.115093
vt 0.268006 0.142693
vt 0.302203 0.214039
vt 0.000000 0.142693
vt 0.034197 0.115093
vt 0.063423 0.087493
vt 0.092649 0.059894
vt 0.121875 0.032294
vt 0.151101 0.032294
vt 0.180328 0.032294
vt 0.209554 0.059894
vt 0.238780 0.087493
vt 0.268006 0.115093
vt 0.302203 0.142693
vt 0.000000 0.107020
vt 0.034197 0.087493
vt 0.063423 0.059894
vt 0.092649 0.032294
vt 0.113326 0.000000
vt 0.151101 0.000000
vt 0.188877 0.000000
vt 0.209554 0.032294
vt 0.238780 0.059894
vt 0.268006 0.087493
vt 0.302203 0.107020
vt 0.000000 0.071346
vt 0.034197 0.059894
vt 0.063423 0.032294
vt 0.075551 0.000000
vt 0.226652 0.000000
vt 0.238780 0.032294
vt 0.268006 0.059894
vt 0.302203 0.071346
vt 0.000000 0.035673
vt 0.034197 0.032294
vt 0.037775 0.000000
vt 0.264427 0.000000
vt 0.268006 0.032294
vt 0.302203 0.035673
vt 0.000000 0.000000
vt 0.302203 0.000000
vt 0.347296 0.473889
vt 0.313099 0.363490
vt 0.313099 0.292144
vt 0.313099 0.399163
vt 0.313099 0.253092
vt 0.313099 0.214039
vt 0.347296 0.032294
vt 0.313099 0.434837
vt 0.313099 0.142693
vt 0.313099 0.470510
vt 0.313099 0.107020
vt 0.313099 0.506183
vt 0.313099 0.071346
vt 0.376522 0.473889
vt 0.350875 0.506183
vt 0.313099 0.035673
vt 0.405748 0.473889
vt 0.388650 0.506183
vt 0.313099 0.000000
vt 0.434974 0.473889
vt 0.426425 0.506183
vt 0.376522 0.032294
vt 0.350875 0.000000
vt 0.464201 0.473889
vt 0.464201 0.506183
vt 0.405748 0.032294
vt 0.388650 0.000000
vt 0.493427 0.473889
vt 0.501976 0.506183
vt 0.434974 0.032294
vt 0.426425 0.000000
vt 0.522653 0.473889
vt 0.539751 0.506183
vt 0.464201 0.032294
vt 0.464201 0.000000
vt 0.551879 0.473889
vt 0.577527 0.506183
vt 0.493427 0.032294
vt 0.501976 0.000000
vt 0.581105 0.473889
vt 0.615302 0.506183
vt 0.522653 0.032294
vt 0.539751 0.000000
vt 0.615302 0.470510
vt 0.551879 0.032294
vt 0.577527 0.000000
vt 0.615302 0.434837
vt 0.581105 0.032294
vt 0.615302 0.000000
vt 0.615302 0.399163
vt 0.615302 0.035673
vt 0.615302 0.363490
vt 0.615302 0.071346
vt 0.615302 0.292144
vt 0.615302 0.107020
vt 0.615302 0.253092
vt 0.615302 0.214039
vt 0.615302 0.142693
vt 0.981048 0.366382
vt 0.981048 0.395940
vt 0.943971 0.395940
vt 0.943971 0.366382
vt 0.981048 0.425499
vt 0.943971 0.425499
vt 0.981048 0.336824
vt 0.943971 0.336824
vt 0.981048 0.455057
vt 0.943971 0.455057
vt 0.981048 0.307266
vt 0.943971 0.307266
vt 0.981048 0.484615
vt 0.943971 0.484615
vt 0.981048 0.277707
vt 0.943971 0.277707
vt 0.981048 0.248149
vt 0.943971 0.248149
vt 0.943971 0.236466
vt 0.943971 0.206908
vt 0.981048 0.206908
vt 0.981048 0.236466
vt 0.943971 0.177350
vt 0.981048 0.177350
vt 0.943971 0.147791
vt 0.981048 0.147791
vt 0.943971 0.118233
vt 0.981048 0.118233
vt 0.943971 0.088675
vt 0.981048 0.088675
vt 0.943971 0.059117
vt 0.981048 0.059117
vt 0.943971 0.029558
vt 0.981048 0.029558
vt 0.943971 0.000000
vt 0.981048 0.000000
vt 0.560775 0.517866
vt 0.781572 0.517866
vt 0.781572 0.547092
vt 0.781572 0.576318
vt 0.781572 0.605544
vt 0.781572 0.634770
vt 0.781572 0.663996
vt 0.781572 0.693223
vt 0.781572 0.722449
vt 0.781572 0.751675
vt 0.560775 0.751675
vt 0.560775 0.722449
vt 0.560775 0.693223
vt 0.560775 0.663996
vt 0.560775 0.634770
vt 0.560775 0.605544
vt 0.560775 0.576318
vt 0.560775 0.547092
vt 0.626198 0.175360
vt 0.626198 0.146133
vt 0.626198 0.116906
vt 0.626198 0.087680
vt 0.626198 0.058453
vt 0.626198 0.029227
vt 0.626198 0.000000
vt 0.679067 0.000000
vt 0.734267 0.000000
vt 0.734267 0.029227
vt 0.734267 0.058453
vt 0.734267 0.087680
vt 0.734267 0.116906
vt 0.734267 0.146133
vt 0.734267 0.175360
vt 0.734267 0.204586
vt 0.734267 0.233813
vt 0.679067 0.233813
vt 0.626198 0.233813
vt 0.626198 0.204586
vt 0.415031 0.043977
vt 0.467899 0.043977
vt 0.467899 0.073203
vt 0.467899 0.102430
vt 0.467899 0.131657
vt 0.467899 0.160883
vt 0.467899 0.190110
vt 0.467899 0.219336
vt 0.467899 0.248563
vt 0.467899 0.277790
vt 0.415031 0.277790
vt 0.359830 0.277790
vt 0.359830 0.248563
vt 0.359830 0.219336
vt 0.359830 0.190110
vt 0.359830 0.160883
vt 0.359830 0.131657
vt 0.359830 0.102430
vt 0.359830 0.073203
vt 0.359830 0.043977
vt 0.858492 0.363490
vt 0.794431 0.363490
vt 0.794431 0.292144
vt 0.858492 0.292144
vt 0.858492 0.399164
vt 0.794431 0.399164
vt 0.794431 0.253092
vt 0.858492 0.253092
vt 0.794431 0.434837
vt 0.858492 0.434837
vt 0.794431 0.214039
vt 0.858492 0.214039
vt 0.858492 0.470510
vt 0.794431 0.470510
vt 0.794431 0.142693
vt 0.858492 0.142693
vt 0.858492 0.506183
vt 0.794431 0.506183
vt 0.794431 0.107020
vt 0.858492 0.107020
vt 0.794431 0.071346
vt 0.858492 0.071346
vt 0.794431 0.035673
vt 0.858492 0.035673
vt 0.794431 0.000000
vt 0.858492 0.000000
vt 0.869201 0.142693
vt 0.933262 0.142693
vt 0.933262 0.214039
vt 0.869201 0.214039
vt 0.869201 0.107020
vt 0.933262 0.107020
vt 0.933262 0.253092
vt 0.869201 0.253092
vt 0.933262 0.071346
vt 0.869201 0.071346
vt 0.933262 0.292144
vt 0.869201 0.292144
vt 0.869201 0.035673
vt 0.933262 0.035673
vt 0.933262 0.363490
vt 0.869201 0.363490
vt 0.869201 0.000000
vt 0.933262 0.000000
vt 0.933262 0.399164
vt 0.869201 0.399164
vt 0.933262 0.434837
vt 0.869201 0.434837
vt 0.933262 0.470510
vt 0.869201 0.470510
vt 0.933262 0.506183
vt 0.869201 0.506183
vn 0.000000 -1.000000 0.000000
vn 0.000000 -1.000000 0.000000
vn 0.000000 -1.000000 0.000000
vn 0.000000 -1.000000 0.000000
vn 0.000000 -1.000000 0.000000
vn 0.000000 -1.000000 0.000000
vn 0.000000 -1.000000 0.000000
vn 0.000000 -1.000000 0.000000
vn 0.000000 -1.000000 0.000000
vn 0.000000 -1.000000 0.000000
vn 0.000000 -1.000000 0.000000
vn 0.000000 -1.000000 0.000000
vn 0.000000 -1.000000 0.000000
vn 0.000000 -1.000000 0.000000
vn 0.000000 -1.000000 0.000000
vn 0.000000 -1.000000 0.000000
vn 0.000000 0.000000 1.000000
vn 0.000000 0.000000 1.000000
vn 0.000000 0.000000 1.000000
vn 0.000000 0.000000 1.000000
vn 0.000000 -1.000000 0.000000
vn 0.000000 -1.000000 0.000000
vn 0.000000 -1.000000 0.000000
vn 0.000000 -1.000000 0.000000
vn 0.000000 -1.000000 0.000000
vn 0.000000 -1.000000 0.000000
vn 0.000000 -1.000000 0.000000
vn 0.000000 -1.000000 0.000000
vn 0.000000 -1.000000 0.000000
vn 0.000000 -1.000000 0.000000
vn 0.000000 -1.000000 0.000000
vn 0.000000 -1.000000 0.000000
vn 1.000000 0.000000 0.000000
vn 1.000000 0.000000 0.000000
vn 1.000000 0.000000 0.000000
vn 1.000000 0.000000 0.000000
vn 1.000000 0.000000 0.000000
vn 1.000000 0.000000 0.000000
vn 1.000000 0.000000 0.000000
vn 1.000000 0.000000 0.000000
vn 1.000000 0.000000 0.000000
vn 1.000000 0.000000 0.000000
vn 1.000000 0.000000 0.000000
vn 1.000000 0.000000 0.000000
vn 1.000000 0.000000 0.000000
vn 1.000000 0.000000 0.000000
vn 1.000000 0.000000 0.000000
vn 1.000000 0.000000 0.000000
vn 1.000000 0.000000 0.000000
vn 1.000000 0.000000 0.000000
vn 1.000000 0.000000 0.000000
vn 1.000000 0.000000 0.000000
vn 1.000000 0.000000 0.000000
vn 1.000000 0.000000 0.000000
vn -1.000000 -0.000000 0.000000
vn -1.000000 -0.000000 0.000000
vn -1.000000 -0.000000 0.000000
vn -1.000000 -0.000000 0.000000
vn -1.000000 -0.000000 0.000000
vn -1.000000 -0.000000 0.000000
vn -1.000000 -0.000000 0.000000
vn -1.000000 -0.000000 0.000000
vn -1.000000 -0.000000 0.000000
vn -1.000000 -0.000000 0.000000
vn -1.000000 -0.000000 0.000000
vn -1.000000 -0.000000 0.000000
vn -1.000000 -0.000000 0.000000
vn -1.000000 -0.000000 0.000000
vn -1.000000 -0.000000 0.000000
vn -1.000000 -0.000000 0.000000
vn -1.000000 -0.000000 0.000000
vn -1.000000 -0.000000 0.000000
vn -1.000000 0.000000 0.000000
vn -1.000000 0.000000 0.000000
vn -1.000000 0.000000 0.000000
vn -1.000000 0.000000 0.000000
vn 0.000000 0.000000 1.000000
vn 0.000000 0.000000 1.000000
vn 0.000000 0.000000 1.000000
vn 0.000000 0.000000 1.000000
vn 0.000000 0.000000 -1.000000
vn 0.000000 0.000000 -1.000000
vn 0.000000 0.000000 -1.000000
vn 0.000000 0.000000 -1.000000
vn 0.000000 0.000000 -1.000000
vn 0.000000 0.000000 -1.000000
vn 0.000000 0.000000 -1.000000
vn 0.000000 0.000000 -1.000000
vn 0.000000 -1.000000 0.000000
vn 0.000000 -1.000000 0.000000
vn 0.000000 -1.000000 0.000000
vn 0.000000 -1.000000 0.000000
vn 0.000000 -1.000000 0.000000
vn 0.000000 -1.000000 0.000000
vn 0.000000 -1.000000 0.000000
vn 0.000000 -1.000000 0.000000
vn 0.000000 -1.000000 0.000000
vn 0.000000 -1.000000 0.000000
vn 0.000000 -1.000000 0.000000
vn 0.000000 -1.000000 0.000000
vn 0.000000 -1.000000 0.000000
vn 0.000000 -1.000000 0.000000
vn 0.000000 -1.000000 0.000000
vn 0.000000 -1.000000 0.000000
vn 0.000000 -1.000000 0.000000
vn 0.000000 -1.000000 0.000000
vn 0.000000 -1.000000 0.000000
vn 0.000000 -1.000000 0.000000
vn 0.000000 -1.000000 0.000000
vn 0.000000 -1.000000 0.000000
vn 0.000000 -1.000000 0.000000
vn 0.000000 -1.000000 0.000000
vn 0.000000 -1.000000 0.000000
vn 0.000000 -1.000000 0.000000
vn 0.000000 -1.000000 0.000000
vn 0.000000 -1.000000 0.000000
vn 0.000000 -1.000000 0.000000
vn 0.000000 -1.000000 0.000000
vn 0.000000 -1.000000 0.000000
vn 0.000000 -1.000000 0.000000
vn 0.000000 -1.000000 0.000000
vn 0.000000 -1.000000 0.000000
vn 0.000000 -1.000000 0.000000
vn 0.000000 -1.000000 0.000000
vn 1.000000 0.000000 0.000000
vn 1.000000 0.000000 0.000000
vn 1.000000 0.000000 0.000000
vn 1.000000 0.000000 0.000000
vn -1.000000 0.000000 0.000000
vn -1.000000 0.000000 0.000000
vn -1.000000 0.000000 0.000000
vn -1.000000 0.000000 0.000000
vn -0.714061 0.700084 0.000000
vn -0.714061 0.700084 0.000000
vn -0.714061 0.700084 0.000000
vn -0.714061 0.700084 0.000000
vn -0.714061 0.700084 0.000000
vn -0.714061 0.700084 0.000000
vn -0.714061 0.700084 0.000000
vn -0.714061 0.700084 0.000000
vn 0.000000 -1.000000 0.000000
vn 0.000000 -1.000000 0.000000
vn 0.000000 -1.000000 0.000000
vn 0.000000 -1.000000 0.000000
vn 0.000000 -1.000000 0.000000
vn 0.000000 -1.000000 0.000000
vn 0.000000 -1.000000 0.000000
vn 0.000000 -1.000000 0.000000
vn 0.000000 -1.000000 0.000000
vn 0.000000 -1.000000 0.000000
vn 0.000000 -1.000000 0.000000
vn 0.000000 -1.000000 0.000000
vn 0.000000 0.000000 1.000000
vn 0.000000 0.000000 1.000000
vn 0.000000 0.000000 1.000000
vn 0.000000 0.000000 1.000000
vn 0.000000 0.000000 1.000000
vn 0.000000 0.000000 1.000000
vn 0.000000 0.000000 1.000000
vn 0.000000 0.000000 1.000000
vn 0.000000 0.000000 -1.000000
vn 0.000000 0.000000 -1.000000
vn 0.000000 0.000000 -1.000000
vn 0.000000 0.000000 -1.000000
vn 0.000000 0.000000 -1.000000
vn 0.000000 0.000000 -1.000000
vn 0.000000 0.000000 -1.000000
vn 0.000000 0.000000 -1.000000
vn 0.000000 -1.000000 0.000000
vn 0.000000 -1.000000 0.000000
vn 0.000000 -1.000000 0.000000
vn 0.000000 -1.000000 0.000000
vn 0.000000 -1.000000 0.000000
vn 0.000000 -1.000000 0.000000
vn 0.000000 -1.000000 0.000000
vn 0.000000 -1.000000 0.000000
vn 0.000000 -1.000000 0.000000
vn 0.000000 -1.000000 0.000000
vn 0.000000 -1.000000 0.000000
vn 0.000000 -1.000000 0.000000
vn 0.000000 -1.000000 0.000000
vn 0.000000 -1.000000 0.000000
vn 0.000000 -1.000000 0.000000
vn 0.000000 -1.000000 0.000000
vn 0.000000 -1.000000 0.000000
vn 0.000000 -1.000000 0.000000
vn 0.000000 -1.000000 0.000000
vn 0.000000 -1.000000 0.000000
vn 0.000000 -1.000000 0.000000
vn 0.000000 -1.000000 0.000000
vn 0.000000 -1.000000 0.000000
vn 0.000000 -1.000000 0.000000
vn 0.000000 -1.000000 0.000000
vn 0.000000 -1.000000 0.000000
vn 0.000000 -1.000000 0.000000
vn 0.000000 -1.000000 0.000000
vn 0.000000 -1.000000 0.000000
vn 0.000000 -1.000000 0.000000
vn 0.000000 -1.000000 0.000000
vn 0.000000 -1.000000 0.000000
vn 0.000000 -1.000000 0.000000
vn 0.000000 -1.000000 0.000000
vn 0.000000 -1.000000 0.000000
vn 0.000000 -1.000000 0.000000
vn 1.000000 0.000000 0.000000
vn 1.000000 0.000000 0.000000
vn 1.000000 0.000000 0.000000
vn 1.000000 0.000000 0.000000
vn 1.000000 0.000000 0.000000
vn 1.000000 0.000000 0.000000
vn 1.000000 0.000000 0.000000
vn 1.000000 0.000000 0.000000
vn -1.000000 0.000000 0.000000
vn -1.000000 0.000000 0.000000
vn -1.000000 0.000000 0.000000
vn -1.000000 0.000000 0.000000
vn -1.000000 0.000000 0.000000
vn -1.000000 0.000000 0.000000
vn -1.000000 0.000000 0.000000
vn -1.000000 0.000000 0.000000
vn -0.714061 0.700084 0.000000
vn -0.714061 0.700084 0.000000
vn -0.714061 0.700084 0.000000
vn -0.714061 0.700084 0.000000
vn -0.714061 0.700084 0.000000
vn -0.714061 0.700084 0.000000
vn -0.714061 0.700084 0.000000
vn -0.714061 0.700084 0.000000
vn 0.000000 0.000000 1.000000
vn 0.000000 0.000000 1.000000
vn 0.000000 0.000000 1.000000
vn 0.000000 0.000000 1.000000
vn 0.000000 0.000000 1.000000
vn 0.000000 0.000000 1.000000
vn 0.000000 0.000000 1.000000
vn 0.000000 0.000000 1.000000
vn 0.000000 0.000000 1.000000
vn 0.000000 0.000000 1.000000
vn 0.000000 0.000000 1.000000
vn 0.000000 0.000000 1.000000
vn 0.000000 -1.000000 0.000000
vn 0.000000 -1.000000 0.000000
vn 0.000000 -1.000000 0.000000
vn 0.000000 -1.000000 0.000000
vn 0.000000 -1.000000 0.000000
vn 0.000000 -1.000000 0.000000
vn 0.000000 -1.000000 0.000000
vn 0.000000 -1.000000 0.000000
vn 0.000000 -1.000000 0.000000
vn 0.000000 -1.000000 0.000000
vn 0.000000 -1.000000 0.000000
vn 0.000000 -1.000000 0.000000
vn 0.000000 -1.000000 0.000000
vn 0.000000 -1.000000 0.000000
vn 0.000000 -1.000000 0.000000
vn 0.000000 -1.000000 0.000000
vn 0.000000 -1.000000 0.000000
vn 0.000000 -1.000000 0.000000
vn 0.000000 -1.000000 0.000000
vn 0.000000 -1.000000 0.000000
vn 0.000000 -1.000000 0.000000
vn 0.000000 -1.000000 0.000000
vn 0.000000 -1.000000 0.000000
vn 0.000000 -1.000000 0.000000
vn 0.000000 -1.000000 0.000000
vn 0.000000 -1.000000 0.000000
vn 0.000000 -1.000000 0.000000
vn 0.000000 -1.000000 0.000000
vn 0.000000 -1.000000 0.000000
vn 0.000000 -1.000000 0.000000
vn 0.000000 -1.000000 0.000000
vn 0.000000 -1.000000 0.000000
vn 0.000000 -1.000000 0.000000
vn 0.000000 -1.000000 0.000000
vn 0.000000 -1.000000 0.000000
vn 0.000000 -1.000000 0.000000
vn 1.000000 0.000000 0.000000
vn 1.000000 0.000000 0.000000
vn 1.000000 0.000000 0.000000
vn 1.000000 0.000000 0.000000
vn 1.000000 0.000000 0.000000
vn 1.000000 0.000000 0.000000
vn 1.000000 0.000000 0.000000
vn 1.000000 0.000000 0.000000
vn 1.000000 0.000000 0.000000
vn 1.000000 0.000000 0.000000
vn 1.000000 0.000000 0.000000
vn 1.000000 0.000000 0.000000
vn -1.000000 0.000000 0.000000
vn -1.000000 0.000000 0.000000
vn -1.000000 0.000000 0.000000
vn -1.000000 0.000000 0.000000
vn -1.000000 0.000000 0.000000
vn -1.000000 0.000000 0.000000
vn -1.000000 0.000000 0.000000
vn -1.000000 0.000000 0.000000
vn -1.000000 0.000000 0.000000
vn -1.000000 0.000000 0.000000
vn -1.000000 0.000000 0.000000
vn -1.000000 0.000000 0.000000
vn 0.000000 0.000000 1.000000
vn 0.000000 0.000000 1.000000
vn 0.000000 0.000000 1.000000
vn 0.000000 0.000000 1.000000
vn 0.000000 0.000000 -1.000000
vn 0.000000 0.000000 -1.000000
vn 0.000000 0.000000 -1.000000
vn 0.000000 0.000000 -1.000000
vn 0.000000 0.000000 -1.000000
vn 0.000000 0.000000 -1.000000
vn 0.000000 0.000000 -1.000000
vn 0.000000 0.000000 -1.000000
vn 0.000000 0.000000 -1.000000
vn 0.000000 0.000000 -1.000000
vn 0.000000 0.000000 -1.000000
vn 0.000000 0.000000 -1.000000
vn 0.000000 0.000000 -1.000000
vn 0.000000 0.000000 -1.000000
vn 0.000000 0.000000 -1.000000
vn 0.000000 0.000000 -1.000000
vn 0.000000 -1.000000 0.000000
vn 0.000000 -1.000000 0.000000
vn 0.000000 -1.000000 0.000000
vn 0.000000 -1.000000 0.000000
vn 0.000000 -1.000000 0.000000
vn 0.000000 -1.000000 0.000000
vn 0.000000 -1.000000 0.000000
vn 0.000000 -1.000000 0.000000
vn 0.000000 -1.000000 0.000000
vn 0.000000 -1.000000 0.000000
vn 0.000000 -1.000000 0.000000
vn 0.000000 -1.000000 0.000000
vn 0.000000 -1.000000 0.000000
vn 0.000000 -1.000000 0.000000
vn 0.000000 -1.000000 0.000000
vn 0.000000 -1.000000 0.000000
vn 0.000000 -1.000000 0.000000
vn 0.000000 -1.000000 0.000000
vn 0.000000 -1.000000 0.000000
vn 0.000000 -1.000000 0.000000
vn 0.000000 -1.000000 0.000000
vn 0.000000 -1.000000 0.000000
vn 0.000000 -1.000000 0.000000
vn 0.000000 -1.000000 0.000000
vn 0.000000 -1.000000 0.000000
vn 0.000000 -1.000000 0.000000
vn 0.000000 -1.000000 0.000000
vn 0.000000 -1.000000 0.000000
vn 0.000000 -1.000000 0.000000
vn 0.000000 -1.000000 0.000000
vn 0.000000 -1.000000 0.000000
vn 0.000000 -1.000000 0.000000
vn 0.000000 -1.000000 0.000000
vn 0.000000 -1.000000 0.000000
vn 0.000000 -1.000000 0.000000
vn 0.000000 -1.000000 0.000000
vn 0.000000 -1.000000 0.000000
vn 0.000000 -1.000000 0.000000
vn 0.000000 -1.000000 0.000000
vn 0.000000 -1.000000 0.000000
vn 0.000000 -1.000000 0.000000
vn 0.000000 -1.000000 0.000000
vn 0.000000 -1.000000 0.000000
vn 0.000000 -1.000000 0.000000
vn 0.000000 -1.000000 0.000000
vn 0.000000 -1.000000 0.000000
vn 0.000000 -1.000000 0.000000
vn 0.000000 -1.000000 0.000000
vn 0.000000 -1.000000 0.000000
vn 0.000000 -1.000000 0.000000
vn 0.000000 -1.000000 0.000000
vn 0.000000 -1.000000 0.000000
vn 0.000000 -1.000000 0.000000
vn 0.000000 -1.000000 0.000000
vn 0.000000 -1.000000 0.000000
vn 0.000000 -1.000000 0.000000
vn 0.000000 -1.000000 0.000000
vn 0.000000 -1.000000 0.000000
vn 0.000000 -1.000000 0.000000
vn 0.000000 -1.000000 0.000000
vn 0.000000 -1.000000 0.000000
vn 0.000000 -1.000000 0.000000
vn 0.000000 -1.000000 0.000000
vn 0.000000 -1.000000 0.000000
vn 0.000000 -1.000000 0.000000
vn 0.000000 -1.000000 0.000000
vn 0.000000 -1.000000 0.000000
vn 0.000000 -1.000000 0.000000
vn 0.000000 -1.000000 0.000000
vn 0.000000 -1.000000 0.000000
vn 0.000000 -1.000000 0.000000
vn 0.000000 -1.000000 0.000000
vn 0.000000 -1.000000 0.000000
vn 0.000000 -1.000000 0.000000
vn 0.000000 -1.000000 0.000000
vn 0.000000 -1.000000 0.000000
vn 0.000000 -1.000000 0.000000
vn 0.000000 -1.000000 0.000000
vn 0.000000 -1.000000 0.000000
vn 0.000000 -1.000000 0.000000
vn 0.000000 -1.000000 0.000000
vn 0.000000 -1.000000 0.000000
vn 0.000000 -1.000000 0.000000
vn 0.000000 -1.000000 0.000000
vn 0.000000 -1.000000 0.000000
vn 0.000000 -1.000000 0.000000
vn 0.000000 -1.000000 0.000000
vn 0.000000 -1.000000 0.000000
vn 0.000000 -1.000000 0.000000
vn 0.000000 -1.000000 0.000000
vn 0.000000 -1.000000 0.000000
vn 0.000000 -1.000000 0.000000
vn 0.000000 -1.000000 0.000000
vn 0.000000 -1.000000 0.000000
vn 0.000000 -1.000000 0.000000
vn 0.000000 -1.000000 0.000000
vn 0.000000 -1.000000 0.000000
vn 0.000000 -1.000000 0.000000
vn 0.000000 -1.000000 0.000000
vn 0.000000 -1.000000 0.000000
vn 0.000000 -1.000000 0.000000
vn 0.000000 -1.000000 0.000000
vn 0.000000 -1.000000 0.000000
vn 0.000000 -1.000000 0.000000
vn 0.000000 -1.000000 0.000000
vn 0.000000 -1.000000 0.000000
vn 0.000000 -1.000000 0.000000
vn 0.000000 -1.000000 0.000000
vn 1.000000 0.000000 0.000000
vn 1.000000 0.000000 0.000000
vn 1.000000 0.000000 0.000000
vn 1.000000 0.000000 0.000000
vn -1.000000 0.000000 0.000000
vn -1.000000 0.000000 0.000000
vn -1.000000 0.000000 0.000000
vn -1.000000 0.000000 0.000000
vn -0.714061 0.700083 0.000000
vn -0.714061 0.700083 0.000000
vn -0.714061 0.700083 0.000000
vn -0.714061 0.700083 0.000000
vn -0.714061 0.700084 0.000000
vn -0.714061 0.700084 0.000000
vn -0.714061 0.700084 0.000000
vn -0.714061 0.700084 0.000000
vn -0.714061 0.700084 0.000000
vn -0.714061 0.700084 0.000000
vn -0.714061 0.700084 0.000000
vn -0.714061 0.700084 0.000000
vn -0.714061 0.700083 0.000000
vn -0.714061 0.700083 0.000000
vn -0.714061 0.700083 0.000000
vn -0.714061 0.700083 0.000000
vn 0.000000 -1.000000 0.000001
vn 0.000000 -1.000000 0.000001
vn 0.000000 -1.000000 0.000001
vn 0.000000 -1.000000 0.000001
vn 0.000000 1.000000 0.000000
vn 0.000000 1.000000 0.000000
vn 0.000000 1.000000 0.000000
vn 0.000000 -1.000000 0.000000
vn 0.000000 -1.000000 0.000000
vn 0.000000 -1.000000 0.000000
vn 0.000000 -1.000000 0.000000
vn 0.000000 1.000000 0.000000
vn 0.000000 1.000000 0.000000
vn 0.000000 1.000000 0.000000
vn 0.000000 1.000000 0.000000
vn 0.000000 -1.000000 0.000000
vn 0.000000 -1.000000 0.000000
vn 0.000000 -1.000000 0.000000
vn 0.000000 -1.000000 0.000000
vn 0.000000 1.000000 0.000000
vn 0.000000 1.000000 0.000000
vn 0.000000 1.000000 0.000000
vn 0.000000 1.000000 0.000000
vn 0.000000 -1.000000 0.000000
vn 0.000000 -1.000000 0.000000
vn 0.000000 -1.000000 0.000000
vn 0.000000 -1.000000 0.000000
vn 0.000000 1.000000 0.000001
vn 0.000000 1.000000 0.000001
vn 0.000000 1.000000 0.000001
vn 0.000000 -1.000000 -0.000001
vn 0.000000 -1.000000 -0.000001
vn 0.000000 -1.000000 -0.000001
vn 0.000000 -1.000000 -0.000001
vn 0.000000 1.000000 0.000000
vn 0.000000 1.000000 0.000000
vn 0.000000 1.000000 0.000000
vn 0.000000 -1.000000 0.000001
vn 0.000000 -1.000000 0.000001
vn 0.000000 -1.000000 0.000001
vn 0.000000 -1.000000 0.000001
vn 0.000000 1.000000 0.000001
vn 0.000000 1.000000 0.000001
vn 0.000000 1.000000 0.000001
vn 0.000000 -1.000000 0.000000
vn 0.000000 -1.000000 0.000000
vn 0.000000 -1.000000 0.000000
vn 0.000000 -1.000000 0.000000
vn 0.000000 1.000000 0.000000
vn 0.000000 1.000000 0.000000
vn 0.000000 1.000000 0.000000
vn 0.000000 1.000000 0.000000
vn 0.000000 -1.000000 0.000000
vn 0.000000 -1.000000 0.000000
vn 0.000000 -1.000000 0.000000
vn 0.000000 -1.000000 0.000000
vn 0.000000 1.000000 0.000000
vn 0.000000 1.000000 0.000000
vn 0.000000 1.000000 0.000000
vn 0.000000 1.000000 0.000000
vn 0.000000 -1.000000 0.000000
vn 0.000000 -1.000000 0.000000
vn 0.000000 -1.000000 0.000000
vn 0.000000 -1.000000 0.000000
vn 0.000000 1.000000 0.000000
vn 0.000000 1.000000 0.000000
vn 0.000000 1.000000 0.000000
vn 0.000000 1.000000 0.000000
vn 0.000000 1.000000 0.000000
vn 0.000000 -1.000000 0.000000
vn 0.000000 -1.000000 0.000000
vn 0.000000 -1.000000 0.000000
vn 0.000000 -1.000000 0.000000
vn 0.000000 1.000000 -0.000001
vn 0.000000 1.000000 -0.000001
vn 0.000000 1.000000 -0.000001
vn 0.000000 -1.000000 0.000000
vn 0.000000 -1.000000 0.000000
vn 0.000000 -1.000000 0.000000
vn 0.000000 -1.000000 0.000000
vn 0.000000 1.000000 0.000000
vn 0.000000 1.000000 0.000000
vn 0.000000 1.000000 0.000000
vn 0.000000 1.000000 0.000000
vn 0.000000 1.000000 0.000000
vn 0.000000 -1.000000 -0.000000
vn 0.000000 -1.000000 -0.000000
vn 0.000000 -1.000000 -0.000000
vn 0.000000 -1.000000 -0.000000
vn 0.000000 1.000000 0.000001
vn 0.000000 1.000000 0.000001
vn 0.000000 1.000000 0.000001
vn 0.000000 -1.000000 0.000000
vn 0.000000 -1.000000 0.000000
vn 0.000000 -1.000000 0.000000
vn 0.000000 -1.000000 0.000000
vn 0.000000 1.000000 0.000000
vn 0.000000 1.000000 0.000000
vn 0.000000 1.000000 0.000000
vn 0.000000 1.000000 0.000000
vn 0.000000 -1.000000 0.000000
vn 0.000000 -1.000000 0.000000
vn 0.000000 -1.000000 0.000000
vn 0.000000 -1.000000 0.000000
vn 0.000000 1.000000 0.000000
vn 0.000000 1.000000 0.000000
vn 0.000000 1.000000 0.000000
vn 0.000000 1.000000 0.000000
vn 0.000000 -1.000000 0.000000
vn 0.000000 -1.000000 0.000000
vn 0.000000 -1.000000 0.000000
vn 0.000000 -1.000000 0.000000
vn 0.000000 1.000000 0.000000
vn 0.000000 1.000000 0.000000
vn 0.000000 1.000000 0.000000
vn 0.000000 1.000000 0.000000
vn 0.000000 -1.000000 0.000000
vn 0.000000 -1.000000 0.000000
vn 0.000000 -1.000000 0.000000
vn 0.000000 -1.000000 0.000000
vn 0.000000 1.000000 0.000000
vn 0.000000 1.000000 0.000000
vn 0.000000 1.000000 0.000000
vn 0.000000 1.000000 0.000000
vn 0.000000 -1.000000 0.000001
vn 0.000000 -1.000000 0.000001
vn 0.000000 -1.000000 0.000001
vn 0.000000 -1.000000 0.000001
vn 0.000000 1.000000 0.000000
vn 0.000000 1.000000 0.000000
vn 0.000000 1.000000 0.000000
vn 0.000000 -1.000000 -0.000001
vn 0.000000 -1.000000 -0.000001
vn 0.000000 -1.000000 -0.000001
vn 0.000000 -1.000000 -0.000001
vn 0.000000 1.000000 -0.000000
vn 0.000000 1.000000 -0.000000
vn 0.000000 1.000000 -0.000000
vn 0.000000 -1.000000 0.000000
vn 0.000000 -1.000000 0.000000
vn 0.000000 -1.000000 0.000000
vn 0.000000 -1.000000 0.000000
vn 0.000000 -1.000000 0.000000
vn 0.000000 -1.000000 0.000000
vn 0.000000 -1.000000 0.000000
vn 0.000000 -1.000000 0.000000
vn 0.000000 1.000000 0.000000
vn 0.000000 1.000000 0.000000
vn 0.000000 1.000000 0.000000
vn 0.000000 1.000000 0.000000
vn 0.000000 -1.000000 0.000000
vn 0.000000 -1.000000 0.000000
vn 0.000000 -1.000000 0.000000
vn 0.000000 -1.000000 0.000000
vn 0.000000 1.000000 0.000000
vn 0.000000 1.000000 0.000000
vn 0.000000 1.000000 0.000000
vn 0.000000 1.000000 0.000000
vn 0.000000 -1.000000 0.000000
vn 0.000000 -1.000000 0.000000
vn 0.000000 -1.000000 0.000000
vn 0.000000 -1.000000 0.000000
vn 0.000000 1.000000 0.000000
vn 0.000000 1.000000 0.000000
vn 0.000000 1.000000 0.000000
vn 0.000000 1.000000 0.000000
vn 0.000000 -1.000000 0.000000
vn 0.000000 -1.000000 0.000000
vn 0.000000 -1.000000 0.000000
vn 0.000000 -1.000000 0.000000
vn 0.000000 1.000000 0.000000
vn 0.000000 1.000000 0.000000
vn 0.000000 1.000000 0.000000
vn 0.000000 1.000000 0.000000
vn 0.000000 -1.000000 0.000000
vn 0.000000 -1.000000 0.000000
vn 0.000000 -1.000000 0.000000
vn 0.000000 -1.000000 0.000000
vn 0.000000 1.000000 0.000000
vn 0.000000 1.000000 0.000000
vn 0.000000 1.000000 0.000000
vn 0.000000 1.000000 0.000000
vn 0.000000 -1.000000 0.000000
vn 0.000000 -1.000000 0.000000
vn 0.000000 -1.000000 0.000000
vn 0.000000 -1.000000 0.000000
vn 0.000000 1.000000 0.000000
vn 0.000000 1.000000 0.000000
vn 0.000000 1.000000 0.000000
vn 0.000000 1.000000 0.000000
vn 0.000000 -1.000000 0.000000
vn 0.000000 -1.000000 0.000000
vn 0.000000 -1.000000 0.000000
vn 0.000000 -1.000000 0.000000
vn 0.000000 1.000000 0.000000
vn 0.000000 1.000000 0.000000
vn 0.000000 1.000000 0.000000
vn 0.000000 -1.000000 0.000001
vn 0.000000 -1.000000 0.000001
vn 0.000000 -1.000000 0.000001
vn 0.000000 -1.000000 0.000001
vn 0.000000 1.000000 0.000000
vn 0.000000 1.000000 0.000000
vn 0.000000 1.000000 0.000000
vn 0.000000 -1.000000 0.000000
vn 0.000000 -1.000000 0.000000
vn 0.000000 -1.000000 0.000000
vn 0.000000 -1.000000 0.000000
vn 0.000000 1.000000 -0.000002
vn 0.000000 1.000000 -0.000002
vn 0.000000 1.000000 -0.000002
vn 0.000000 -1.000000 -0.000000
vn 0.000000 -1.000000 -0.000000
vn 0.000000 -1.000000 -0.000000
vn 0.000000 -1.000000 -0.000000
vn 0.000000 -1.000000 -0.000000
vn 0.000000 -1.000000 -0.000000
vn 0.000000 -1.000000 -0.000000
vn 0.000000 -1.000000 -0.000000
vn 0.000000 1.000000 0.000000
vn 0.000000 1.000000 0.000000
vn 0.000000 1.000000 0.000000
vn 0.000000 -1.000000 0.000000
vn 0.000000 -1.000000 0.000000
vn 0.000000 -1.000000 0.000000
vn 0.000000 -1.000000 0.000000
vn 0.000000 1.000000 0.000000
vn 0.000000 1.000000 0.000000
vn 0.000000 1.000000 0.000000
vn 0.000000 1.000000 0.000000
vn 0.000000 -1.000000 0.000000
vn 0.000000 -1.000000 0.000000
vn 0.000000 -1.000000 0.000000
vn 0.000000 -1.000000 0.000000
vn 0.000000 1.000000 0.000000
vn 0.000000 1.000000 0.000000
vn 0.000000 1.000000 0.000000
vn 0.000000 1.000000 0.000000
vn -0.912581 0.408896 0.000000
vn -0.912581 0.408896 0.000000
vn -0.912581 0.408896 0.000000
vn -0.912581 0.408896 0.000000
vn -0.572357 0.820004 0.000000
vn -0.572357 0.820004 0.000000
vn -0.572357 0.820004 0.000000
vn -0.572357 0.820004 0.000000
vn 0.888025 -0.459796 0.000000
vn 0.888025 -0.459796 0.000000
vn 0.888025 -0.459796 0.000000
vn 0.888025 -0.459796 0.000000
vn 0.888025 -0.459796 0.000000
vn 0.888025 -0.459796 0.000000
vn 0.888025 -0.459796 0.000000
vn 0.888025 -0.459796 0.000000
vn 0.888025 -0.459796 0.000000
vn 0.888025 -0.459796 0.000000
vn 0.888025 -0.459796 0.000000
vn 0.888025 -0.459796 0.000000
vn 0.888025 -0.459795 0.000000
vn 0.888025 -0.459795 0.000000
vn 0.888025 -0.459795 0.000000
vn 0.888025 -0.459795 0.000000
vn 0.888025 -0.459795 0.000000
vn 0.888025 -0.459795 0.000000
vn 0.888025 -0.459795 0.000000
vn 0.888025 -0.459795 0.000000
vn 0.888025 -0.459796 0.000000
vn 0.888025 -0.459796 0.000000
vn 0.888025 -0.459796 0.000000
vn 0.888025 -0.459796 0.000000
vn 0.888025 -0.459796 0.000000
vn 0.888025 -0.459796 0.000000
vn 0.888025 -0.459796 0.000000
vn 0.888025 -0.459796 0.000000
vn 0.888025 -0.459796 0.000000
vn 0.888025 -0.459796 0.000000
vn 0.888025 -0.459796 0.000000
vn 0.888025 -0.459796 0.000000
vn 0.912581 0.408896 0.000000
vn 0.912581 0.408896 0.000000
vn 0.912581 0.408896 0.000000
vn 0.912581 0.408896 0.000000
vn 0.000000 1.000000 -0.000000
vn 0.000000 1.000000 -0.000000
vn 0.000000 1.000000 -0.000000
vn 0.000000 0.000000 1.000000
vn 0.000000 0.000000 1.000000
vn 0.000000 0.000000 1.000000
vn 0.000000 0.000000 1.000000
vn 0.000000 -1.000000 0.000000
vn 0.000000 -1.000000 0.000000
vn 0.000000 -1.000000 0.000000
vn 0.000000 -1.000000 0.000000
vn 0.000000 -1.000000 0.000000
vn 0.000000 -1.000000 0.000000
vn 0.000000 -1.000000 0.000000
vn 0.000000 -1.000000 0.000000
vn 0.000000 -1.000000 0.000000
vn 0.000000 -1.000000 0.000000
vn 0.000000 -1.000000 0.000000
vn 0.000000 -1.000000 0.000000
vn 0.000000 -1.000000 0.000000
vn 0.000000 -1.000000 0.000000
vn 0.000000 -1.000000 0.000000
vn 0.000000 -1.000000 0.000000
vn 0.000000 -1.000000 0.000000
vn 0.000000 -1.000000 0.000000
vn 0.000000 -1.000000 0.000000
vn 0.000000 -1.000000 0.000000
vn 0.000000 -1.000000 0.000000
vn 0.000000 -1.000000 0.000000
vn 0.000000 -1.000000 0.000000
vn 0.000000 -1.000000 0.000000
vn 0.000000 -1.000000 0.000000
vn 0.000000 -1.000000 0.000000
vn 0.000000 -1.000000 0.000000
vn 0.000000 -1.000000 0.000000
vn 0.000000 -1.000000 0.000000
vn 0.000000 -1.000000 0.000000
vn 0.000000 -1.000000 0.000000
vn 0.000000 -1.000000 0.000000
vn 0.000000 -1.000000 0.000000
vn 0.000000 -1.000000 0.000000
vn 0.000000 -1.000000 0.000000
vn 0.000000 -1.000000 0.000000
vn 0.000000 -1.000000 -0.000001
vn 0.000000 -1.000000 -0.000001
vn 0.000000 -1.000000 -0.000001
vn 0.000000 -1.000000 -0.000001
vn 0.000000 0.000000 -1.000000
vn 0.000000 0.000000 -1.000000
vn 0.000000 0.000000 -1.000000
vn 0.000000 0.000000 -1.000000
vn 0.000000 1.000000 0.000000
vn 0.000000 1.000000 0.000000
vn 0.000000 1.000000 0.000000
vn 0.000000 1.000000 0.000000
vn 0.000000 1.000000 0.000000
vn 0.000000 1.000000 0.000000
vn 0.000000 0.000000 1.000000
vn 0.000000 0.000000 1.000000
vn 0.000000 0.000000 1.000000
vn 0.000000 0.000000 1.000000
vn 0.000000 -1.000000 -0.000001
vn 0.000000 -1.000000 -0.000001
vn 0.000000 -1.000000 -0.000001
vn 0.000000 -1.000000 -0.000001
vn 0.000000 -1.000000 0.000000
vn 0.000000 -1.000000 0.000000
vn 0.000000 -1.000000 0.000000
vn 0.000000 -1.000000 0.000000
vn 0.000000 -1.000000 0.000000
vn 0.000000 -1.000000 0.000000
vn 0.000000 -1.000000 0.000000
vn 0.000000 -1.000000 0.000000
vn 0.000000 -1.000000 0.000000
vn 0.000000 -1.000000 0.000000
vn 0.000000 -1.000000 0.000000
vn 0.000000 -1.000000 0.000000
vn 0.000000 -1.000000 0.000000
vn 0.000000 -1.000000 0.000000
vn 0.000000 -1.000000 0.000000
vn 0.000000 -1.000000 0.000000
vn 0.000000 -1.000000 0.000000
vn 0.000000 -1.000000 0.000000
vn 0.000000 -1.000000 0.000000
vn 0.000000 -1.000000 0.000000
vn 0.000000 -1.000000 0.000000
vn 0.000000 -1.000000 0.000000
vn 0.000000 -1.000000 0.000000
vn 0.000000 -1.000000 0.000000
vn 0.000000 -1.000000 0.000000
vn 0.000000 -1.000000 0.000000
vn 0.000000 -1.000000 0.000000
vn 0.000000 -1.000000 0.000000
vn 0.000000 -1.000000 0.000000
vn 0.000000 -1.000000 0.000000
vn 0.000000 -1.000000 0.000000
vn 0.000000 -1.000000 0.000000
vn 0.000000 -1.000000 0.000000
vn 0.000000 -1.000000 0.000000
vn 0.000000 -1.000000 0.000000
vn 0.000000 -1.000000 0.000000
vn 0.000000 0.000000 -1.000000
vn 0.000000 0.000000 -1.000000
vn 0.000000 0.000000 -1.000000
vn 0.000000 0.000000 -1.000000
vn 0.000000 1.000000 0.000000
vn 0.000000 1.000000 0.000000
vn 0.000000 1.000000 0.000000
vn 0.000000 -1.000000 -0.000001
vn 0.000000 -1.000000 -0.000001
vn 0.000000 -1.000000 -0.000001
vn 0.000000 -1.000000 -0.000001
vn 0.000000 0.000000 1.000000
vn 0.000000 0.000000 1.000000
vn 0.000000 0.000000 1.000000
vn 0.000000 0.000000 1.000000
vn 0.000000 1.000000 -0.000001
vn 0.000000 1.000000 -0.000001
vn 0.000000 1.000000 -0.000001
vn 0.000000 1.000000 0.000000
vn 0.000000 1.000000 0.000000
vn 0.000000 1.000000 0.000000
vn 0.000000 0.000000 -1.000000
vn 0.000000 0.000000 -1.000000
vn 0.000000 0.000000 -1.000000
vn 0.000000 0.000000 -1.000000
vn 0.000000 -1.000000 0.000001
vn 0.000000 -1.000000 0.000001
vn 0.000000 -1.000000 0.000001
vn 0.000000 -1.000000 0.000001
vn 0.000000 -1.000000 0.000000
vn 0.000000 -1.000000 0.000000
vn 0.000000 -1.000000 0.000000
vn 0.000000 -1.000000 0.000000
vn 0.000000 -1.000000 0.000000
vn 0.000000 -1.000000 0.000000
vn 0.000000 -1.000000 0.000000
vn 0.000000 -1.000000 0.000000
vn 0.000000 -1.000000 0.000000
vn 0.000000 -1.000000 0.000000
vn 0.000000 -1.000000 0.000000
vn 0.000000 -1.000000 0.000000
vn 0.000000 -1.000000 0.000000
vn 0.000000 -1.000000 0.000000
vn 0.000000 -1.000000 0.000000
vn 0.000000 -1.000000 0.000000
vn 0.000000 -1.000000 0.000000
vn 0.000000 -1.000000 0.000000
vn 0.000000 -1.000000 0.000000
vn 0.000000 -1.000000 0.000000
vn 0.000000 -1.000000 0.000000
vn 0.000000 -1.000000 0.000000
vn 0.000000 -1.000000 0.000000
vn 0.000000 -1.000000 0.000000
vn 0.000000 -1.000000 0.000000
vn 0.000000 -1.000000 0.000000
vn 0.000000 -1.000000 0.000000
vn 0.000000 -1.000000 0.000000
vn 0.000000 -1.000000 0.000000
vn 0.000000 -1.000000 0.000000
vn 0.000000 -1.000000 0.000000
vn 0.000000 -1.000000 0.000000
vn 0.000000 -1.000000 0.000000
vn 0.000000 -1.000000 0.000000
vn 0.000000 -1.000000 0.000000
vn 0.000000 -1.000000 0.000000
vn 0.000000 0.000000 1.000000
vn 0.000000 0.000000 1.000000
vn 0.000000 0.000000 1.000000
vn 0.000000 0.000000 1.000000
vn 0.000000 1.000000 0.000002
vn 0.000000 1.000000 0.000002
vn 0.000000 1.000000 0.000002
vn 0.572357 0.820004 0.000000
vn 0.572357 0.820004 0.000000
vn 0.572357 0.820004 0.000000
vn 0.572357 0.820004 0.000000
vn 0.000000 1.000000 -0.000001
vn 0.000000 1.000000 -0.000001
vn 0.000000 1.000000 -0.000001
vn 0.000000 0.000000 -1.000000
vn 0.000000 0.000000 -1.000000
vn 0.000000 0.000000 -1.000000
vn 0.000000 0.000000 -1.000000
vn 0.000000 -1.000000 0.000000
vn 0.000000 -1.000000 0.000000
vn 0.000000 -1.000000 0.000000
vn 0.000000 -1.000000 0.000000
vn 0.000000 -1.000000 0.000000
vn 0.000000 -1.000000 0.000000
vn 0.000000 -1.000000 0.000000
vn 0.000000 -1.000000 0.000000
vn 0.000000 -1.000000 0.000000
vn 0.000000 -1.000000 0.000000
vn 0.000000 -1.000000 0.000000
vn 0.000000 -1.000000 0.000000
vn 0.000000 -1.000000 0.000000
vn 0.000000 -1.000000 0.000000
vn 0.000000 -1.000000 0.000000
vn 0.000000 -1.000000 0.000000
vn 0.000000 -1.000000 0.000000
vn 0.000000 -1.000000 0.000000
vn 0.000000 -1.000000 0.000000
vn 0.000000 -1.000000 0.000000
vn 0.000000 -1.000000 0.000000
vn 0.000000 -1.000000 0.000000
vn 0.000000 -1.000000 0.000000
vn 0.000000 -1.000000 0.000000
vn 0.000000 -1.000000 0.000000
vn 0.000000 -1.000000 0.000000
vn 0.000000 -1.000000 0.000000
vn 0.000000 -1.000000 0.000000
vn 0.000000 -1.000000 0.000000
vn 0.000000 -1.000000 0.000000
vn 0.000000 -1.000000 0.000000
vn 0.000000 -1.000000 0.000000
vn 0.000000 -1.000000 0.000000
vn 0.000000 -1.000000 0.000000
vn 0.000000 -1.000000 0.000000
vn 0.000000 -1.000000 0.000000
vn -0.210237 -0.977651 0.000000
vn -0.210237 -0.977651 0.000000
vn -0.210237 -0.977651 0.000000
vn -0.210237 -0.977651 0.000000
vn -0.210237 -0.977651 0.000000
vn -0.210237 -0.977651 0.000000
vn -0.210237 -0.977651 0.000000
vn -0.210237 -0.977651 0.000000
vn -0.210237 -0.977651 0.000000
vn -0.210237 -0.977651 0.000000
vn -0.210237 -0.977651 0.000000
vn -0.210237 -0.977651 0.000000
vn -0.210237 -0.977651 0.000000
vn -0.210237 -0.977651 0.000000
vn -0.210237 -0.977651 0.000000
vn -0.210237 -0.977651 0.000000
vn -0.210237 -0.977651 0.000000
vn -0.210237 -0.977651 0.000000
vn -0.210237 -0.977651 0.000000
vn -0.210237 -0.977651 0.000000
vn -0.210237 -0.977651 0.000000
vn -0.210237 -0.977651 0.000000
vn -0.210237 -0.977651 0.000000
vn -0.210237 -0.977651 0.000000
vn -0.210237 -0.977651 0.000000
vn -0.210237 -0.977651 0.000000
vn -0.210237 -0.977651 0.000000
vn -0.210237 -0.977651 0.000000
vn -0.210237 -0.977651 0.000000
vn -0.210237 -0.977651 0.000000
vn -0.210237 -0.977651 0.000000
vn -0.210237 -0.977651 0.000000
vn 0.210237 -0.977651 0.000000
vn 0.210237 -0.977651 0.000000
vn 0.210237 -0.977651 0.000000
vn 0.210237 -0.977651 0.000000
vn 0.210237 -0.977651 0.000000
vn 0.210237 -0.977651 0.000000
vn 0.210237 -0.977651 0.000000
vn 0.210237 -0.977651 0.000000
vn 0.210237 -0.977651 0.000000
vn 0.210237 -0.977651 0.000000
vn 0.210237 -0.977651 0.000000
vn 0.210237 -0.977651 0.000000
vn 0.210237 -0.977651 0.000000
vn 0.210237 -0.977651 0.000000
vn 0.210237 -0.977651 0.000000
vn 0.210237 -0.977651 0.000000
vn 0.210237 -0.977651 0.000000
vn 0.210237 -0.977651 0.000000
vn 0.210237 -0.977651 0.000000
vn 0.210237 -0.977651 0.000000
vn 0.210237 -0.977651 0.000000
vn 0.210237 -0.977651 0.000000
vn 0.210237 -0.977651 0.000000
vn 0.210237 -0.977651 0.000000
vn 0.210237 -0.977651 0.000000
vn 0.210237 -0.977651 0.000000
vn 0.210237 -0.977651 0.000000
vn 0.210237 -0.977651 0.000000
vn 0.210237 -0.977651 0.000000
vn 0.210237 -0.977651 0.000000
vn 0.210237 -0.977651 0.000000
vn 0.210237 -0.977651 0.000000
vn -0.865143 0.501526 0.000000
vn -0.865143 0.501526 0.000000
vn -0.865143 0.501526 0.000000
vn -0.865143 0.501526 0.000000
vn -0.865143 0.501526 0.000000
vn -0.865143 0.501526 0.000000
vn -0.865143 0.501526 0.000000
vn -0.865143 0.501526 0.000000
vn -0.865143 0.501526 0.000000
vn -0.865143 0.501526 0.000000
vn -0.865143 0.501526 0.000000
vn -0.865143 0.501526 0.000000
vn -0.865143 0.501525 0.000000
vn -0.865143 0.501525 0.000000
vn -0.865143 0.501525 0.000000
vn -0.865143 0.501525 0.000000
vn -0.865143 0.501525 0.000000
vn -0.865143 0.501525 0.000000
vn -0.865143 0.501525 0.000000
vn -0.865143 0.501525 0.000000
vn -0.865143 0.501526 0.000000
vn -0.865143 0.501526 0.000000
vn -0.865143 0.501526 0.000000
vn -0.865143 0.501526 0.000000
vn -0.865143 0.501526 0.000000
vn -0.865143 0.501526 0.000000
vn -0.865143 0.501526 0.000000
vn -0.865143 0.501526 0.000000
vn -0.865143 0.501526 0.000000
vn -0.865143 0.501526 0.000000
vn -0.865143 0.501526 0.000000
vn -0.865143 0.501526 0.000000
vn 0.714061 0.700084 0.000000
vn 0.714061 0.700084 0.000000
vn 0.714061 0.700084 0.000000
vn 0.714061 0.700084 0.000000
vn 0.714061 0.700084 0.000000
vn 0.714061 0.700084 0.000000
vn 0.714061 0.700084 0.000000
vn 0.714061 0.700084 0.000000
vn 0.714061 0.700083 0.000000
vn 0.714061 0.700083 0.000000
vn 0.714061 0.700083 0.000000
vn 0.714061 0.700083 0.000000
vn 0.714061 0.700084 0.000000
vn 0.714061 0.700084 0.000000
vn 0.714061 0.700084 0.000000
vn 0.714061 0.700084 0.000000
vn 0.714061 0.700084 0.000000
vn 0.714061 0.700084 0.000000
vn 0.714061 0.700084 0.000000
vn 0.714061 0.700084 0.000000
vn 0.714061 0.700083 0.000000
vn 0.714061 0.700083 0.000000
vn 0.714061 0.700083 0.000000
vn 0.714061 0.700083 0.000000
vn 0.714061 0.700084 0.000000
vn 0.714061 0.700084 0.000000
vn 0.714061 0.700084 0.000000
vn 0.714061 0.700084 0.000000
vn 0.714061 0.700084 0.000000
vn 0.714061 0.700084 0.000000
vn 0.714061 0.700084 0.000000
vn 0.714061 0.700084 0.000000
vn 0.865143 0.501526 0.000000
vn 0.865143 0.501526 0.000000
vn 0.865143 0.501526 0.000000
vn 0.865143 0.501526 0.000000
vn 0.865143 0.501526 0.000000
vn 0.865143 0.501526 0.000000
vn 0.865143 0.501526 0.000000
vn 0.865143 0.501526 0.000000
vn 0.865143 0.501526 0.000000
vn 0.865143 0.501526 0.000000
vn 0.865143 0.501526 0.000000
vn 0.865143 0.501526 0.000000
vn 0.865143 0.501525 0.000000
vn 0.865143 0.501525 0.000000
vn 0.865143 0.501525 0.000000
vn 0.865143 0.501525 0.000000
vn 0.865143 0.501525 0.000000
vn 0.865143 0.501525 0.000000
vn 0.865143 0.501525 0.000000
vn 0.865143 0.501525 0.000000
vn 0.865143 0.501526 0.000000
vn 0.865143 0.501526 0.000000
vn 0.865143 0.501526 0.000000
vn 0.865143 0.501526 0.000000
vn 0.865143 0.501526 0.000000
vn 0.865143 0.501526 0.000000
vn 0.865143 0.501526 0.000000
vn 0.865143 0.501526 0.000000
vn 0.865143 0.501526 0.000000
vn 0.865143 0.501526 0.000000
vn 0.865143 0.501526 0.000000
vn 0.865143 0.501526 0.000000
vn -0.888025 -0.459796 0.000000
vn -0.888025 -0.459796 0.000000
vn -0.888025 -0.459796 0.000000
vn -0.888025 -0.459796 0.000000
vn -0.888025 -0.459796 0.000000
vn -0.888025 -0.459796 0.000000
vn -0.888025 -0.459796 0.000000
vn -0.888025 -0.459796 0.000000
vn -0.888025 -0.459796 0.000000
vn -0.888025 -0.459796 0.000000
vn -0.888025 -0.459796 0.000000
vn -0.888025 -0.459796 0.000000
vn -0.888025 -0.459795 0.000000
vn -0.888025 -0.459795 0.000000
vn -0.888025 -0.459795 0.000000
vn -0.888025 -0.459795 0.000000
vn -0.888025 -0.459795 0.000000
vn -0.888025 -0.459795 0.000000
vn -0.888025 -0.459795 0.000000
vn -0.888025 -0.459795 0.000000
vn -0.888025 -0.459796 0.000000
vn -0.888025 -0.459796 0.000000
vn -0.888025 -0.459796 0.000000
vn -0.888025 -0.459796 0.000000
vn -0.888025 -0.459796 0.000000
vn -0.888025 -0.459796 0.000000
vn -0.888025 -0.459796 0.000000
vn -0.888025 -0.459796 0.000000
vn -0.888025 -0.459796 0.000000
vn -0.888025 -0.459796 0.000000
vn -0.888025 -0.459796 0.000000
vn -0.888025 -0.459796 0.000000
vn -0.572357 0.820004 0.000000
vn -0.572357 0.820004 0.000000
vn -0.572357 0.820004 0.000000
vn -0.572357 0.820004 0.000000
vn -0.912581 0.408896 0.000000
vn -0.912581 0.408896 0.000000
vn -0.912581 0.408896 0.000000
vn -0.912581 0.408896 0.000000
vn -1.000000 0.000000 0.000000
vn -1.000000 0.000000 0.000000
vn -1.000000 0.000000 0.000000
vn -1.000000 0.000000 0.000000
vn -1.000000 0.000000 0.000000
vn -1.000000 0.000000 0.000000
vn -1.000000 0.000000 0.000000
vn -1.000000 0.000000 0.000000
vn -1.000000 0.000000 0.000000
vn -1.000000 0.000000 0.000000
vn -1.000000 0.000000 0.000000
vn -1.000000 0.000000 0.000000
vn -1.000000 0.000000 0.000000
vn -1.000000 0.000000 0.000000
vn -1.000000 0.000000 0.000000
vn -1.000000 0.000000 0.000000
vn -1.000000 0.000000 0.000000
vn -1.000000 0.000000 0.000000
vn 0.000000 1.000000 0.000000
vn 0.000000 1.000000 0.000000
vn 0.000000 1.000000 0.000000
vn 0.000000 1.000000 0.000000
vn 0.000000 1.000000 0.000000
vn 0.000000 1.000000 0.000000
vn 0.000000 1.000000 0.000000
vn 0.000000 1.000000 0.000000
vn 0.000000 1.000000 0.000000
vn 0.000000 1.000000 0.000000
vn 0.000000 1.000000 0.000000
vn 0.000000 1.000000 0.000000
vn 0.000000 1.000000 0.000000
vn 0.000000 1.000000 0.000000
vn 0.000000 1.000000 0.000000
vn 0.000000 1.000000 0.000000
vn 0.000000 1.000000 0.000000
vn 0.000000 1.000000 0.000000
vn 0.912581 0.408896 0.000000
vn 0.912581 0.408896 0.000000
vn 0.912581 0.408896 0.000000
vn 0.912581 0.408896 0.000000
vn 0.572357 0.820004 0.000000
vn 0.572357 0.820004 0.000000
vn 0.572357 0.820004 0.000000
vn 0.572357 0.820004 0.000000
vn -0.006610 0.999978 0.000000
vn -0.006610 0.999978 0.000000
vn -0.006610 0.999978 0.000000
vn -0.006610 0.999978 0.000000
vn -0.006610 0.999978 0.000000
vn -0.006610 0.999978 0.000000
vn -0.006610 0.999978 0.000000
vn -0.006610 0.999978 0.000000
vn -0.006610 0.999978 0.000000
vn -0.006610 0.999978 0.000000
vn -0.006610 0.999978 0.000000
vn -0.006610 0.999978 0.000000
vn -0.006610 0.999978 0.000000
vn -0.006610 0.999978 0.000000
vn -0.006610 0.999978 0.000000
vn -0.006610 0.999978 0.000000
vn -0.006610 0.999978 0.000000
vn -0.006610 0.999978 0.000000
vn -0.006610 0.999978 0.000000
vn -0.006610 0.999978 0.000000
vn 0.572357 0.820005 0.000000
vn 0.572357 0.820005 0.000000
vn 0.572357 0.820005 0.000000
vn 0.572357 0.820005 0.000000
vn 0.912581 0.408896 0.000000
vn 0.912581 0.408896 0.000000
vn 0.912581 0.408896 0.000000
vn 0.912581 0.408896 0.000000
vn -0.912581 0.408896 0.000000
vn -0.912581 0.408896 0.000000
vn -0.912581 0.408896 0.000000
vn -0.912581 0.408896 0.000000
vn -0.572357 0.820005 0.000000
vn -0.572357 0.820005 0.000000
vn -0.572357 0.820005 0.000000
vn -0.572357 0.820005 0.000000
vn -0.572357 0.820005 0.000000
vn -0.572357 0.820005 0.000000
vn -0.572357 0.820005 0.000000
vn -0.572357 0.820005 0.000000
vn -0.912581 0.408896 0.000000
vn -0.912581 0.408896 0.000000
vn -0.912581 0.408896 0.000000
vn -0.912581 0.408896 0.000000
vn 0.912581 0.408896 0.000000
vn 0.912581 0.408896 0.000000
vn 0.912581 0.408896 0.000000
vn 0.912581 0.408896 0.000000
vn 0.572357 0.820005 0.000000
vn 0.572357 0.820005 0.000000
vn 0.572357 0.820005 0.000000
vn 0.572357 0.820005 0.000000
vn 1.000000 -0.000000 0.000000
vn 1.000000 -0.000000 0.000000
vn 1.000000 -0.000000 0.000000
vn 1.000000 -0.000000 0.000000
vn 1.000000 -0.000000 0.000000
vn 1.000000 -0.000000 0.000000
vn 1.000000 -0.000000 0.000000
vn 1.000000 -0.000000 0.000000
vn 1.000000 -0.000000 0.000000
vn 1.000000 -0.000000 0.000000
vn 1.000000 -0.000000 0.000000
vn 1.000000 -0.000000 0.000000
vn 1.000000 -0.000000 0.000000
vn 1.000000 -0.000000 0.000000
vn 1.000000 -0.000000 0.000000
vn 1.000000 -0.000000 0.000000
vn 1.000000 -0.000000 0.000000
vn 1.000000 -0.000000 0.000000
vn -0.572357 0.820005 0.000000
vn -0.572357 0.820005 0.000000
vn -0.912581 0.408896 0.000000
vn -0.912581 0.408896 0.000000
vn 0.912581 0.408896 0.000000
vn 0.912581 0.408896 0.000000
vn 0.572357 0.820005 0.000000
vn 0.572357 0.820005 0.000000
vn 0.006610 0.999978 0.000000
vn 0.006610 0.999978 0.000000
vn 0.006610 0.999978 0.000000
vn 0.006610 0.999978 0.000000
vn 0.006610 0.999978 0.000000
vn 0.006610 0.999978 0.000000
vn 0.006610 0.999978 0.000000
vn 0.006610 0.999978 0.000000
vn 0.006610 0.999978 0.000000
vn 0.006610 0.999978 0.000000
vn 0.006610 0.999978 0.000000
vn 0.006610 0.999978 0.000000
vn 0.006610 0.999978 0.000000
vn 0.006610 0.999978 0.000000
vn 0.006610 0.999978 0.000000
vn 0.006610 0.999978 0.000000
vn 0.006610 0.999978 0.000000
vn 0.006610 0.999978 0.000000
vn 0.006610 0.999978 0.000000
vn 0.006610 0.999978 0.000000
s off
g AltarBody
usemtl AltarBody2
f 266/262/46 267/263/47 72/264/48 71/265/49
f 82/325/50 59/305/51 79/324/52 78/344/53
f 87/338/54 66/327/55 254/347/56 255/353/57
f 92/303/58 68/321/59 89/340/60 88/322/61
f 156/571/62 155/572/63 157/573/64 158/574/65
f 74/272/66 240/283/67 241/299/68 106/285/69
f 109/291/70 58/309/71 77/323/72 110/304/73
f 111/287/74 59/305/75 113/288/76 112/275/77
f 384/46/78 97/47/79 98/48/80 144/49/81 145/50/82 148/51/83 147/52/84 146/53/85 406/54/86 405/55/87 115/56/88 117/57/89 118/58/90 94/59/91 93/60/92 96/61/93 143/62/94 383/63/95
f 160/64/96 159/65/97 161/66/98 162/67/99
f 119/82/100 120/83/101 121/84/102 100/85/103 99/86/104 102/87/105 149/88/106 426/89/107 425/90/108 103/91/109 104/92/110 150/93/111 151/94/112 154/95/113 153/96/114 152/97/115 403/98/116 404/99/117
f 164/100/118 163/101/119 165/102/120 166/103/121
f 168/586/122 167/585/123 246/589/124 247/590/125
f 172/597/126 171/598/127 173/599/128 174/600/129
f 261/616/130 262/615/131 177/617/132 178/618/133
f 81/360/134 63/371/135 250/382/136 251/372/137
f 226/374/138 227/384/139 65/395/140 95/385/141
f 128/326/142 66/327/143 130/306/144 129/307/145
f 222/400/146 223/388/147 61/399/148 116/408/149
f 132/367/150 62/379/151 76/368/152 133/355/153
f 134/339/154 68/321/155 136/302/156 135/320/157
f 270/292/158 258/310/159 105/311/160 137/293/161
f 139/279/162 236/294/163 237/280/164 140/269/165
f 141/276/166 60/267/167 114/274/168 142/286/169
f 180/77/170 179/76/171 181/78/172 182/79/173
f 184/113/174 183/112/175 185/114/176 186/115/177
f 308/251/178 309/247/179 295/244/180 296/248/181
f 312/234/182 399/235/183 400/231/184 292/230/185
f 72/264/186 238/270/187 239/271/188 71/265/189
f 239/271/190 240/283/191 74/272/192 71/265/193
f 74/272/194 265/273/195 266/262/196 71/265/197
f 188/578/198 187/577/199 189/581/200 190/582/201
f 189/581/202 167/585/203 168/586/204 190/582/205
f 192/604/206 191/603/207 193/607/208 194/608/209
f 193/607/210 175/611/211 176/612/212 194/608/213
f 79/324/214 51/343/215 80/359/216 78/344/217
f 80/359/218 63/371/219 81/360/220 78/344/221
f 81/360/222 64/345/223 82/325/224 78/344/225
f 224/376/226 225/375/227 53/386/228 85/387/229
f 85/387/230 61/399/231 223/388/232 224/376/233
f 255/353/234 256/366/235 67/354/236 87/338/237
f 89/340/238 50/356/239 90/341/240 88/322/241
f 90/341/242 55/328/243 91/308/244 88/322/245
f 91/308/246 69/290/247 92/303/248 88/322/249
f 196/71/250 195/70/251 197/74/252 198/75/253
f 197/74/254 179/76/255 180/77/256 198/75/257
f 200/107/258 199/106/259 201/110/260 202/111/261
f 201/110/262 183/112/263 184/113/264 202/111/265
f 298/256/266 422/260/267 421/261/268 306/259/269
f 306/259/270 307/255/271 297/252/272 298/256/273
f 232/583/274 233/584/275 205/579/276 206/580/277
f 205/579/278 259/576/279 260/575/280 206/580/281
f 157/573/282 187/577/283 188/578/284 158/574/285
f 241/299/286 242/317/287 108/300/288 106/285/289
f 108/300/290 263/301/291 264/284/292 106/285/293
f 264/284/294 265/273/295 74/272/296 106/285/297
f 77/323/298 51/343/299 79/324/300 110/304/301
f 79/324/302 59/305/303 111/287/304 110/304/305
f 111/287/306 56/277/307 109/291/308 110/304/309
f 113/288/310 52/289/311 114/274/312 112/275/313
f 114/274/314 60/267/315 75/266/316 112/275/317
f 75/266/318 56/277/319 111/287/320 112/275/321
f 208/72/322 207/73/323 209/68/324 210/69/325
f 209/68/326 159/65/327 160/64/328 210/69/329
f 161/66/330 195/70/331 196/71/332 162/67/333
f 211/108/334 212/109/335 213/104/336 214/105/337
f 213/104/338 163/101/339 164/100/340 214/105/341
f 165/102/342 199/106/343 200/107/344 166/103/345
f 219/594/346 220/593/347 207/595/348 208/596/349
f 215/613/350 216/614/351 230/610/352 231/609/353
f 248/601/354 249/602/355 171/598/356 172/597/357
f 173/599/358 191/603/359 192/604/360 174/600/361
f 177/617/362 243/619/363 244/620/364 178/618/365
f 228/394/366 229/404/367 49/412/368 125/405/369
f 125/405/370 65/395/371 227/384/372 228/394/373
f 251/372/374 252/361/375 64/345/376 81/360/377
f 95/385/378 53/386/379 225/375/380 226/374/381
f 253/346/382 254/347/383 66/327/384 128/326/385
f 128/326/386 64/345/387 252/361/388 253/346/389
f 130/306/390 52/289/391 113/288/392 129/307/393
f 113/288/394 59/305/395 82/325/396 129/307/397
f 82/325/398 64/345/399 128/326/400 129/307/401
f 116/408/402 47/415/403 221/409/404 222/400/405
f 257/378/406 245/390/407 62/379/408 132/367/409
f 132/367/410 67/354/411 256/366/412 257/378/413
f 76/368/414 50/356/415 89/340/416 133/355/417
f 89/340/418 68/321/419 134/339/420 133/355/421
f 134/339/422 67/354/423 132/367/424 133/355/425
f 136/302/426 52/289/427 130/306/428 135/320/429
f 130/306/430 66/327/431 87/338/432 135/320/433
f 87/338/434 67/354/435 134/339/436 135/320/437
f 105/311/438 234/332/439 235/312/440 137/293/441
f 235/312/442 236/294/443 139/279/444 137/293/445
f 139/279/446 269/278/447 270/292/448 137/293/449
f 237/280/450 238/270/451 72/264/452 140/269/453
f 72/264/454 267/263/455 268/268/456 140/269/457
f 268/268/458 269/278/459 139/279/460 140/269/461
f 114/274/462 52/289/463 136/302/464 142/286/465
f 136/302/466 68/321/467 92/303/468 142/286/469
f 92/303/470 69/290/471 141/276/472 142/286/473
f 181/78/474 216/80/475 215/81/476 182/79/477
f 185/114/478 203/116/479 204/117/480 186/115/481
f 296/248/482 297/252/483 307/255/484 308/251/485
f 292/230/486 293/236/487 311/239/488 312/234/489
f 294/240/490 295/244/491 309/247/492 310/243/493
f 310/243/494 311/239/495 293/236/496 294/240/497
f 55/328/498 90/341/499 157/357/500 155/348/501
f 426/419/502 156/420/503 158/421/504
f 61/399/505 85/387/506 161/398/507 159/407/508
f 118/448/509 117/444/510 160/445/511 162/449/512
f 57/298/513 73/282/514 165/297/515 163/315/516
f 121/446/517 120/450/518 164/451/519 166/447/520
f 62/379/521 245/390/522 246/402/523 167/391/524
f 247/429/525 405/425/526 168/427/527
f 63/371/528 80/359/529 173/370/530 171/381/531
f 383/466/532 172/476/533 174/475/534
f 262/318/535 263/301/536 108/300/537 177/319/538
f 404/458/539 261/468/540 178/465/541
f 65/395/542 125/405/543 181/413/544 179/406/545
f 143/463/546 96/460/547 180/461/548 182/464/549
f 70/313/550 138/333/551 185/351/552 183/334/553
f 149/432/554 102/435/555 184/436/556 186/433/557
f 50/356/558 76/368/559 189/380/560 187/369/561
f 188/423/562 190/424/563 405/425/564 426/419/565 158/421/566
f 76/368/567 62/379/568 167/391/569 189/380/570
f 405/425/571 190/424/572 168/427/573
f 51/343/574 77/323/575 193/342/576 191/358/577
f 192/474/578 194/472/579 404/458/580 383/466/581 174/475/582
f 77/323/583 58/309/584 175/329/585 193/342/586
f 404/458/587 194/472/588 176/470/589
f 53/386/590 95/385/591 197/396/592 195/397/593
f 93/456/594 94/452/595 196/453/596 198/457/597
f 95/385/598 65/395/599 179/406/600 197/396/601
f 96/460/602 93/456/603 198/457/604 180/461/605
f 54/281/606 101/295/607 201/314/608 199/296/609
f 99/438/610 100/442/611 200/443/612 202/439/613
f 101/295/614 70/313/615 183/334/616 201/314/617
f 102/435/618 99/438/619 202/439/620 184/436/621
f 233/349/622 234/332/623 105/311/624 205/331/625
f 426/419/626 232/428/627 206/426/628
f 105/311/629 258/310/630 259/330/631 205/331/632
f 260/422/633 426/419/634 206/426/635
f 90/341/636 50/356/637 187/369/638 157/357/639
f 47/415/640 116/408/641 209/414/642 207/418/643
f 115/440/644 405/425/645 208/437/646 210/441/647
f 116/408/648 61/399/649 159/407/650 209/414/651
f 117/444/652 115/440/653 210/441/654 160/445/655
f 85/387/656 53/386/657 195/397/658 161/398/659
f 94/452/660 118/448/661 162/449/662 196/453/663
f 48/336/664 107/316/665 213/335/666 212/352/667
f 119/454/668 404/458/669 211/459/670 214/455/671
f 107/316/672 57/298/673 163/315/674 213/335/675
f 120/450/676 119/454/677 214/455/678 164/451/679
f 73/282/680 54/281/681 199/296/682 165/297/683
f 100/442/684 121/446/685 166/447/686 200/443/687
f 220/416/688 221/409/689 47/415/690 207/418/691
f 405/425/692 219/434/693 208/437/694
f 49/412/695 229/404/696 230/411/697 216/417/698
f 231/469/699 383/466/700 215/467/701
f 249/392/702 250/382/703 63/371/704 171/381/705
f 383/466/706 248/473/707 172/476/708
f 80/359/709 51/343/710 191/358/711 173/370/712
f 108/300/713 242/317/714 243/337/715 177/319/716
f 244/462/717 404/458/718 178/465/719
f 125/405/720 49/412/721 216/417/722 181/413/723
f 383/466/724 143/463/725 182/464/726 215/467/727
f 138/333/728 46/350/729 203/364/730 185/351/731
f 426/419/732 149/432/733 186/433/734 204/430/735
s 1
f 352/118/736 353/119/737 414/120/738 413/121/739
s 2
f 413/121/740 412/139/741 351/140/742 352/118/743
s off
f 319/154/744 408/155/745 407/156/746 278/157/747
f 279/160/748 318/161/749 319/154/750 278/157/751
f 317/165/752 318/161/753 279/160/754 280/166/755
f 281/169/756 316/170/757 317/165/758 280/166/759
f 315/173/760 316/170/761 281/169/762 282/174/763
f 283/177/764 314/178/765 315/173/766 282/174/767
f 313/181/768 314/178/769 283/177/770 284/182/771
f 385/185/772 386/186/773 313/181/774 284/182/775
s 3
f 417/190/776 356/191/777 357/192/778 418/193/779
s off
f 219/434/780 405/425/781 170/431/782
f 169/591/783 220/593/784 219/594/785 170/592/786
f 122/401/787 221/409/788 220/416/789 169/410/790
f 222/400/791 221/409/792 122/401/793 131/389/794
f 86/377/795 223/388/796 222/400/797 131/389/798
f 224/376/799 223/388/800 86/377/801 83/365/802
f 84/362/803 225/375/804 224/376/805 83/365/806
f 226/374/807 225/375/808 84/362/809 127/363/810
f 126/373/811 227/384/812 226/374/813 127/363/814
f 228/394/815 227/384/816 126/373/817 124/383/818
f 123/393/819 229/404/820 228/394/821 124/383/822
f 230/411/823 229/404/824 123/393/825 217/403/826
f 231/609/827 230/610/828 217/605/829 218/606/830
f 383/466/831 231/469/832 218/471/833
f 232/428/834 426/419/835 204/430/836
f 204/587/837 203/588/838 233/584/839 232/583/840
f 46/350/841 234/332/842 233/349/843 203/364/844
f 235/312/845 234/332/846 46/350/847 138/333/848
f 138/333/849 70/313/850 236/294/851 235/312/852
f 237/280/853 236/294/854 70/313/855 101/295/856
f 101/295/857 54/281/858 238/270/859 237/280/860
f 239/271/861 238/270/862 54/281/863 73/282/864
f 73/282/865 57/298/866 240/283/867 239/271/868
f 241/299/869 240/283/870 57/298/871 107/316/872
f 107/316/873 48/336/874 242/317/875 241/299/876
f 243/337/877 242/317/878 48/336/879 212/352/880
f 244/620/881 243/619/882 212/621/883 211/622/884
f 404/458/885 244/462/886 211/459/887
f 246/402/888 245/390/889 122/401/890 169/410/891
f 247/590/892 246/589/893 169/591/894 170/592/895
f 405/425/896 247/429/897 170/431/898
f 248/473/899 383/466/900 218/471/901
f 217/605/902 249/602/903 248/601/904 218/606/905
f 123/393/906 250/382/907 249/392/908 217/403/909
f 251/372/910 250/382/911 123/393/912 124/383/913
f 126/373/914 252/361/915 251/372/916 124/383/917
f 253/346/918 252/361/919 126/373/920 127/363/921
f 84/362/922 254/347/923 253/346/924 127/363/925
f 255/353/926 254/347/927 84/362/928 83/365/929
f 86/377/930 256/366/931 255/353/932 83/365/933
f 257/378/934 256/366/935 86/377/936 131/389/937
f 122/401/938 245/390/939 257/378/940 131/389/941
f 259/330/942 258/310/943 55/328/944 155/348/945
f 260/575/946 259/576/947 155/572/948 156/571/949
f 426/419/950 260/422/951 156/420/952
s 4
f 357/192/953 358/211/954 419/212/955 418/193/956
s off
f 261/468/957 404/458/958 176/470/959
f 176/612/960 175/611/961 262/615/962 261/616/963
f 58/309/964 263/301/965 262/318/966 175/329/967
f 264/284/968 263/301/969 58/309/970 109/291/971
f 109/291/972 56/277/973 265/273/974 264/284/975
f 266/262/976 265/273/977 56/277/978 75/266/979
f 75/266/980 60/267/981 267/263/982 266/262/983
f 268/268/984 267/263/985 60/267/986 141/276/987
f 141/276/988 69/290/989 269/278/990 268/268/991
f 270/292/992 269/278/993 69/290/994 91/308/995
f 91/308/996 55/328/997 258/310/998 270/292/999
f 151/477/1000 150/478/1001 272/479/1002 271/480/1003
f 403/493/1004 152/491/1005 273/492/1006 402/494/1007
f 103/485/1008 425/489/1009 424/490/1010 274/486/1011
f 104/481/1012 103/485/1013 274/486/1014 275/482/1015
f 150/478/1016 104/481/1017 275/482/1018 272/479/1019
f 152/491/1020 153/487/1021 276/488/1022 273/492/1023
f 154/483/1024 151/477/1025 271/480/1026 277/484/1027
f 153/487/1028 154/483/1029 277/484/1030 276/488/1031
f 406/495/1032 146/496/1033 278/497/1034 407/498/1035
f 146/496/1036 147/499/1037 279/500/1038 278/497/1039
f 147/499/1040 148/501/1041 280/502/1042 279/500/1043
f 148/501/1044 145/503/1045 281/504/1046 280/502/1047
f 145/503/1048 144/505/1049 282/506/1050 281/504/1051
f 144/505/1052 98/507/1053 283/508/1054 282/506/1055
f 98/507/1056 97/509/1057 284/510/1058 283/508/1059
f 97/509/1060 384/511/1061 385/512/1062 284/510/1063
f 292/230/1064 400/231/1065 401/227/1066 320/226/1067
f 320/226/1068 321/233/1069 293/236/1070 292/230/1071
f 294/240/1072 293/236/1073 321/233/1074 322/237/1075
f 322/237/1076 323/242/1077 295/244/1078 294/240/1079
f 296/248/1080 295/244/1081 323/242/1082 324/245/1083
f 324/245/1084 325/250/1085 297/252/1086 296/248/1087
f 298/256/1088 297/252/1089 325/250/1090 326/253/1091
f 326/253/1092 423/258/1093 422/260/1094 298/256/1095
f 299/162/1096 410/163/1097 409/159/1098 291/158/1099
f 291/158/1100 290/164/1101 300/167/1102 299/162/1103
f 301/171/1104 300/167/1105 290/164/1106 289/168/1107
f 289/168/1108 288/172/1109 302/175/1110 301/171/1111
f 303/179/1112 302/175/1113 288/172/1114 287/176/1115
f 287/176/1116 286/180/1117 304/183/1118 303/179/1119
f 305/187/1120 304/183/1121 286/180/1122 285/184/1123
f 285/184/1124 387/188/1125 388/189/1126 305/187/1127
f 313/181/1128 386/186/1129 387/188/1130 285/184/1131
f 285/184/1132 286/180/1133 314/178/1134 313/181/1135
f 315/173/1136 314/178/1137 286/180/1138 287/176/1139
f 287/176/1140 288/172/1141 316/170/1142 315/173/1143
f 317/165/1144 316/170/1145 288/172/1146 289/168/1147
f 289/168/1148 290/164/1149 318/161/1150 317/165/1151
f 319/154/1152 318/161/1153 290/164/1154 291/158/1155
f 291/158/1156 409/159/1157 408/155/1158 319/154/1159
f 320/226/1160 401/227/1161 402/228/1162 273/229/1163
f 276/232/1164 321/233/1165 320/226/1166 273/229/1167
f 322/237/1168 321/233/1169 276/232/1170 277/238/1171
f 271/241/1172 323/242/1173 322/237/1174 277/238/1175
f 324/245/1176 323/242/1177 271/241/1178 272/246/1179
f 275/249/1180 325/250/1181 324/245/1182 272/246/1183
f 326/253/1184 325/250/1185 275/249/1186 274/254/1187
f 424/257/1188 423/258/1189 326/253/1190 274/254/1191
s 2
f 381/146/1192 382/152/1193 390/153/1194 391/147/1195
s 1
f 392/124/1196 380/138/1197 381/146/1198 391/147/1199
s off
f 392/124/1200 393/125/1201 379/126/1202 339/127/1203 370/128/1204 330/129/1205 362/130/1206 346/131/1207 354/132/1208 415/133/1209 414/120/1210 353/119/1211 345/123/1212 361/134/1213 329/135/1214 369/136/1215 340/137/1216 380/138/1217
f 416/513/1218 415/514/1219 354/515/1220 346/516/1221 362/517/1222 330/518/1223 370/519/1224 339/520/1225 379/521/1226 393/522/1227 394/523/1228 378/524/1229 338/525/1230 371/526/1231 331/527/1232 363/528/1233 347/529/1234 355/530/1235
s 3
f 376/213/1236 377/198/1237 395/197/1238 396/214/1239
s 4
f 396/214/1240 397/220/1241 375/221/1242 376/213/1243
s off
f 311/531/1244 310/532/1245 309/533/1246 308/534/1247 307/535/1248 306/536/1249 421/537/1250 420/538/1251 419/539/1252 358/540/1253 350/541/1254 366/542/1255 334/543/1256 374/544/1257 335/545/1258 375/546/1259 397/547/1260 398/548/1261 399/549/1262 312/550/1263
s 4
f 373/216/1264 374/223/1265 334/224/1266 333/217/1267
s 3
f 333/217/1268 332/201/1269 372/200/1270 373/216/1271
s 1
f 368/144/1272 369/136/1273 329/135/1274 328/143/1275
s 2
f 328/143/1276 327/149/1277 367/150/1278 368/144/1279
f 344/122/1280 343/142/1281 359/148/1282 360/141/1283
s 1
f 360/141/1284 361/134/1285 345/123/1286 344/122/1287
s 3
f 349/210/1288 348/203/1289 364/202/1290 365/218/1291
s 4
f 365/218/1292 366/225/1293 350/219/1294 349/210/1295
s 2
f 352/118/743 351/140/742 343/142/1281 344/122/1280
s 1
f 344/122/1287 345/123/1286 353/119/737 352/118/736
s off
f 338/194/1296 378/195/1297 394/196/1298 395/197/1299 377/198/1300 337/199/1301 372/200/1302 332/201/1303 364/202/1304 348/203/1305 356/191/1306 417/190/1307 416/204/1308 355/205/1309 347/206/1310 363/207/1311 331/208/1312 371/209/1313
s 3
f 357/192/778 356/191/777 348/203/1289 349/210/1288
s 4
f 349/210/1295 350/219/1294 358/211/954 357/192/953
s 2
f 360/141/1283 359/148/1282 327/149/1277 328/143/1276
s 1
f 328/143/1275 329/135/1274 361/134/1285 360/141/1284
s 3
f 365/218/1291 364/202/1290 332/201/1269 333/217/1268
s 4
f 333/217/1267 334/224/1266 366/225/1293 365/218/1292
s 2
f 368/144/1279 367/150/1278 342/151/1314 341/145/1315
s 1
f 341/145/1316 340/137/1317 369/136/1273 368/144/1272
s 3
f 373/216/1271 372/200/1270 337/199/1318 336/215/1319
s 4
f 336/215/1320 335/222/1321 374/223/1265 373/216/1264
f 376/213/1243 375/221/1242 335/222/1321 336/215/1320
s 3
f 336/215/1319 337/199/1318 377/198/1237 376/213/1236
s 1
f 381/146/1198 380/138/1197 340/137/1317 341/145/1316
s 2
f 341/145/1315 342/151/1314 382/152/1193 381/146/1192
s off
f 411/551/1322 410/552/1323 299/553/1324 300/554/1325 301/555/1326 302/556/1327 303/557/1328 304/558/1329 305/559/1330 388/560/1331 389/561/1332 390/562/1333 382/563/1334 342/564/1335 367/565/1336 327/566/1337 359/567/1338 343/568/1339 351/569/1340 412/570/1341
