# This file uses centimeters as units for non-parametric coordinates.

mtllib AltarBody.mtl
g default
v -52.294750 -44.379093 27.688202
v 52.294750 -44.379093 27.688202
v -52.294750 -44.379093 -27.688202
v 52.294750 -44.379093 -27.688202
v 0.000000 -44.379093 27.688202
v 0.000000 -44.379093 -27.688202
v 0.000000 -44.379093 0.000000
v 52.294750 -44.379093 0.000000
v -52.294750 -44.379093 0.000000
v -26.147375 -44.379093 27.688202
v -26.147375 -44.379093 -13.844101
v -52.294750 -44.379093 -13.844101
v -26.147375 -44.379093 -27.688202
v 0.000000 -44.379093 -13.844101
v -26.147375 -44.379093 0.000000
v 52.294750 -44.379093 13.844101
v 26.147375 -44.379093 27.688202
v 26.147375 -44.379093 -27.688202
v 26.147375 -44.379093 -13.844101
v 52.294750 -44.379093 -13.844101
v 26.147375 -44.379093 0.000000
v 26.147375 -44.379093 13.844101
v 0.000000 -44.379093 13.844101
v -26.147375 -44.379093 13.844101
v -52.294750 -44.379093 13.844101
v -39.221062 -44.379093 -6.922051
v -39.221062 -44.379093 0.000000
v -52.294750 -44.379093 -6.922051
v -39.221062 -44.379093 -13.844101
v -26.147375 -44.379093 -6.922051
v 13.073688 -44.379093 27.688202
v -13.073688 -44.379093 -27.688202
v 13.073688 -44.379093 -20.766151
v 0.000000 -44.379093 -20.766151
v 13.073688 -44.379093 -27.688202
v 26.147375 -44.379093 -20.766151
v 13.073688 -44.379093 -13.844101
v 39.221062 -44.379093 6.922051
v 39.221062 -44.379093 0.000000
v 52.294750 -44.379093 6.922051
v 39.221062 -44.379093 13.844101
v 26.147375 -44.379093 6.922051
v -13.073688 -44.379093 20.766151
v 0.000000 -44.379093 20.766151
v -13.073688 -44.379093 27.688202
v -26.147375 -44.379093 20.766151
v -13.073688 -44.379093 13.844101
v 52.294750 -29.206467 -6.922051
v 52.294750 -29.206467 0.000000
v 52.294750 -44.379093 -6.922051
v 52.294750 -29.206467 -13.844101
v 52.294750 31.484032 -20.766151
v 52.294750 31.484032 -13.844101
v -52.294750 -29.206467 6.922051
v -52.294750 -29.206467 0.000000
v -52.294750 -44.379093 6.922051
v -52.294750 -29.206467 13.844101
v -52.294750 31.484032 20.766151
v -52.294750 31.484032 13.844101
v -39.221062 -44.379093 27.688202
v -39.221062 -44.379093 -20.766151
v -52.294750 -44.379093 -20.766151
v -39.221062 -44.379093 -27.688202
v -26.147375 -44.379093 -20.766151
v -13.073688 -44.379093 -20.766151
v -13.073688 -44.379093 -13.844101
v -13.073688 -44.379093 -6.922051
v 0.000000 -44.379093 -6.922051
v -13.073688 -44.379093 0.000000
v 52.294750 -29.206467 20.766151
v 52.294750 -44.379093 20.766151
v 52.294750 -29.206467 13.844101
v 52.294750 -29.206467 6.922051
v -52.294750 -29.206467 -20.766151
v -52.294750 -29.206467 -13.844101
v -52.294750 -29.206467 -6.922051
v 39.221062 -44.379093 27.688202
v 39.221062 -44.379093 -27.688202
v 39.221062 -44.379093 -20.766151
v 52.294750 -44.379093 -20.766151
v 39.221062 -44.379093 -13.844101
v 39.221062 -44.379093 -6.922051
v 26.147375 -44.379093 -6.922051
v 13.073688 -44.379093 -6.922051
v 13.073688 -44.379093 0.000000
v 39.221062 -44.379093 20.766151
v 26.147375 -44.379093 20.766151
v 13.073688 -44.379093 20.766151
v 13.073688 -44.379093 13.844101
v 13.073688 -44.379093 6.922051
v 0.000000 -44.379093 6.922051
v -39.221062 -44.379093 20.766151
v -52.294750 -44.379093 20.766151
v -39.221062 -44.379093 13.844101
v -39.221062 -44.379093 6.922051
v -26.147375 -44.379093 6.922051
v -13.073688 -44.379093 6.922051
v 52.294750 -29.206467 -20.766151
v 52.294750 31.484032 -6.922051
v 52.294750 31.484032 0.000000
v 52.294750 31.484032 20.766151
v 52.294750 31.484032 13.844101
v 52.294750 31.484032 6.922051
v -52.294750 -29.206467 20.766151
v -52.294750 31.484032 6.922051
v -52.294750 31.484032 0.000000
v -52.294750 31.484032 -20.766151
v -52.294750 31.484032 -13.844101
v -52.294750 31.484032 -6.922051
v -26.147375 -44.379093 35.787575
v -26.147375 -29.206467 35.787575
v -9.249364 -44.379093 35.787575
v -9.249364 -29.206467 35.787575
v 59.943398 -44.379093 17.893787
v 59.943398 -29.206467 17.893787
v 59.943398 -44.379093 8.946893
v 59.943398 -29.206467 8.946893
v -59.943398 -44.379093 -17.893787
v -59.943398 -29.206467 -17.893787
v -59.943398 -44.379093 -8.946893
v -59.943398 -29.206467 -8.946893
v 26.147375 -44.379093 35.787575
v 26.147375 -29.206467 35.787575
v 43.045383 -44.379093 35.787575
v 43.045383 -29.206467 35.787575
v 26.147375 -44.379093 -35.787575
v 26.147375 -29.206467 -35.787575
v 9.249364 -44.379093 -35.787575
v 9.249364 -29.206467 -35.787575
v -26.147375 -44.379093 -35.787575
v -26.147375 -29.206467 -35.787575
v -43.045383 -44.379093 -35.787575
v -43.045383 -29.206467 -35.787575
v 59.943398 -44.379093 -17.893787
v 59.943398 -29.206467 -17.893787
v 59.943398 -44.379093 -26.840677
v 59.943398 -29.206467 -26.840677
v -59.943398 -44.379093 17.893787
v -59.943398 -29.206467 17.893787
v -59.943398 -44.379093 26.840677
v -59.943398 -29.206467 26.840677
v 0.000000 -44.379093 35.787575
v 0.000000 -29.206467 35.787575
v 9.249364 -44.379093 35.787575
v 9.249364 -29.206467 35.787575
v 0.000000 -44.379093 -35.787575
v 0.000000 -29.206467 -35.787575
v -9.249364 -44.379093 -35.787575
v -9.249364 -29.206467 -35.787575
v 59.943398 -44.379093 0.000000
v 59.943398 -29.206467 0.000000
v 59.943398 -44.379093 -8.946893
v 59.943398 -29.206467 -8.946893
v -59.943398 -44.379093 0.000000
v -59.943398 -29.206467 0.000000
v -59.943398 -44.379093 8.946893
v -59.943398 -29.206467 8.946893
v -59.943398 -44.379093 35.787575
v -59.943398 -29.206467 35.787575
v -43.045383 -44.379093 35.787575
v -43.045383 -29.206467 35.787575
v 59.943398 -44.379093 35.787575
v 59.943398 -29.206467 35.787575
v 59.943398 -44.379093 26.840677
v 59.943398 -29.206467 26.840677
v -59.943398 -29.206467 -35.787575
v -59.943398 -44.379093 -35.787575
v -59.943398 -44.379093 -26.840677
v -59.943398 -29.206467 -26.840677
v 59.943398 -29.206467 -35.787575
v 59.943398 -44.379093 -35.787575
v 43.045383 -44.379093 -35.787575
v 43.045383 -29.206467 -35.787575
v 51.494389 -29.206467 35.787575
v 51.494389 -44.379093 35.787575
v 45.757908 -44.379093 27.688202
v 45.757908 -44.379093 20.766151
v 45.757908 -44.379093 13.844101
v 45.757908 -44.379093 6.922051
v 45.757908 -44.379093 0.000000
v 45.757908 -44.379093 -6.922051
v 45.757908 -44.379093 -13.844101
v 45.757908 -44.379093 -20.766151
v 45.757908 -44.379093 -27.688202
v 51.494389 -44.379093 -35.787575
v 51.494389 -29.206467 -35.787575
v -51.494389 -29.206467 35.787575
v -51.494389 -44.379093 35.787575
v -45.757908 -44.379093 27.688202
v -45.757908 -44.379093 20.766151
v -45.757908 -44.379093 13.844101
v -45.757908 -44.379093 6.922051
v -45.757908 -44.379093 0.000000
v -45.757908 -44.379093 -6.922051
v -45.757908 -44.379093 -13.844101
v -45.757908 -44.379093 -20.766151
v -45.757908 -44.379093 -27.688202
v -51.494389 -44.379093 -35.787575
v -51.494389 -29.206467 -35.787575
v 32.684219 -44.379093 27.688202
v 34.596378 -44.379093 35.787575
v 34.596378 -29.206467 35.787575
v 34.596378 -29.206467 -35.787575
v 34.596378 -44.379093 -35.787575
v 32.684219 -44.379093 -27.688202
v 32.684219 -44.379093 -20.766151
v 32.684219 -44.379093 -13.844101
v 32.684219 -44.379093 -6.922051
v 32.684219 -44.379093 0.000000
v 32.684219 -44.379093 6.922051
v 32.684219 -44.379093 13.844101
v 32.684219 -44.379093 20.766151
v -32.684219 -44.379093 27.688202
v -34.596378 -44.379093 35.787575
v -34.596378 -29.206467 35.787575
v -34.596378 -29.206467 -35.787575
v -34.596378 -44.379093 -35.787575
v -32.684219 -44.379093 -27.688202
v -32.684219 -44.379093 -20.766151
v -32.684219 -44.379093 -13.844101
v -32.684219 -44.379093 -6.922051
v -32.684219 -44.379093 0.000000
v -32.684219 -44.379093 6.922051
v -32.684219 -44.379093 13.844101
v -32.684219 -44.379093 20.766151
v -60.977722 33.351242 0.000000
v -60.977722 33.351242 6.922051
v -60.977722 33.351242 -20.766151
v -60.977722 33.351242 20.766151
v -60.977722 33.351242 13.844101
v -60.977722 33.351242 -13.844101
v -60.977722 33.351242 -6.922051
v 60.977722 33.351242 20.766151
v 60.977722 33.351242 13.844101
v 60.977722 33.351242 6.922051
v 60.977722 33.351242 0.000000
v 60.977722 33.351242 -6.922051
v 60.977722 33.351242 -13.844101
v 60.977722 33.351242 -20.766151
v 61.152107 43.557377 -20.766151
v 61.152107 43.557377 -13.844101
v 61.152107 43.557377 -6.922051
v 61.152107 43.557377 0.000000
v 61.152107 43.557377 6.922051
v 61.152107 43.557377 13.844101
v 61.152107 43.557377 20.766151
v -61.152107 43.557377 -20.766151
v -61.152107 43.557377 -13.844101
v -61.152107 43.557377 -6.922051
v -61.152107 43.557377 0.000000
v -61.152107 43.557377 6.922051
v -61.152107 43.557377 13.844101
v -61.152107 43.557377 20.766151
v 58.279373 46.487465 20.766151
v 58.279373 46.487465 13.844101
v 58.279373 46.487465 6.922051
v 58.279373 46.487465 0.000000
v 58.279373 46.487465 -6.922051
v 58.279373 46.487465 -13.844101
v 58.279373 46.487465 -20.766151
v -58.279373 46.487465 20.766151
v -58.279373 46.487465 13.844101
v -58.279373 46.487465 6.922051
v -58.279373 46.487465 0.000000
v -58.279373 46.487465 -6.922051
v -58.279373 46.487465 -13.844101
v -58.279373 46.487465 -20.766151
v 63.851326 38.901165 -20.766151
v 63.851326 38.901165 -13.844101
v 63.851326 38.901165 -6.922051
v 63.851326 38.901165 0.000000
v 63.851326 38.901165 6.922051
v 63.851326 38.901165 13.844101
v 63.851326 38.901165 20.766151
v -63.851326 38.901165 -20.766151
v -63.851326 38.901165 -13.844101
v -63.851326 38.901165 -6.922051
v -63.851326 38.901165 0.000000
v -63.851326 38.901165 6.922051
v -63.851326 38.901165 13.844101
v -63.851326 38.901165 20.766151
v 32.684219 46.656658 0.000000
v 28.118690 43.469952 0.000000
v 26.147375 39.070335 0.000000
v 26.147375 31.484032 0.000000
v -26.147375 31.484032 0.000000
v -26.147375 39.070335 0.000000
v -28.118690 43.469952 0.000000
v -32.684219 46.656658 0.000000
v -32.684219 46.656658 -13.844101
v -28.118690 43.469952 -13.844101
v -26.147375 39.070335 -13.844101
v -26.147375 31.484032 -13.844101
v 26.147375 31.484032 -13.844101
v 26.147375 39.070335 -13.844101
v 28.118690 43.469952 -13.844101
v 32.684219 46.656658 -13.844101
v 32.684219 46.656658 13.844101
v 28.118690 43.469952 13.844101
v 26.147375 39.070335 13.844101
v 26.147375 31.484032 13.844101
v -26.147375 31.484032 13.844101
v -26.147375 39.070335 13.844101
v -28.118690 43.469952 13.844101
v -32.684219 46.656658 13.844101
v 32.684219 46.656658 20.766151
v 28.118690 43.469952 20.766151
v 26.147375 39.070335 20.766151
v 26.147375 31.484032 20.766151
v -26.147375 31.484032 20.766151
v -26.147375 39.070335 20.766151
v -28.118690 43.469952 20.766151
v -32.684219 46.656658 20.766151
v 32.684219 46.656658 6.922050
v 28.118690 43.469952 6.922050
v 26.147375 39.070335 6.922050
v 26.147375 31.484032 6.922050
v -26.147375 31.484032 6.922050
v -26.147375 39.070335 6.922050
v -28.118690 43.469952 6.922050
v -32.684219 46.656658 6.922050
v 32.684219 46.656658 -6.922050
v 28.118690 43.469952 -6.922050
v 26.147375 39.070335 -6.922050
v 26.147375 31.484032 -6.922050
v -26.147375 31.484032 -6.922050
v -26.147375 39.070335 -6.922050
v -28.118690 43.469952 -6.922050
v -32.684219 46.656658 -6.922050
v -32.684219 46.656658 -20.766151
v -28.118690 43.469952 -20.766151
v -26.147375 39.070335 -20.766151
v -26.147375 31.484032 -20.766151
v 26.147375 31.484032 -20.766151
v 26.147375 39.070335 -20.766151
v 28.118690 43.469952 -20.766151
v 32.684219 46.656658 -20.766151
v 52.294750 -29.206467 -27.688202
v 52.294750 31.484032 -27.688202
v 60.977722 33.351242 -27.688202
v 63.851326 38.901165 -27.688202
v 61.152107 43.557377 -27.688202
v 58.279373 46.487465 -27.688202
v 45.757908 46.656658 -27.688202
v 32.684219 46.656658 -27.688202
v 28.118690 43.469952 -27.688202
v 26.147375 39.070335 -27.688202
v 26.147375 31.484032 -27.688202
v -26.147375 31.484032 -27.688202
v -26.147375 39.070335 -27.688202
v -28.118690 43.469952 -27.688202
v -32.684219 46.656658 -27.688202
v -45.757908 46.656658 -27.688202
v -58.279373 46.487465 -27.688202
v -61.152107 43.557377 -27.688202
v -63.851326 38.901165 -27.688202
v -60.977722 33.351242 -27.688202
v -52.294750 31.484032 -27.688202
v -52.294750 -29.206467 -27.688202
v 52.294750 -29.206467 27.688202
v 52.294750 31.484032 27.688202
v 60.977722 33.351242 27.688202
v 63.851326 38.901165 27.688202
v 61.152107 43.557377 27.688202
v 58.279373 46.487465 27.688202
v 45.757908 46.656658 27.688202
v 32.684219 46.656658 27.688202
v 28.118690 43.469952 27.688202
v 26.147375 39.070335 27.688202
v 26.147375 31.484032 27.688202
v -26.147375 31.484032 27.688202
v -26.147375 39.070335 27.688202
v -28.118690 43.469952 27.688202
v -32.684219 46.656658 27.688202
v -45.757908 46.656658 27.688202
v -58.279373 46.487465 27.688202
v -61.152107 43.557377 27.688202
v -63.851326 38.901165 27.688202
v -60.977722 33.351242 27.688202
v -52.294750 31.484032 27.688202
v -52.294750 -29.206467 27.688202
vt 0.233809 0.774112
vt 0.204583 0.774112
vt 0.175357 0.774112
vt 0.146131 0.774112
vt 0.116904 0.774112
vt 0.087678 0.774112
vt 0.058452 0.774112
vt 0.029226 0.774112
vt 0.000000 0.774112
vt 0.000000 0.517866
vt 0.029226 0.517866
vt 0.058452 0.517866
vt 0.087678 0.517866
vt 0.116904 0.517866
vt 0.146131 0.517866
vt 0.175357 0.517866
vt 0.204583 0.517866
vt 0.233809 0.517866
vt 0.545393 0.270629
vt 0.481331 0.270629
vt 0.481331 0.232854
vt 0.545393 0.232854
vt 0.481331 0.308404
vt 0.545393 0.308404
vt 0.481331 0.195078
vt 0.545393 0.195078
vt 0.545393 0.346180
vt 0.481331 0.346180
vt 0.481331 0.157303
vt 0.545393 0.157303
vt 0.481331 0.119527
vt 0.545393 0.119527
vt 0.481331 0.081752
vt 0.545393 0.081752
vt 0.481331 0.043977
vt 0.545393 0.043977
vt 0.342325 0.517866
vt 0.371551 0.517866
vt 0.400777 0.517866
vt 0.430004 0.517866
vt 0.459230 0.517866
vt 0.488456 0.517866
vt 0.517682 0.517866
vt 0.546908 0.517866
vt 0.546908 0.774112
vt 0.517682 0.774112
vt 0.488456 0.774112
vt 0.459230 0.774112
vt 0.430004 0.774112
vt 0.400777 0.774112
vt 0.371551 0.774112
vt 0.342325 0.774112
vt 0.313099 0.774112
vt 0.313099 0.517866
vt 0.858492 0.744518
vt 0.794431 0.744518
vt 0.794431 0.706743
vt 0.858492 0.706743
vt 0.794431 0.782294
vt 0.858492 0.782294
vt 0.794431 0.668967
vt 0.858492 0.668967
vt 0.858492 0.820069
vt 0.794431 0.820069
vt 0.794431 0.631192
vt 0.858492 0.631192
vt 0.794431 0.593417
vt 0.858492 0.593417
vt 0.794431 0.555641
vt 0.858492 0.555641
vt 0.794431 0.517866
vt 0.858492 0.517866
vt 0.760724 0.277307
vt 0.740505 0.277307
vt 0.740505 0.245496
vt 0.760724 0.245496
vt 0.760724 0.309117
vt 0.740505 0.309117
vt 0.740505 0.499983
vt 0.705641 0.499983
vt 0.705641 0.468172
vt 0.705641 0.436361
vt 0.705641 0.404550
vt 0.705641 0.372739
vt 0.705641 0.340928
vt 0.705641 0.309117
vt 0.705641 0.277307
vt 0.705641 0.245496
vt 0.740505 0.340928
vt 0.740505 0.372739
vt 0.740505 0.404550
vt 0.740505 0.436361
vt 0.740505 0.468172
vt 0.775368 0.245496
vt 0.775368 0.277307
vt 0.760724 0.340928
vt 0.775368 0.309117
vt 0.760724 0.372739
vt 0.760724 0.404550
vt 0.760724 0.436361
vt 0.760724 0.468172
vt 0.760724 0.499983
vt 0.775368 0.340928
vt 0.775368 0.372739
vt 0.775368 0.404550
vt 0.775368 0.436361
vt 0.775368 0.468172
vt 0.775368 0.499983
vt 0.964944 0.741774
vt 0.964944 0.773761
vt 0.939297 0.773761
vt 0.939297 0.741774
vt 0.986460 0.741774
vt 0.986460 0.773761
vt 0.939297 0.709787
vt 0.964944 0.709787
vt 1.000000 0.741774
vt 1.000000 0.773761
vt 0.986460 0.709787
vt 0.964944 0.677800
vt 0.939297 0.677800
vt 1.000000 0.709787
vt 0.986460 0.677800
vt 0.939297 0.645813
vt 0.964944 0.645813
vt 1.000000 0.677800
vt 0.986460 0.645813
vt 0.964944 0.613827
vt 0.939297 0.613827
vt 1.000000 0.645813
vt 0.986460 0.613827
vt 0.939297 0.581840
vt 0.964944 0.581840
vt 1.000000 0.613827
vt 0.986460 0.581840
vt 0.964944 0.549853
vt 0.939297 0.549853
vt 1.000000 0.581840
vt 0.986460 0.549853
vt 0.939297 0.517866
vt 0.964944 0.517866
vt 1.000000 0.549853
vt 0.986460 0.517866
vt 1.000000 0.517866
vt 0.661062 0.499983
vt 0.661062 0.468172
vt 0.681281 0.468172
vt 0.681281 0.499983
vt 0.626198 0.309117
vt 0.626198 0.277307
vt 0.626198 0.245496
vt 0.661062 0.245496
vt 0.661062 0.277307
vt 0.661062 0.309117
vt 0.661062 0.340928
vt 0.661062 0.372739
vt 0.661062 0.404550
vt 0.661062 0.436361
vt 0.626198 0.499983
vt 0.626198 0.468172
vt 0.626198 0.436361
vt 0.626198 0.404550
vt 0.626198 0.372739
vt 0.626198 0.340928
vt 0.681281 0.436361
vt 0.695925 0.468172
vt 0.695925 0.499983
vt 0.681281 0.277307
vt 0.681281 0.245496
vt 0.681281 0.309117
vt 0.681281 0.340928
vt 0.681281 0.372739
vt 0.681281 0.404550
vt 0.695925 0.436361
vt 0.695925 0.245496
vt 0.695925 0.277307
vt 0.695925 0.309117
vt 0.695925 0.340928
vt 0.695925 0.372739
vt 0.695925 0.404550
vt 0.894847 0.741774
vt 0.894847 0.773761
vt 0.869201 0.773761
vt 0.869201 0.741774
vt 0.916363 0.741774
vt 0.916363 0.773761
vt 0.869201 0.709787
vt 0.894847 0.709787
vt 0.929903 0.741774
vt 0.929903 0.773761
vt 0.916363 0.709787
vt 0.894847 0.677800
vt 0.869201 0.677800
vt 0.929903 0.709787
vt 0.916363 0.677800
vt 0.869201 0.645813
vt 0.894847 0.645813
vt 0.929903 0.677800
vt 0.916363 0.645813
vt 0.894847 0.613827
vt 0.869201 0.613827
vt 0.929903 0.645813
vt 0.916363 0.613827
vt 0.869201 0.581840
vt 0.894847 0.581840
vt 0.929903 0.613827
vt 0.916363 0.581840
vt 0.894847 0.549853
vt 0.869201 0.549853
vt 0.929903 0.581840
vt 0.916363 0.549853
vt 0.869201 0.517866
vt 0.894847 0.517866
vt 0.929903 0.549853
vt 0.916363 0.517866
vt 0.929903 0.517866
vt 0.121875 0.391090
vt 0.151101 0.391090
vt 0.151101 0.418690
vt 0.121875 0.418690
vt 0.121875 0.363490
vt 0.151101 0.363490
vt 0.180328 0.391090
vt 0.180328 0.418690
vt 0.151101 0.446289
vt 0.121875 0.446289
vt 0.092649 0.418690
vt 0.092649 0.391090
vt 0.151101 0.308291
vt 0.121875 0.308291
vt 0.180328 0.363490
vt 0.092649 0.363490
vt 0.209554 0.391090
vt 0.209554 0.418690
vt 0.180328 0.446289
vt 0.151101 0.473889
vt 0.121875 0.473889
vt 0.092649 0.446289
vt 0.063423 0.391090
vt 0.063423 0.418690
vt 0.180328 0.308291
vt 0.092649 0.308291
vt 0.121875 0.253092
vt 0.151101 0.253092
vt 0.209554 0.363490
vt 0.063423 0.363490
vt 0.238780 0.391090
vt 0.238780 0.418690
vt 0.209554 0.446289
vt 0.180328 0.473889
vt 0.151101 0.506183
vt 0.113326 0.506183
vt 0.092649 0.473889
vt 0.063423 0.446289
vt 0.034197 0.418690
vt 0.034197 0.391090
vt 0.180328 0.253092
vt 0.209554 0.308291
vt 0.063423 0.308291
vt 0.092649 0.253092
vt 0.151101 0.197892
vt 0.121875 0.197892
vt 0.238780 0.363490
vt 0.034197 0.363490
vt 0.268006 0.391090
vt 0.268006 0.418690
vt 0.238780 0.446289
vt 0.209554 0.473889
vt 0.188877 0.506183
vt 0.075551 0.506183
vt 0.063423 0.473889
vt 0.034197 0.446289
vt 0.000000 0.399163
vt 0.000000 0.434837
vt 0.180328 0.197892
vt 0.209554 0.253092
vt 0.238780 0.308291
vt 0.034197 0.308291
vt 0.063423 0.253092
vt 0.092649 0.197892
vt 0.121875 0.142693
vt 0.151101 0.142693
vt 0.268006 0.363490
vt 0.000000 0.363490
vt 0.302203 0.399163
vt 0.302203 0.434837
vt 0.268006 0.446289
vt 0.238780 0.473889
vt 0.226652 0.506183
vt 0.037775 0.506183
vt 0.034197 0.473889
vt 0.000000 0.470510
vt 0.180328 0.142693
vt 0.209554 0.197892
vt 0.238780 0.253092
vt 0.268006 0.308291
vt 0.000000 0.292144
vt 0.034197 0.253092
vt 0.063423 0.197892
vt 0.092649 0.142693
vt 0.121875 0.115093
vt 0.151101 0.115093
vt 0.302203 0.363490
vt 0.302203 0.470510
vt 0.268006 0.473889
vt 0.264427 0.506183
vt 0.000000 0.506183
vt 0.180328 0.115093
vt 0.209554 0.142693
vt 0.238780 0.197892
vt 0.268006 0.253092
vt 0.302203 0.292144
vt 0.000000 0.253092
vt 0.034197 0.197892
vt 0.063423 0.142693
vt 0.092649 0.115093
vt 0.151101 0.087493
vt 0.121875 0.087493
vt 0.302203 0.506183
vt 0.180328 0.087493
vt 0.209554 0.115093
vt 0.238780 0.142693
vt 0.268006 0.197892
vt 0.302203 0.253092
vt 0.000000 0.214039
vt 0.034197 0.142693
vt 0.063423 0.115093
vt 0.092649 0.087493
vt 0.121875 0.059894
vt 0.151101 0.059894
vt 0.180328 0.059894
vt 0.209554 0.087493
vt 0.238780 0.115093
vt 0.268006 0.142693
vt 0.302203 0.214039
vt 0.000000 0.142693
vt 0.034197 0.115093
vt 0.063423 0.087493
vt 0.092649 0.059894
vt 0.121875 0.032294
vt 0.151101 0.032294
vt 0.180328 0.032294
vt 0.209554 0.059894
vt 0.238780 0.087493
vt 0.268006 0.115093
vt 0.302203 0.142693
vt 0.000000 0.107020
vt 0.034197 0.087493
vt 0.063423 0.059894
vt 0.092649 0.032294
vt 0.113326 0.000000
vt 0.151101 0.000000
vt 0.188877 0.000000
vt 0.209554 0.032294
vt 0.238780 0.059894
vt 0.268006 0.087493
vt 0.302203 0.107020
vt 0.000000 0.071346
vt 0.034197 0.059894
vt 0.063423 0.032294
vt 0.075551 0.000000
vt 0.226652 0.000000
vt 0.238780 0.032294
vt 0.268006 0.059894
vt 0.302203 0.071346
vt 0.000000 0.035673
vt 0.034197 0.032294
vt 0.037775 0.000000
vt 0.264427 0.000000
vt 0.268006 0.032294
vt 0.302203 0.035673
vt 0.000000 0.000000
vt 0.302203 0.000000
vt 0.347296 0.473889
vt 0.313099 0.363490
vt 0.313099 0.292144
vt 0.313099 0.399163
vt 0.313099 0.253092
vt 0.313099 0.214039
vt 0.347296 0.032294
vt 0.313099 0.434837
vt 0.313099 0.142693
vt 0.313099 0.470510
vt 0.313099 0.107020
vt 0.313099 0.506183
vt 0.313099 0.071346
vt 0.376522 0.473889
vt 0.350875 0.506183
vt 0.313099 0.035673
vt 0.405748 0.473889
vt 0.388650 0.506183
vt 0.313099 0.000000
vt 0.434974 0.473889
vt 0.426425 0.506183
vt 0.376522 0.032294
vt 0.350875 0.000000
vt 0.464201 0.473889
vt 0.464201 0.506183
vt 0.405748 0.032294
vt 0.388650 0.000000
vt 0.493427 0.473889
vt 0.501976 0.506183
vt 0.434974 0.032294
vt 0.426425 0.000000
vt 0.522653 0.473889
vt 0.539751 0.506183
vt 0.464201 0.032294
vt 0.464201 0.000000
vt 0.551879 0.473889
vt 0.577527 0.506183
vt 0.493427 0.032294
vt 0.501976 0.000000
vt 0.581105 0.473889
vt 0.615302 0.506183
vt 0.522653 0.032294
vt 0.539751 0.000000
vt 0.615302 0.470510
vt 0.551879 0.032294
vt 0.577527 0.000000
vt 0.615302 0.434837
vt 0.581105 0.032294
vt 0.615302 0.000000
vt 0.615302 0.399163
vt 0.615302 0.035673
vt 0.615302 0.363490
vt 0.615302 0.071346
vt 0.615302 0.292144
vt 0.615302 0.107020
vt 0.615302 0.253092
vt 0.615302 0.214039
vt 0.615302 0.142693
vt 0.981048 0.366382
vt 0.981048 0.395940
vt 0.943971 0.395940
vt 0.943971 0.366382
vt 0.981048 0.425499
vt 0.943971 0.425499
vt 0.981048 0.336824
vt 0.943971 0.336824
vt 0.981048 0.455057
vt 0.943971 0.455057
vt 0.981048 0.307266
vt 0.943971 0.307266
vt 0.981048 0.484615
vt 0.943971 0.484615
vt 0.981048 0.277707
vt 0.943971 0.277707
vt 0.981048 0.248149
vt 0.943971 0.248149
vt 0.943971 0.236466
vt 0.943971 0.206908
vt 0.981048 0.206908
vt 0.981048 0.236466
vt 0.943971 0.177350
vt 0.981048 0.177350
vt 0.943971 0.147791
vt 0.981048 0.147791
vt 0.943971 0.118233
vt 0.981048 0.118233
vt 0.943971 0.088675
vt 0.981048 0.088675
vt 0.943971 0.059117
vt 0.981048 0.059117
vt 0.943971 0.029558
vt 0.981048 0.029558
vt 0.943971 0.000000
vt 0.981048 0.000000
vt 0.560775 0.517866
vt 0.781572 0.517866
vt 0.781572 0.547092
vt 0.781572 0.576318
vt 0.781572 0.605544
vt 0.781572 0.634770
vt 0.781572 0.663996
vt 0.781572 0.693223
vt 0.781572 0.722449
vt 0.781572 0.751675
vt 0.560775 0.751675
vt 0.560775 0.722449
vt 0.560775 0.693223
vt 0.560775 0.663996
vt 0.560775 0.634770
vt 0.560775 0.605544
vt 0.560775 0.576318
vt 0.560775 0.547092
vt 0.626198 0.175360
vt 0.626198 0.146133
vt 0.626198 0.116906
vt 0.626198 0.087680
vt 0.626198 0.058453
vt 0.626198 0.029227
vt 0.626198 0.000000
vt 0.679067 0.000000
vt 0.734267 0.000000
vt 0.734267 0.029227
vt 0.734267 0.058453
vt 0.734267 0.087680
vt 0.734267 0.116906
vt 0.734267 0.146133
vt 0.734267 0.175360
vt 0.734267 0.204586
vt 0.734267 0.233813
vt 0.679067 0.233813
vt 0.626198 0.233813
vt 0.626198 0.204586
vt 0.415031 0.043977
vt 0.467899 0.043977
vt 0.467899 0.073203
vt 0.467899 0.102430
vt 0.467899 0.131657
vt 0.467899 0.160883
vt 0.467899 0.190110
vt 0.467899 0.219336
vt 0.467899 0.248563
vt 0.467899 0.277790
vt 0.415031 0.277790
vt 0.359830 0.277790
vt 0.359830 0.248563
vt 0.359830 0.219336
vt 0.359830 0.190110
vt 0.359830 0.160883
vt 0.359830 0.131657
vt 0.359830 0.102430
vt 0.359830 0.073203
vt 0.359830 0.043977
vt 0.858492 0.363490
vt 0.794431 0.363490
vt 0.794431 0.292144
vt 0.858492 0.292144
vt 0.858492 0.399164
vt 0.794431 0.399164
vt 0.794431 0.253092
vt 0.858492 0.253092
vt 0.794431 0.434837
vt 0.858492 0.434837
vt 0.794431 0.214039
vt 0.858492 0.214039
vt 0.858492 0.470510
vt 0.794431 0.470510
vt 0.794431 0.142693
vt 0.858492 0.142693
vt 0.858492 0.506183
vt 0.794431 0.506183
vt 0.794431 0.107020
vt 0.858492 0.107020
vt 0.794431 0.071346
vt 0.858492 0.071346
vt 0.794431 0.035673
vt 0.858492 0.035673
vt 0.794431 0.000000
vt 0.858492 0.000000
vt 0.869201 0.142693
vt 0.933262 0.142693
vt 0.933262 0.214039
vt 0.869201 0.214039
vt 0.869201 0.107020
vt 0.933262 0.107020
vt 0.933262 0.253092
vt 0.869201 0.253092
vt 0.933262 0.071346
vt 0.869201 0.071346
vt 0.933262 0.292144
vt 0.869201 0.292144
vt 0.869201 0.035673
vt 0.933262 0.035673
vt 0.933262 0.363490
vt 0.869201 0.363490
vt 0.869201 0.000000
vt 0.933262 0.000000
vt 0.933262 0.399164
vt 0.869201 0.399164
vt 0.933262 0.434837
vt 0.869201 0.434837
vt 0.933262 0.470510
vt 0.869201 0.470510
vt 0.933262 0.506183
vt 0.869201 0.506183
vn 0.000000 -1.000000 0.000000
vn 0.000000 -1.000000 0.000000
vn 0.000000 -1.000000 0.000000
vn 0.000000 -1.000000 0.000000
vn 0.000000 -1.000000 0.000000
vn 0.000000 -1.000000 0.000000
vn 0.000000 -1.000000 0.000000
vn 0.000000 -1.000000 0.000000
vn 0.000000 -1.000000 0.000000
vn 0.000000 -1.000000 0.000000
vn 0.000000 -1.000000 0.000000
vn 0.000000 -1.000000 0.000000
vn 0.000000 -1.000000 0.000000
vn 0.000000 -1.000000 0.000000
vn 0.000000 -1.000000 0.000000
vn 0.000000 -1.000000 0.000000
vn 0.000000 0.000000 1.000000
vn 0.000000 0.000000 1.000000
vn 0.000000 0.000000 1.000000
vn 0.000000 0.000000 1.000000
vn 0.000000 -1.000000 0.000000
vn 0.000000 -1.000000 0.000000
vn 0.000000 -1.000000 0.000000
vn 0.000000 -1.000000 0.000000
vn 0.000000 -1.000000 0.000000
vn 0.000000 -1.000000 0.000000
vn 0.000000 -1.000000 0.000000
vn 0.000000 -1.000000 0.000000
vn 0.000000 -1.000000 0.000000
vn 0.000000 -1.000000 0.000000
vn 0.000000 -1.000000 0.000000
vn 0.000000 -1.000000 0.000000
vn 1.000000 0.000000 0.000000
vn 1.000000 0.000000 0.000000
vn 1.000000 0.000000 0.000000
vn 1.000000 0.000000 0.000000
vn 1.000000 0.000000 0.000000
vn 1.000000 0.000000 0.000000
vn 1.000000 0.000000 0.000000
vn 1.000000 0.000000 0.000000
vn 1.000000 0.000000 0.000000
vn 1.000000 0.000000 0.000000
vn 1.000000 0.000000 0.000000
vn 1.000000 0.000000 0.000000
vn 1.000000 0.000000 0.000000
vn 1.000000 0.000000 0.000000
vn 1.000000 0.000000 0.000000
vn 1.000000 0.000000 0.000000
vn 1.000000 0.000000 0.000000
vn 1.000000 0.000000 0.000000
vn 1.000000 0.000000 0.000000
vn 1.000000 0.000000 0.000000
vn 1.000000 0.000000 0.000000
vn 1.000000 0.000000 0.000000
vn -1.000000 -0.000000 0.000000
vn -1.000000 -0.000000 0.000000
vn -1.000000 -0.000000 0.000000
vn -1.000000 -0.000000 0.000000
vn -1.000000 -0.000000 0.000000
vn -1.000000 -0.000000 0.000000
vn -1.000000 -0.000000 0.000000
vn -1.000000 -0.000000 0.000000
vn -1.000000 -0.000000 0.000000
vn -1.000000 -0.000000 0.000000
vn -1.000000 -0.000000 0.000000
vn -1.000000 -0.000000 0.000000
vn -1.000000 -0.000000 0.000000
vn -1.000000 -0.000000 0.000000
vn -1.000000 -0.000000 0.000000
vn -1.000000 -0.000000 0.000000
vn -1.000000 -0.000000 0.000000
vn -1.000000 -0.000000 0.000000
vn -1.000000 0.000000 0.000000
vn -1.000000 0.000000 0.000000
vn -1.000000 0.000000 0.000000
vn -1.000000 0.000000 0.000000
vn 0.000000 0.000000 1.000000
vn 0.000000 0.000000 1.000000
vn 0.000000 0.000000 1.000000
vn 0.000000 0.000000 1.000000
vn 0.000000 0.000000 -1.000000
vn 0.000000 0.000000 -1.000000
vn 0.000000 0.000000 -1.000000
vn 0.000000 0.000000 -1.000000
vn 0.000000 0.000000 -1.000000
vn 0.000000 0.000000 -1.000000
vn 0.000000 0.000000 -1.000000
vn 0.000000 0.000000 -1.000000
vn 0.000000 -1.000000 0.000000
vn 0.000000 -1.000000 0.000000
vn 0.000000 -1.000000 0.000000
vn 0.000000 -1.000000 0.000000
vn 0.000000 -1.000000 0.000000
vn 0.000000 -1.000000 0.000000
vn 0.000000 -1.000000 0.000000
vn 0.000000 -1.000000 0.000000
vn 0.000000 -1.000000 0.000000
vn 0.000000 -1.000000 0.000000
vn 0.000000 -1.000000 0.000000
vn 0.000000 -1.000000 0.000000
vn 0.000000 -1.000000 0.000000
vn 0.000000 -1.000000 0.000000
vn 0.000000 -1.000000 0.000000
vn 0.000000 -1.000000 0.000000
vn 0.000000 -1.000000 0.000000
vn 0.000000 -1.000000 0.000000
vn 0.000000 -1.000000 0.000000
vn 0.000000 -1.000000 0.000000
vn 0.000000 -1.000000 0.000000
vn 0.000000 -1.000000 0.000000
vn 0.000000 -1.000000 0.000000
vn 0.000000 -1.000000 0.000000
vn 0.000000 -1.000000 0.000000
vn 0.000000 -1.000000 0.000000
vn 0.000000 -1.000000 0.000000
vn 0.000000 -1.000000 0.000000
vn 0.000000 -1.000000 0.000000
vn 0.000000 -1.000000 0.000000
vn 0.000000 -1.000000 0.000000
vn 0.000000 -1.000000 0.000000
vn 0.000000 -1.000000 0.000000
vn 0.000000 -1.000000 0.000000
vn 0.000000 -1.000000 0.000000
vn 0.000000 -1.000000 0.000000
vn 1.000000 0.000000 0.000000
vn 1.000000 0.000000 0.000000
vn 1.000000 0.000000 0.000000
vn 1.000000 0.000000 0.000000
vn -1.000000 0.000000 0.000000
vn -1.000000 0.000000 0.000000
vn -1.000000 0.000000 0.000000
vn -1.000000 0.000000 0.000000
vn -0.714061 0.700084 0.000000
vn -0.714061 0.700084 0.000000
vn -0.714061 0.700084 0.000000
vn -0.714061 0.700084 0.000000
vn -0.714061 0.700084 0.000000
vn -0.714061 0.700084 0.000000
vn -0.714061 0.700084 0.000000
vn -0.714061 0.700084 0.000000
vn 0.000000 -1.000000 0.000000
vn 0.000000 -1.000000 0.000000
vn 0.000000 -1.000000 0.000000
vn 0.000000 -1.000000 0.000000
vn 0.000000 -1.000000 0.000000
vn 0.000000 -1.000000 0.000000
vn 0.000000 -1.000000 0.000000
vn 0.000000 -1.000000 0.000000
vn 0.000000 -1.000000 0.000000
vn 0.000000 -1.000000 0.000000
vn 0.000000 -1.000000 0.000000
vn 0.000000 -1.000000 0.000000
vn 0.000000 0.000000 1.000000
vn 0.000000 0.000000 1.000000
vn 0.000000 0.000000 1.000000
vn 0.000000 0.000000 1.000000
vn 0.000000 0.000000 1.000000
vn 0.000000 0.000000 1.000000
vn 0.000000 0.000000 1.000000
vn 0.000000 0.000000 1.000000
vn 0.000000 0.000000 -1.000000
vn 0.000000 0.000000 -1.000000
vn 0.000000 0.000000 -1.000000
vn 0.000000 0.000000 -1.000000
vn 0.000000 0.000000 -1.000000
vn 0.000000 0.000000 -1.000000
vn 0.000000 0.000000 -1.000000
vn 0.000000 0.000000 -1.000000
vn 0.000000 -1.000000 0.000000
vn 0.000000 -1.000000 0.000000
vn 0.000000 -1.000000 0.000000
vn 0.000000 -1.000000 0.000000
vn 0.000000 -1.000000 0.000000
vn 0.000000 -1.000000 0.000000
vn 0.000000 -1.000000 0.000000
vn 0.000000 -1.000000 0.000000
vn 0.000000 -1.000000 0.000000
vn 0.000000 -1.000000 0.000000
vn 0.000000 -1.000000 0.000000
vn 0.000000 -1.000000 0.000000
vn 0.000000 -1.000000 0.000000
vn 0.000000 -1.000000 0.000000
vn 0.000000 -1.000000 0.000000
vn 0.000000 -1.000000 0.000000
vn 0.000000 -1.000000 0.000000
vn 0.000000 -1.000000 0.000000
vn 0.000000 -1.000000 0.000000
vn 0.000000 -1.000000 0.000000
vn 0.000000 -1.000000 0.000000
vn 0.000000 -1.000000 0.000000
vn 0.000000 -1.000000 0.000000
vn 0.000000 -1.000000 0.000000
vn 0.000000 -1.000000 0.000000
vn 0.000000 -1.000000 0.000000
vn 0.000000 -1.000000 0.000000
vn 0.000000 -1.000000 0.000000
vn 0.000000 -1.000000 0.000000
vn 0.000000 -1.000000 0.000000
vn 0.000000 -1.000000 0.000000
vn 0.000000 -1.000000 0.000000
vn 0.000000 -1.000000 0.000000
vn 0.000000 -1.000000 0.000000
vn 0.000000 -1.000000 0.000000
vn 0.000000 -1.000000 0.000000
vn 1.000000 0.000000 0.000000
vn 1.000000 0.000000 0.000000
vn 1.000000 0.000000 0.000000
vn 1.000000 0.000000 0.000000
vn 1.000000 0.000000 0.000000
vn 1.000000 0.000000 0.000000
vn 1.000000 0.000000 0.000000
vn 1.000000 0.000000 0.000000
vn -1.000000 0.000000 0.000000
vn -1.000000 0.000000 0.000000
vn -1.000000 0.000000 0.000000
vn -1.000000 0.000000 0.000000
vn -1.000000 0.000000 0.000000
vn -1.000000 0.000000 0.000000
vn -1.000000 0.000000 0.000000
vn -1.000000 0.000000 0.000000
vn -0.714061 0.700084 0.000000
vn -0.714061 0.700084 0.000000
vn -0.714061 0.700084 0.000000
vn -0.714061 0.700084 0.000000
vn -0.714061 0.700084 0.000000
vn -0.714061 0.700084 0.000000
vn -0.714061 0.700084 0.000000
vn -0.714061 0.700084 0.000000
vn 0.000000 0.000000 1.000000
vn 0.000000 0.000000 1.000000
vn 0.000000 0.000000 1.000000
vn 0.000000 0.000000 1.000000
vn 0.000000 0.000000 1.000000
vn 0.000000 0.000000 1.000000
vn 0.000000 0.000000 1.000000
vn 0.000000 0.000000 1.000000
vn 0.000000 0.000000 1.000000
vn 0.000000 0.000000 1.000000
vn 0.000000 0.000000 1.000000
vn 0.000000 0.000000 1.000000
vn 0.000000 -1.000000 0.000000
vn 0.000000 -1.000000 0.000000
vn 0.000000 -1.000000 0.000000
vn 0.000000 -1.000000 0.000000
vn 0.000000 -1.000000 0.000000
vn 0.000000 -1.000000 0.000000
vn 0.000000 -1.000000 0.000000
vn 0.000000 -1.000000 0.000000
vn 0.000000 -1.000000 0.000000
vn 0.000000 -1.000000 0.000000
vn 0.000000 -1.000000 0.000000
vn 0.000000 -1.000000 0.000000
vn 0.000000 -1.000000 0.000000
vn 0.000000 -1.000000 0.000000
vn 0.000000 -1.000000 0.000000
vn 0.000000 -1.000000 0.000000
vn 0.000000 -1.000000 0.000000
vn 0.000000 -1.000000 0.000000
vn 0.000000 -1.000000 0.000000
vn 0.000000 -1.000000 0.000000
vn 0.000000 -1.000000 0.000000
vn 0.000000 -1.000000 0.000000
vn 0.000000 -1.000000 0.000000
vn 0.000000 -1.000000 0.000000
vn 0.000000 -1.000000 0.000000
vn 0.000000 -1.000000 0.000000
vn 0.000000 -1.000000 0.000000
vn 0.000000 -1.000000 0.000000
vn 0.000000 -1.000000 0.000000
vn 0.000000 -1.000000 0.000000
vn 0.000000 -1.000000 0.000000
vn 0.000000 -1.000000 0.000000
vn 0.000000 -1.000000 0.000000
vn 0.000000 -1.000000 0.000000
vn 0.000000 -1.000000 0.000000
vn 0.000000 -1.000000 0.000000
vn 1.000000 0.000000 0.000000
vn 1.000000 0.000000 0.000000
vn 1.000000 0.000000 0.000000
vn 1.000000 0.000000 0.000000
vn 1.000000 0.000000 0.000000
vn 1.000000 0.000000 0.000000
vn 1.000000 0.000000 0.000000
vn 1.000000 0.000000 0.000000
vn 1.000000 0.000000 0.000000
vn 1.000000 0.000000 0.000000
vn 1.000000 0.000000 0.000000
vn 1.000000 0.000000 0.000000
vn -1.000000 0.000000 0.000000
vn -1.000000 0.000000 0.000000
vn -1.000000 0.000000 0.000000
vn -1.000000 0.000000 0.000000
vn -1.000000 0.000000 0.000000
vn -1.000000 0.000000 0.000000
vn -1.000000 0.000000 0.000000
vn -1.000000 0.000000 0.000000
vn -1.000000 0.000000 0.000000
vn -1.000000 0.000000 0.000000
vn -1.000000 0.000000 0.000000
vn -1.000000 0.000000 0.000000
vn 0.000000 0.000000 1.000000
vn 0.000000 0.000000 1.000000
vn 0.000000 0.000000 1.000000
vn 0.000000 0.000000 1.000000
vn 0.000000 0.000000 -1.000000
vn 0.000000 0.000000 -1.000000
vn 0.000000 0.000000 -1.000000
vn 0.000000 0.000000 -1.000000
vn 0.000000 0.000000 -1.000000
vn 0.000000 0.000000 -1.000000
vn 0.000000 0.000000 -1.000000
vn 0.000000 0.000000 -1.000000
vn 0.000000 0.000000 -1.000000
vn 0.000000 0.000000 -1.000000
vn 0.000000 0.000000 -1.000000
vn 0.000000 0.000000 -1.000000
vn 0.000000 0.000000 -1.000000
vn 0.000000 0.000000 -1.000000
vn 0.000000 0.000000 -1.000000
vn 0.000000 0.000000 -1.000000
vn 0.000000 -1.000000 0.000000
vn 0.000000 -1.000000 0.000000
vn 0.000000 -1.000000 0.000000
vn 0.000000 -1.000000 0.000000
vn 0.000000 -1.000000 0.000000
vn 0.000000 -1.000000 0.000000
vn 0.000000 -1.000000 0.000000
vn 0.000000 -1.000000 0.000000
vn 0.000000 -1.000000 0.000000
vn 0.000000 -1.000000 0.000000
vn 0.000000 -1.000000 0.000000
vn 0.000000 -1.000000 0.000000
vn 0.000000 -1.000000 0.000000
vn 0.000000 -1.000000 0.000000
vn 0.000000 -1.000000 0.000000
vn 0.000000 -1.000000 0.000000
vn 0.000000 -1.000000 0.000000
vn 0.000000 -1.000000 0.000000
vn 0.000000 -1.000000 0.000000
vn 0.000000 -1.000000 0.000000
vn 0.000000 -1.000000 0.000000
vn 0.000000 -1.000000 0.000000
vn 0.000000 -1.000000 0.000000
vn 0.000000 -1.000000 0.000000
vn 0.000000 -1.000000 0.000000
vn 0.000000 -1.000000 0.000000
vn 0.000000 -1.000000 0.000000
vn 0.000000 -1.000000 0.000000
vn 0.000000 -1.000000 0.000000
vn 0.000000 -1.000000 0.000000
vn 0.000000 -1.000000 0.000000
vn 0.000000 -1.000000 0.000000
vn 0.000000 -1.000000 0.000000
vn 0.000000 -1.000000 0.000000
vn 0.000000 -1.000000 0.000000
vn 0.000000 -1.000000 0.000000
vn 0.000000 -1.000000 0.000000
vn 0.000000 -1.000000 0.000000
vn 0.000000 -1.000000 0.000000
vn 0.000000 -1.000000 0.000000
vn 0.000000 -1.000000 0.000000
vn 0.000000 -1.000000 0.000000
vn 0.000000 -1.000000 0.000000
vn 0.000000 -1.000000 0.000000
vn 0.000000 -1.000000 0.000000
vn 0.000000 -1.000000 0.000000
vn 0.000000 -1.000000 0.000000
vn 0.000000 -1.000000 0.000000
vn 0.000000 -1.000000 0.000000
vn 0.000000 -1.000000 0.000000
vn 0.000000 -1.000000 0.000000
vn 0.000000 -1.000000 0.000000
vn 0.000000 -1.000000 0.000000
vn 0.000000 -1.000000 0.000000
vn 0.000000 -1.000000 0.000000
vn 0.000000 -1.000000 0.000000
vn 0.000000 -1.000000 0.000000
vn 0.000000 -1.000000 0.000000
vn 0.000000 -1.000000 0.000000
vn 0.000000 -1.000000 0.000000
vn 0.000000 -1.000000 0.000000
vn 0.000000 -1.000000 0.000000
vn 0.000000 -1.000000 0.000000
vn 0.000000 -1.000000 0.000000
vn 0.000000 -1.000000 0.000000
vn 0.000000 -1.000000 0.000000
vn 0.000000 -1.000000 0.000000
vn 0.000000 -1.000000 0.000000
vn 0.000000 -1.000000 0.000000
vn 0.000000 -1.000000 0.000000
vn 0.000000 -1.000000 0.000000
vn 0.000000 -1.000000 0.000000
vn 0.000000 -1.000000 0.000000
vn 0.000000 -1.000000 0.000000
vn 0.000000 -1.000000 0.000000
vn 0.000000 -1.000000 0.000000
vn 0.000000 -1.000000 0.000000
vn 0.000000 -1.000000 0.000000
vn 0.000000 -1.000000 0.000000
vn 0.000000 -1.000000 0.000000
vn 0.000000 -1.000000 0.000000
vn 0.000000 -1.000000 0.000000
vn 0.000000 -1.000000 0.000000
vn 0.000000 -1.000000 0.000000
vn 0.000000 -1.000000 0.000000
vn 0.000000 -1.000000 0.000000
vn 0.000000 -1.000000 0.000000
vn 0.000000 -1.000000 0.000000
vn 0.000000 -1.000000 0.000000
vn 0.000000 -1.000000 0.000000
vn 0.000000 -1.000000 0.000000
vn 0.000000 -1.000000 0.000000
vn 0.000000 -1.000000 0.000000
vn 0.000000 -1.000000 0.000000
vn 0.000000 -1.000000 0.000000
vn 0.000000 -1.000000 0.000000
vn 0.000000 -1.000000 0.000000
vn 0.000000 -1.000000 0.000000
vn 0.000000 -1.000000 0.000000
vn 0.000000 -1.000000 0.000000
vn 0.000000 -1.000000 0.000000
vn 0.000000 -1.000000 0.000000
vn 0.000000 -1.000000 0.000000
vn 0.000000 -1.000000 0.000000
vn 0.000000 -1.000000 0.000000
vn 0.000000 -1.000000 0.000000
vn 0.000000 -1.000000 0.000000
vn 0.000000 -1.000000 0.000000
vn 1.000000 0.000000 0.000000
vn 1.000000 0.000000 0.000000
vn 1.000000 0.000000 0.000000
vn 1.000000 0.000000 0.000000
vn -1.000000 0.000000 0.000000
vn -1.000000 0.000000 0.000000
vn -1.000000 0.000000 0.000000
vn -1.000000 0.000000 0.000000
vn -0.714061 0.700083 0.000000
vn -0.714061 0.700083 0.000000
vn -0.714061 0.700083 0.000000
vn -0.714061 0.700083 0.000000
vn -0.714061 0.700084 0.000000
vn -0.714061 0.700084 0.000000
vn -0.714061 0.700084 0.000000
vn -0.714061 0.700084 0.000000
vn -0.714061 0.700084 0.000000
vn -0.714061 0.700084 0.000000
vn -0.714061 0.700084 0.000000
vn -0.714061 0.700084 0.000000
vn -0.714061 0.700083 0.000000
vn -0.714061 0.700083 0.000000
vn -0.714061 0.700083 0.000000
vn -0.714061 0.700083 0.000000
vn 0.000000 -1.000000 0.000001
vn 0.000000 -1.000000 0.000001
vn 0.000000 -1.000000 0.000001
vn 0.000000 -1.000000 0.000001
vn 0.000000 1.000000 0.000000
vn 0.000000 1.000000 0.000000
vn 0.000000 1.000000 0.000000
vn 0.000000 -1.000000 0.000000
vn 0.000000 -1.000000 0.000000
vn 0.000000 -1.000000 0.000000
vn 0.000000 -1.000000 0.000000
vn 0.000000 1.000000 0.000000
vn 0.000000 1.000000 0.000000
vn 0.000000 1.000000 0.000000
vn 0.000000 1.000000 0.000000
vn 0.000000 -1.000000 0.000000
vn 0.000000 -1.000000 0.000000
vn 0.000000 -1.000000 0.000000
vn 0.000000 -1.000000 0.000000
vn 0.000000 1.000000 0.000000
vn 0.000000 1.000000 0.000000
vn 0.000000 1.000000 0.000000
vn 0.000000 1.000000 0.000000
vn 0.000000 -1.000000 0.000000
vn 0.000000 -1.000000 0.000000
vn 0.000000 -1.000000 0.000000
vn 0.000000 -1.000000 0.000000
vn 0.000000 1.000000 0.000001
vn 0.000000 1.000000 0.000001
vn 0.000000 1.000000 0.000001
vn 0.000000 -1.000000 -0.000001
vn 0.000000 -1.000000 -0.000001
vn 0.000000 -1.000000 -0.000001
vn 0.000000 -1.000000 -0.000001
vn 0.000000 1.000000 0.000000
vn 0.000000 1.000000 0.000000
vn 0.000000 1.000000 0.000000
vn 0.000000 -1.000000 0.000001
vn 0.000000 -1.000000 0.000001
vn 0.000000 -1.000000 0.000001
vn 0.000000 -1.000000 0.000001
vn 0.000000 1.000000 0.000001
vn 0.000000 1.000000 0.000001
vn 0.000000 1.000000 0.000001
vn 0.000000 -1.000000 0.000000
vn 0.000000 -1.000000 0.000000
vn 0.000000 -1.000000 0.000000
vn 0.000000 -1.000000 0.000000
vn 0.000000 1.000000 0.000000
vn 0.000000 1.000000 0.000000
vn 0.000000 1.000000 0.000000
vn 0.000000 1.000000 0.000000
vn 0.000000 -1.000000 0.000000
vn 0.000000 -1.000000 0.000000
vn 0.000000 -1.000000 0.000000
vn 0.000000 -1.000000 0.000000
vn 0.000000 1.000000 0.000000
vn 0.000000 1.000000 0.000000
vn 0.000000 1.000000 0.000000
vn 0.000000 1.000000 0.000000
vn 0.000000 -1.000000 0.000000
vn 0.000000 -1.000000 0.000000
vn 0.000000 -1.000000 0.000000
vn 0.000000 -1.000000 0.000000
vn 0.000000 1.000000 0.000000
vn 0.000000 1.000000 0.000000
vn 0.000000 1.000000 0.000000
vn 0.000000 1.000000 0.000000
vn 0.000000 1.000000 0.000000
vn 0.000000 -1.000000 0.000000
vn 0.000000 -1.000000 0.000000
vn 0.000000 -1.000000 0.000000
vn 0.000000 -1.000000 0.000000
vn 0.000000 1.000000 -0.000001
vn 0.000000 1.000000 -0.000001
vn 0.000000 1.000000 -0.000001
vn 0.000000 -1.000000 0.000000
vn 0.000000 -1.000000 0.000000
vn 0.000000 -1.000000 0.000000
vn 0.000000 -1.000000 0.000000
vn 0.000000 1.000000 0.000000
vn 0.000000 1.000000 0.000000
vn 0.000000 1.000000 0.000000
vn 0.000000 1.000000 0.000000
vn 0.000000 1.000000 0.000000
vn 0.000000 -1.000000 -0.000000
vn 0.000000 -1.000000 -0.000000
vn 0.000000 -1.000000 -0.000000
vn 0.000000 -1.000000 -0.000000
vn 0.000000 1.000000 0.000001
vn 0.000000 1.000000 0.000001
vn 0.000000 1.000000 0.000001
vn 0.000000 -1.000000 0.000000
vn 0.000000 -1.000000 0.000000
vn 0.000000 -1.000000 0.000000
vn 0.000000 -1.000000 0.000000
vn 0.000000 1.000000 0.000000
vn 0.000000 1.000000 0.000000
vn 0.000000 1.000000 0.000000
vn 0.000000 1.000000 0.000000
vn 0.000000 -1.000000 0.000000
vn 0.000000 -1.000000 0.000000
vn 0.000000 -1.000000 0.000000
vn 0.000000 -1.000000 0.000000
vn 0.000000 1.000000 0.000000
vn 0.000000 1.000000 0.000000
vn 0.000000 1.000000 0.000000
vn 0.000000 1.000000 0.000000
vn 0.000000 -1.000000 0.000000
vn 0.000000 -1.000000 0.000000
vn 0.000000 -1.000000 0.000000
vn 0.000000 -1.000000 0.000000
vn 0.000000 1.000000 0.000000
vn 0.000000 1.000000 0.000000
vn 0.000000 1.000000 0.000000
vn 0.000000 1.000000 0.000000
vn 0.000000 -1.000000 0.000000
vn 0.000000 -1.000000 0.000000
vn 0.000000 -1.000000 0.000000
vn 0.000000 -1.000000 0.000000
vn 0.000000 1.000000 0.000000
vn 0.000000 1.000000 0.000000
vn 0.000000 1.000000 0.000000
vn 0.000000 1.000000 0.000000
vn 0.000000 -1.000000 0.000001
vn 0.000000 -1.000000 0.000001
vn 0.000000 -1.000000 0.000001
vn 0.000000 -1.000000 0.000001
vn 0.000000 1.000000 0.000000
vn 0.000000 1.000000 0.000000
vn 0.000000 1.000000 0.000000
vn 0.000000 -1.000000 -0.000001
vn 0.000000 -1.000000 -0.000001
vn 0.000000 -1.000000 -0.000001
vn 0.000000 -1.000000 -0.000001
vn 0.000000 1.000000 -0.000000
vn 0.000000 1.000000 -0.000000
vn 0.000000 1.000000 -0.000000
vn 0.000000 -1.000000 0.000000
vn 0.000000 -1.000000 0.000000
vn 0.000000 -1.000000 0.000000
vn 0.000000 -1.000000 0.000000
vn 0.000000 -1.000000 0.000000
vn 0.000000 -1.000000 0.000000
vn 0.000000 -1.000000 0.000000
vn 0.000000 -1.000000 0.000000
vn 0.000000 1.000000 0.000000
vn 0.000000 1.000000 0.000000
vn 0.000000 1.000000 0.000000
vn 0.000000 1.000000 0.000000
vn 0.000000 -1.000000 0.000000
vn 0.000000 -1.000000 0.000000
vn 0.000000 -1.000000 0.000000
vn 0.000000 -1.000000 0.000000
vn 0.000000 1.000000 0.000000
vn 0.000000 1.000000 0.000000
vn 0.000000 1.000000 0.000000
vn 0.000000 1.000000 0.000000
vn 0.000000 -1.000000 0.000000
vn 0.000000 -1.000000 0.000000
vn 0.000000 -1.000000 0.000000
vn 0.000000 -1.000000 0.000000
vn 0.000000 1.000000 0.000000
vn 0.000000 1.000000 0.000000
vn 0.000000 1.000000 0.000000
vn 0.000000 1.000000 0.000000
vn 0.000000 -1.000000 0.000000
vn 0.000000 -1.000000 0.000000
vn 0.000000 -1.000000 0.000000
vn 0.000000 -1.000000 0.000000
vn 0.000000 1.000000 0.000000
vn 0.000000 1.000000 0.000000
vn 0.000000 1.000000 0.000000
vn 0.000000 1.000000 0.000000
vn 0.000000 -1.000000 0.000000
vn 0.000000 -1.000000 0.000000
vn 0.000000 -1.000000 0.000000
vn 0.000000 -1.000000 0.000000
vn 0.000000 1.000000 0.000000
vn 0.000000 1.000000 0.000000
vn 0.000000 1.000000 0.000000
vn 0.000000 1.000000 0.000000
vn 0.000000 -1.000000 0.000000
vn 0.000000 -1.000000 0.000000
vn 0.000000 -1.000000 0.000000
vn 0.000000 -1.000000 0.000000
vn 0.000000 1.000000 0.000000
vn 0.000000 1.000000 0.000000
vn 0.000000 1.000000 0.000000
vn 0.000000 1.000000 0.000000
vn 0.000000 -1.000000 0.000000
vn 0.000000 -1.000000 0.000000
vn 0.000000 -1.000000 0.000000
vn 0.000000 -1.000000 0.000000
vn 0.000000 1.000000 0.000000
vn 0.000000 1.000000 0.000000
vn 0.000000 1.000000 0.000000
vn 0.000000 -1.000000 0.000001
vn 0.000000 -1.000000 0.000001
vn 0.000000 -1.000000 0.000001
vn 0.000000 -1.000000 0.000001
vn 0.000000 1.000000 0.000000
vn 0.000000 1.000000 0.000000
vn 0.000000 1.000000 0.000000
vn 0.000000 -1.000000 0.000000
vn 0.000000 -1.000000 0.000000
vn 0.000000 -1.000000 0.000000
vn 0.000000 -1.000000 0.000000
vn 0.000000 1.000000 -0.000002
vn 0.000000 1.000000 -0.000002
vn 0.000000 1.000000 -0.000002
vn 0.000000 -1.000000 -0.000000
vn 0.000000 -1.000000 -0.000000
vn 0.000000 -1.000000 -0.000000
vn 0.000000 -1.000000 -0.000000
vn 0.000000 -1.000000 -0.000000
vn 0.000000 -1.000000 -0.000000
vn 0.000000 -1.000000 -0.000000
vn 0.000000 -1.000000 -0.000000
vn 0.000000 1.000000 0.000000
vn 0.000000 1.000000 0.000000
vn 0.000000 1.000000 0.000000
vn 0.000000 -1.000000 0.000000
vn 0.000000 -1.000000 0.000000
vn 0.000000 -1.000000 0.000000
vn 0.000000 -1.000000 0.000000
vn 0.000000 1.000000 0.000000
vn 0.000000 1.000000 0.000000
vn 0.000000 1.000000 0.000000
vn 0.000000 1.000000 0.000000
vn 0.000000 -1.000000 0.000000
vn 0.000000 -1.000000 0.000000
vn 0.000000 -1.000000 0.000000
vn 0.000000 -1.000000 0.000000
vn 0.000000 1.000000 0.000000
vn 0.000000 1.000000 0.000000
vn 0.000000 1.000000 0.000000
vn 0.000000 1.000000 0.000000
vn -0.912581 0.408896 0.000000
vn -0.912581 0.408896 0.000000
vn -0.912581 0.408896 0.000000
vn -0.912581 0.408896 0.000000
vn -0.572357 0.820004 0.000000
vn -0.572357 0.820004 0.000000
vn -0.572357 0.820004 0.000000
vn -0.572357 0.820004 0.000000
vn 0.888025 -0.459796 0.000000
vn 0.888025 -0.459796 0.000000
vn 0.888025 -0.459796 0.000000
vn 0.888025 -0.459796 0.000000
vn 0.888025 -0.459796 0.000000
vn 0.888025 -0.459796 0.000000
vn 0.888025 -0.459796 0.000000
vn 0.888025 -0.459796 0.000000
vn 0.888025 -0.459796 0.000000
vn 0.888025 -0.459796 0.000000
vn 0.888025 -0.459796 0.000000
vn 0.888025 -0.459796 0.000000
vn 0.888025 -0.459795 0.000000
vn 0.888025 -0.459795 0.000000
vn 0.888025 -0.459795 0.000000
vn 0.888025 -0.459795 0.000000
vn 0.888025 -0.459795 0.000000
vn 0.888025 -0.459795 0.000000
vn 0.888025 -0.459795 0.000000
vn 0.888025 -0.459795 0.000000
vn 0.888025 -0.459796 0.000000
vn 0.888025 -0.459796 0.000000
vn 0.888025 -0.459796 0.000000
vn 0.888025 -0.459796 0.000000
vn 0.888025 -0.459796 0.000000
vn 0.888025 -0.459796 0.000000
vn 0.888025 -0.459796 0.000000
vn 0.888025 -0.459796 0.000000
vn 0.888025 -0.459796 0.000000
vn 0.888025 -0.459796 0.000000
vn 0.888025 -0.459796 0.000000
vn 0.888025 -0.459796 0.000000
vn 0.912581 0.408896 0.000000
vn 0.912581 0.408896 0.000000
vn 0.912581 0.408896 0.000000
vn 0.912581 0.408896 0.000000
vn 0.000000 1.000000 -0.000000
vn 0.000000 1.000000 -0.000000
vn 0.000000 1.000000 -0.000000
vn 0.000000 0.000000 1.000000
vn 0.000000 0.000000 1.000000
vn 0.000000 0.000000 1.000000
vn 0.000000 0.000000 1.000000
vn 0.000000 -1.000000 0.000000
vn 0.000000 -1.000000 0.000000
vn 0.000000 -1.000000 0.000000
vn 0.000000 -1.000000 0.000000
vn 0.000000 -1.000000 0.000000
vn 0.000000 -1.000000 0.000000
vn 0.000000 -1.000000 0.000000
vn 0.000000 -1.000000 0.000000
vn 0.000000 -1.000000 0.000000
vn 0.000000 -1.000000 0.000000
vn 0.000000 -1.000000 0.000000
vn 0.000000 -1.000000 0.000000
vn 0.000000 -1.000000 0.000000
vn 0.000000 -1.000000 0.000000
vn 0.000000 -1.000000 0.000000
vn 0.000000 -1.000000 0.000000
vn 0.000000 -1.000000 0.000000
vn 0.000000 -1.000000 0.000000
vn 0.000000 -1.000000 0.000000
vn 0.000000 -1.000000 0.000000
vn 0.000000 -1.000000 0.000000
vn 0.000000 -1.000000 0.000000
vn 0.000000 -1.000000 0.000000
vn 0.000000 -1.000000 0.000000
vn 0.000000 -1.000000 0.000000
vn 0.000000 -1.000000 0.000000
vn 0.000000 -1.000000 0.000000
vn 0.000000 -1.000000 0.000000
vn 0.000000 -1.000000 0.000000
vn 0.000000 -1.000000 0.000000
vn 0.000000 -1.000000 0.000000
vn 0.000000 -1.000000 0.000000
vn 0.000000 -1.000000 0.000000
vn 0.000000 -1.000000 0.000000
vn 0.000000 -1.000000 0.000000
vn 0.000000 -1.000000 0.000000
vn 0.000000 -1.000000 -0.000001
vn 0.000000 -1.000000 -0.000001
vn 0.000000 -1.000000 -0.000001
vn 0.000000 -1.000000 -0.000001
vn 0.000000 0.000000 -1.000000
vn 0.000000 0.000000 -1.000000
vn 0.000000 0.000000 -1.000000
vn 0.000000 0.000000 -1.000000
vn 0.000000 1.000000 0.000000
vn 0.000000 1.000000 0.000000
vn 0.000000 1.000000 0.000000
vn 0.000000 1.000000 0.000000
vn 0.000000 1.000000 0.000000
vn 0.000000 1.000000 0.000000
vn 0.000000 0.000000 1.000000
vn 0.000000 0.000000 1.000000
vn 0.000000 0.000000 1.000000
vn 0.000000 0.000000 1.000000
vn 0.000000 -1.000000 -0.000001
vn 0.000000 -1.000000 -0.000001
vn 0.000000 -1.000000 -0.000001
vn 0.000000 -1.000000 -0.000001
vn 0.000000 -1.000000 0.000000
vn 0.000000 -1.000000 0.000000
vn 0.000000 -1.000000 0.000000
vn 0.000000 -1.000000 0.000000
vn 0.000000 -1.000000 0.000000
vn 0.000000 -1.000000 0.000000
vn 0.000000 -1.000000 0.000000
vn 0.000000 -1.000000 0.000000
vn 0.000000 -1.000000 0.000000
vn 0.000000 -1.000000 0.000000
vn 0.000000 -1.000000 0.000000
vn 0.000000 -1.000000 0.000000
vn 0.000000 -1.000000 0.000000
vn 0.000000 -1.000000 0.000000
vn 0.000000 -1.000000 0.000000
vn 0.000000 -1.000000 0.000000
vn 0.000000 -1.000000 0.000000
vn 0.000000 -1.000000 0.000000
vn 0.000000 -1.000000 0.000000
vn 0.000000 -1.000000 0.000000
vn 0.000000 -1.000000 0.000000
vn 0.000000 -1.000000 0.000000
vn 0.000000 -1.000000 0.000000
vn 0.000000 -1.000000 0.000000
vn 0.000000 -1.000000 0.000000
vn 0.000000 -1.000000 0.000000
vn 0.000000 -1.000000 0.000000
vn 0.000000 -1.000000 0.000000
vn 0.000000 -1.000000 0.000000
vn 0.000000 -1.000000 0.000000
vn 0.000000 -1.000000 0.000000
vn 0.000000 -1.000000 0.000000
vn 0.000000 -1.000000 0.000000
vn 0.000000 -1.000000 0.000000
vn 0.000000 -1.000000 0.000000
vn 0.000000 -1.000000 0.000000
vn 0.000000 0.000000 -1.000000
vn 0.000000 0.000000 -1.000000
vn 0.000000 0.000000 -1.000000
vn 0.000000 0.000000 -1.000000
vn 0.000000 1.000000 0.000000
vn 0.000000 1.000000 0.000000
vn 0.000000 1.000000 0.000000
vn 0.000000 -1.000000 -0.000001
vn 0.000000 -1.000000 -0.000001
vn 0.000000 -1.000000 -0.000001
vn 0.000000 -1.000000 -0.000001
vn 0.000000 0.000000 1.000000
vn 0.000000 0.000000 1.000000
vn 0.000000 0.000000 1.000000
vn 0.000000 0.000000 1.000000
vn 0.000000 1.000000 -0.000001
vn 0.000000 1.000000 -0.000001
vn 0.000000 1.000000 -0.000001
vn 0.000000 1.000000 0.000000
vn 0.000000 1.000000 0.000000
vn 0.000000 1.000000 0.000000
vn 0.000000 0.000000 -1.000000
vn 0.000000 0.000000 -1.000000
vn 0.000000 0.000000 -1.000000
vn 0.000000 0.000000 -1.000000
vn 0.000000 -1.000000 0.000001
vn 0.000000 -1.000000 0.000001
vn 0.000000 -1.000000 0.000001
vn 0.000000 -1.000000 0.000001
vn 0.000000 -1.000000 0.000000
vn 0.000000 -1.000000 0.000000
vn 0.000000 -1.000000 0.000000
vn 0.000000 -1.000000 0.000000
vn 0.000000 -1.000000 0.000000
vn 0.000000 -1.000000 0.000000
vn 0.000000 -1.000000 0.000000
vn 0.000000 -1.000000 0.000000
vn 0.000000 -1.000000 0.000000
vn 0.000000 -1.000000 0.000000
vn 0.000000 -1.000000 0.000000
vn 0.000000 -1.000000 0.000000
vn 0.000000 -1.000000 0.000000
vn 0.000000 -1.000000 0.000000
vn 0.000000 -1.000000 0.000000
vn 0.000000 -1.000000 0.000000
vn 0.000000 -1.000000 0.000000
vn 0.000000 -1.000000 0.000000
vn 0.000000 -1.000000 0.000000
vn 0.000000 -1.000000 0.000000
vn 0.000000 -1.000000 0.000000
vn 0.000000 -1.000000 0.000000
vn 0.000000 -1.000000 0.000000
vn 0.000000 -1.000000 0.000000
vn 0.000000 -1.000000 0.000000
vn 0.000000 -1.000000 0.000000
vn 0.000000 -1.000000 0.000000
vn 0.000000 -1.000000 0.000000
vn 0.000000 -1.000000 0.000000
vn 0.000000 -1.000000 0.000000
vn 0.000000 -1.000000 0.000000
vn 0.000000 -1.000000 0.000000
vn 0.000000 -1.000000 0.000000
vn 0.000000 -1.000000 0.000000
vn 0.000000 -1.000000 0.000000
vn 0.000000 -1.000000 0.000000
vn 0.000000 0.000000 1.000000
vn 0.000000 0.000000 1.000000
vn 0.000000 0.000000 1.000000
vn 0.000000 0.000000 1.000000
vn 0.000000 1.000000 0.000002
vn 0.000000 1.000000 0.000002
vn 0.000000 1.000000 0.000002
vn 0.572357 0.820004 0.000000
vn 0.572357 0.820004 0.000000
vn 0.572357 0.820004 0.000000
vn 0.572357 0.820004 0.000000
vn 0.000000 1.000000 -0.000001
vn 0.000000 1.000000 -0.000001
vn 0.000000 1.000000 -0.000001
vn 0.000000 0.000000 -1.000000
vn 0.000000 0.000000 -1.000000
vn 0.000000 0.000000 -1.000000
vn 0.000000 0.000000 -1.000000
vn 0.000000 -1.000000 0.000000
vn 0.000000 -1.000000 0.000000
vn 0.000000 -1.000000 0.000000
vn 0.000000 -1.000000 0.000000
vn 0.000000 -1.000000 0.000000
vn 0.000000 -1.000000 0.000000
vn 0.000000 -1.000000 0.000000
vn 0.000000 -1.000000 0.000000
vn 0.000000 -1.000000 0.000000
vn 0.000000 -1.000000 0.000000
vn 0.000000 -1.000000 0.000000
vn 0.000000 -1.000000 0.000000
vn 0.000000 -1.000000 0.000000
vn 0.000000 -1.000000 0.000000
vn 0.000000 -1.000000 0.000000
vn 0.000000 -1.000000 0.000000
vn 0.000000 -1.000000 0.000000
vn 0.000000 -1.000000 0.000000
vn 0.000000 -1.000000 0.000000
vn 0.000000 -1.000000 0.000000
vn 0.000000 -1.000000 0.000000
vn 0.000000 -1.000000 0.000000
vn 0.000000 -1.000000 0.000000
vn 0.000000 -1.000000 0.000000
vn 0.000000 -1.000000 0.000000
vn 0.000000 -1.000000 0.000000
vn 0.000000 -1.000000 0.000000
vn 0.000000 -1.000000 0.000000
vn 0.000000 -1.000000 0.000000
vn 0.000000 -1.000000 0.000000
vn 0.000000 -1.000000 0.000000
vn 0.000000 -1.000000 0.000000
vn 0.000000 -1.000000 0.000000
vn 0.000000 -1.000000 0.000000
vn 0.000000 -1.000000 0.000000
vn 0.000000 -1.000000 0.000000
vn -0.210237 -0.977651 0.000000
vn -0.210237 -0.977651 0.000000
vn -0.210237 -0.977651 0.000000
vn -0.210237 -0.977651 0.000000
vn -0.210237 -0.977651 0.000000
vn -0.210237 -0.977651 0.000000
vn -0.210237 -0.977651 0.000000
vn -0.210237 -0.977651 0.000000
vn -0.210237 -0.977651 0.000000
vn -0.210237 -0.977651 0.000000
vn -0.210237 -0.977651 0.000000
vn -0.210237 -0.977651 0.000000
vn -0.210237 -0.977651 0.000000
vn -0.210237 -0.977651 0.000000
vn -0.210237 -0.977651 0.000000
vn -0.210237 -0.977651 0.000000
vn -0.210237 -0.977651 0.000000
vn -0.210237 -0.977651 0.000000
vn -0.210237 -0.977651 0.000000
vn -0.210237 -0.977651 0.000000
vn -0.210237 -0.977651 0.000000
vn -0.210237 -0.977651 0.000000
vn -0.210237 -0.977651 0.000000
vn -0.210237 -0.977651 0.000000
vn -0.210237 -0.977651 0.000000
vn -0.210237 -0.977651 0.000000
vn -0.210237 -0.977651 0.000000
vn -0.210237 -0.977651 0.000000
vn -0.210237 -0.977651 0.000000
vn -0.210237 -0.977651 0.000000
vn -0.210237 -0.977651 0.000000
vn -0.210237 -0.977651 0.000000
vn 0.210237 -0.977651 0.000000
vn 0.210237 -0.977651 0.000000
vn 0.210237 -0.977651 0.000000
vn 0.210237 -0.977651 0.000000
vn 0.210237 -0.977651 0.000000
vn 0.210237 -0.977651 0.000000
vn 0.210237 -0.977651 0.000000
vn 0.210237 -0.977651 0.000000
vn 0.210237 -0.977651 0.000000
vn 0.210237 -0.977651 0.000000
vn 0.210237 -0.977651 0.000000
vn 0.210237 -0.977651 0.000000
vn 0.210237 -0.977651 0.000000
vn 0.210237 -0.977651 0.000000
vn 0.210237 -0.977651 0.000000
vn 0.210237 -0.977651 0.000000
vn 0.210237 -0.977651 0.000000
vn 0.210237 -0.977651 0.000000
vn 0.210237 -0.977651 0.000000
vn 0.210237 -0.977651 0.000000
vn 0.210237 -0.977651 0.000000
vn 0.210237 -0.977651 0.000000
vn 0.210237 -0.977651 0.000000
vn 0.210237 -0.977651 0.000000
vn 0.210237 -0.977651 0.000000
vn 0.210237 -0.977651 0.000000
vn 0.210237 -0.977651 0.000000
vn 0.210237 -0.977651 0.000000
vn 0.210237 -0.977651 0.000000
vn 0.210237 -0.977651 0.000000
vn 0.210237 -0.977651 0.000000
vn 0.210237 -0.977651 0.000000
vn -0.865143 0.501526 0.000000
vn -0.865143 0.501526 0.000000
vn -0.865143 0.501526 0.000000
vn -0.865143 0.501526 0.000000
vn -0.865143 0.501526 0.000000
vn -0.865143 0.501526 0.000000
vn -0.865143 0.501526 0.000000
vn -0.865143 0.501526 0.000000
vn -0.865143 0.501526 0.000000
vn -0.865143 0.501526 0.000000
vn -0.865143 0.501526 0.000000
vn -0.865143 0.501526 0.000000
vn -0.865143 0.501525 0.000000
vn -0.865143 0.501525 0.000000
vn -0.865143 0.501525 0.000000
vn -0.865143 0.501525 0.000000
vn -0.865143 0.501525 0.000000
vn -0.865143 0.501525 0.000000
vn -0.865143 0.501525 0.000000
vn -0.865143 0.501525 0.000000
vn -0.865143 0.501526 0.000000
vn -0.865143 0.501526 0.000000
vn -0.865143 0.501526 0.000000
vn -0.865143 0.501526 0.000000
vn -0.865143 0.501526 0.000000
vn -0.865143 0.501526 0.000000
vn -0.865143 0.501526 0.000000
vn -0.865143 0.501526 0.000000
vn -0.865143 0.501526 0.000000
vn -0.865143 0.501526 0.000000
vn -0.865143 0.501526 0.000000
vn -0.865143 0.501526 0.000000
vn 0.714061 0.700084 0.000000
vn 0.714061 0.700084 0.000000
vn 0.714061 0.700084 0.000000
vn 0.714061 0.700084 0.000000
vn 0.714061 0.700084 0.000000
vn 0.714061 0.700084 0.000000
vn 0.714061 0.700084 0.000000
vn 0.714061 0.700084 0.000000
vn 0.714061 0.700083 0.000000
vn 0.714061 0.700083 0.000000
vn 0.714061 0.700083 0.000000
vn 0.714061 0.700083 0.000000
vn 0.714061 0.700084 0.000000
vn 0.714061 0.700084 0.000000
vn 0.714061 0.700084 0.000000
vn 0.714061 0.700084 0.000000
vn 0.714061 0.700084 0.000000
vn 0.714061 0.700084 0.000000
vn 0.714061 0.700084 0.000000
vn 0.714061 0.700084 0.000000
vn 0.714061 0.700083 0.000000
vn 0.714061 0.700083 0.000000
vn 0.714061 0.700083 0.000000
vn 0.714061 0.700083 0.000000
vn 0.714061 0.700084 0.000000
vn 0.714061 0.700084 0.000000
vn 0.714061 0.700084 0.000000
vn 0.714061 0.700084 0.000000
vn 0.714061 0.700084 0.000000
vn 0.714061 0.700084 0.000000
vn 0.714061 0.700084 0.000000
vn 0.714061 0.700084 0.000000
vn 0.865143 0.501526 0.000000
vn 0.865143 0.501526 0.000000
vn 0.865143 0.501526 0.000000
vn 0.865143 0.501526 0.000000
vn 0.865143 0.501526 0.000000
vn 0.865143 0.501526 0.000000
vn 0.865143 0.501526 0.000000
vn 0.865143 0.501526 0.000000
vn 0.865143 0.501526 0.000000
vn 0.865143 0.501526 0.000000
vn 0.865143 0.501526 0.000000
vn 0.865143 0.501526 0.000000
vn 0.865143 0.501525 0.000000
vn 0.865143 0.501525 0.000000
vn 0.865143 0.501525 0.000000
vn 0.865143 0.501525 0.000000
vn 0.865143 0.501525 0.000000
vn 0.865143 0.501525 0.000000
vn 0.865143 0.501525 0.000000
vn 0.865143 0.501525 0.000000
vn 0.865143 0.501526 0.000000
vn 0.865143 0.501526 0.000000
vn 0.865143 0.501526 0.000000
vn 0.865143 0.501526 0.000000
vn 0.865143 0.501526 0.000000
vn 0.865143 0.501526 0.000000
vn 0.865143 0.501526 0.000000
vn 0.865143 0.501526 0.000000
vn 0.865143 0.501526 0.000000
vn 0.865143 0.501526 0.000000
vn 0.865143 0.501526 0.000000
vn 0.865143 0.501526 0.000000
vn -0.888025 -0.459796 0.000000
vn -0.888025 -0.459796 0.000000
vn -0.888025 -0.459796 0.000000
vn -0.888025 -0.459796 0.000000
vn -0.888025 -0.459796 0.000000
vn -0.888025 -0.459796 0.000000
vn -0.888025 -0.459796 0.000000
vn -0.888025 -0.459796 0.000000
vn -0.888025 -0.459796 0.000000
vn -0.888025 -0.459796 0.000000
vn -0.888025 -0.459796 0.000000
vn -0.888025 -0.459796 0.000000
vn -0.888025 -0.459795 0.000000
vn -0.888025 -0.459795 0.000000
vn -0.888025 -0.459795 0.000000
vn -0.888025 -0.459795 0.000000
vn -0.888025 -0.459795 0.000000
vn -0.888025 -0.459795 0.000000
vn -0.888025 -0.459795 0.000000
vn -0.888025 -0.459795 0.000000
vn -0.888025 -0.459796 0.000000
vn -0.888025 -0.459796 0.000000
vn -0.888025 -0.459796 0.000000
vn -0.888025 -0.459796 0.000000
vn -0.888025 -0.459796 0.000000
vn -0.888025 -0.459796 0.000000
vn -0.888025 -0.459796 0.000000
vn -0.888025 -0.459796 0.000000
vn -0.888025 -0.459796 0.000000
vn -0.888025 -0.459796 0.000000
vn -0.888025 -0.459796 0.000000
vn -0.888025 -0.459796 0.000000
vn -0.572357 0.820004 0.000000
vn -0.572357 0.820004 0.000000
vn -0.572357 0.820004 0.000000
vn -0.572357 0.820004 0.000000
vn -0.912581 0.408896 0.000000
vn -0.912581 0.408896 0.000000
vn -0.912581 0.408896 0.000000
vn -0.912581 0.408896 0.000000
vn -1.000000 0.000000 0.000000
vn -1.000000 0.000000 0.000000
vn -1.000000 0.000000 0.000000
vn -1.000000 0.000000 0.000000
vn -1.000000 0.000000 0.000000
vn -1.000000 0.000000 0.000000
vn -1.000000 0.000000 0.000000
vn -1.000000 0.000000 0.000000
vn -1.000000 0.000000 0.000000
vn -1.000000 0.000000 0.000000
vn -1.000000 0.000000 0.000000
vn -1.000000 0.000000 0.000000
vn -1.000000 0.000000 0.000000
vn -1.000000 0.000000 0.000000
vn -1.000000 0.000000 0.000000
vn -1.000000 0.000000 0.000000
vn -1.000000 0.000000 0.000000
vn -1.000000 0.000000 0.000000
vn 0.000000 1.000000 0.000000
vn 0.000000 1.000000 0.000000
vn 0.000000 1.000000 0.000000
vn 0.000000 1.000000 0.000000
vn 0.000000 1.000000 0.000000
vn 0.000000 1.000000 0.000000
vn 0.000000 1.000000 0.000000
vn 0.000000 1.000000 0.000000
vn 0.000000 1.000000 0.000000
vn 0.000000 1.000000 0.000000
vn 0.000000 1.000000 0.000000
vn 0.000000 1.000000 0.000000
vn 0.000000 1.000000 0.000000
vn 0.000000 1.000000 0.000000
vn 0.000000 1.000000 0.000000
vn 0.000000 1.000000 0.000000
vn 0.000000 1.000000 0.000000
vn 0.000000 1.000000 0.000000
vn 0.912581 0.408896 0.000000
vn 0.912581 0.408896 0.000000
vn 0.912581 0.408896 0.000000
vn 0.912581 0.408896 0.000000
vn 0.572357 0.820004 0.000000
vn 0.572357 0.820004 0.000000
vn 0.572357 0.820004 0.000000
vn 0.572357 0.820004 0.000000
vn -0.006610 0.999978 0.000000
vn -0.006610 0.999978 0.000000
vn -0.006610 0.999978 0.000000
vn -0.006610 0.999978 0.000000
vn -0.006610 0.999978 0.000000
vn -0.006610 0.999978 0.000000
vn -0.006610 0.999978 0.000000
vn -0.006610 0.999978 0.000000
vn -0.006610 0.999978 0.000000
vn -0.006610 0.999978 0.000000
vn -0.006610 0.999978 0.000000
vn -0.006610 0.999978 0.000000
vn -0.006610 0.999978 0.000000
vn -0.006610 0.999978 0.000000
vn -0.006610 0.999978 0.000000
vn -0.006610 0.999978 0.000000
vn -0.006610 0.999978 0.000000
vn -0.006610 0.999978 0.000000
vn -0.006610 0.999978 0.000000
vn -0.006610 0.999978 0.000000
vn 0.572357 0.820005 0.000000
vn 0.572357 0.820005 0.000000
vn 0.572357 0.820005 0.000000
vn 0.572357 0.820005 0.000000
vn 0.912581 0.408896 0.000000
vn 0.912581 0.408896 0.000000
vn 0.912581 0.408896 0.000000
vn 0.912581 0.408896 0.000000
vn -0.912581 0.408896 0.000000
vn -0.912581 0.408896 0.000000
vn -0.912581 0.408896 0.000000
vn -0.912581 0.408896 0.000000
vn -0.572357 0.820005 0.000000
vn -0.572357 0.820005 0.000000
vn -0.572357 0.820005 0.000000
vn -0.572357 0.820005 0.000000
vn -0.572357 0.820005 0.000000
vn -0.572357 0.820005 0.000000
vn -0.572357 0.820005 0.000000
vn -0.572357 0.820005 0.000000
vn -0.912581 0.408896 0.000000
vn -0.912581 0.408896 0.000000
vn -0.912581 0.408896 0.000000
vn -0.912581 0.408896 0.000000
vn 0.912581 0.408896 0.000000
vn 0.912581 0.408896 0.000000
vn 0.912581 0.408896 0.000000
vn 0.912581 0.408896 0.000000
vn 0.572357 0.820005 0.000000
vn 0.572357 0.820005 0.000000
vn 0.572357 0.820005 0.000000
vn 0.572357 0.820005 0.000000
vn 1.000000 -0.000000 0.000000
vn 1.000000 -0.000000 0.000000
vn 1.000000 -0.000000 0.000000
vn 1.000000 -0.000000 0.000000
vn 1.000000 -0.000000 0.000000
vn 1.000000 -0.000000 0.000000
vn 1.000000 -0.000000 0.000000
vn 1.000000 -0.000000 0.000000
vn 1.000000 -0.000000 0.000000
vn 1.000000 -0.000000 0.000000
vn 1.000000 -0.000000 0.000000
vn 1.000000 -0.000000 0.000000
vn 1.000000 -0.000000 0.000000
vn 1.000000 -0.000000 0.000000
vn 1.000000 -0.000000 0.000000
vn 1.000000 -0.000000 0.000000
vn 1.000000 -0.000000 0.000000
vn 1.000000 -0.000000 0.000000
vn -0.572357 0.820005 0.000000
vn -0.572357 0.820005 0.000000
vn -0.912581 0.408896 0.000000
vn -0.912581 0.408896 0.000000
vn 0.912581 0.408896 0.000000
vn 0.912581 0.408896 0.000000
vn 0.572357 0.820005 0.000000
vn 0.572357 0.820005 0.000000
vn 0.006610 0.999978 0.000000
vn 0.006610 0.999978 0.000000
vn 0.006610 0.999978 0.000000
vn 0.006610 0.999978 0.000000
vn 0.006610 0.999978 0.000000
vn 0.006610 0.999978 0.000000
vn 0.006610 0.999978 0.000000
vn 0.006610 0.999978 0.000000
vn 0.006610 0.999978 0.000000
vn 0.006610 0.999978 0.000000
vn 0.006610 0.999978 0.000000
vn 0.006610 0.999978 0.000000
vn 0.006610 0.999978 0.000000
vn 0.006610 0.999978 0.000000
vn 0.006610 0.999978 0.000000
vn 0.006610 0.999978 0.000000
vn 0.006610 0.999978 0.000000
vn 0.006610 0.999978 0.000000
vn 0.006610 0.999978 0.000000
vn 0.006610 0.999978 0.000000
s off
g AltarBody
usemtl AltarBody2
f 221/217/1 222/218/2 27/219/3 26/220/4
f 37/280/5 14/260/6 34/279/7 33/299/8
f 42/293/9 21/282/10 209/302/11 210/308/12
f 47/258/13 23/276/14 44/295/15 43/277/16
f 111/526/17 110/527/18 112/528/19 113/529/20
f 29/227/21 195/238/22 196/254/23 61/240/24
f 64/246/25 13/264/26 32/278/27 65/259/28
f 66/242/29 14/260/30 68/243/31 67/230/32
f 339/1/33 52/2/34 53/3/35 99/4/36 100/5/37 103/6/38 102/7/39 101/8/40 361/9/41 360/10/42 70/11/43 72/12/44 73/13/45 49/14/46 48/15/47 51/16/48 98/17/49 338/18/50
f 115/19/51 114/20/52 116/21/53 117/22/54
f 74/37/55 75/38/56 76/39/57 55/40/58 54/41/59 57/42/60 104/43/61 381/44/62 380/45/63 58/46/64 59/47/65 105/48/66 106/49/67 109/50/68 108/51/69 107/52/70 358/53/71 359/54/72
f 119/55/73 118/56/74 120/57/75 121/58/76
f 123/541/77 122/540/78 201/544/79 202/545/80
f 127/552/81 126/553/82 128/554/83 129/555/84
f 216/571/85 217/570/86 132/572/87 133/573/88
f 36/315/89 18/326/90 205/337/91 206/327/92
f 181/329/93 182/339/94 20/350/95 50/340/96
f 83/281/97 21/282/98 85/261/99 84/262/100
f 177/355/101 178/343/102 16/354/103 71/363/104
f 87/322/105 17/334/106 31/323/107 88/310/108
f 89/294/109 23/276/110 91/257/111 90/275/112
f 225/247/113 213/265/114 60/266/115 92/248/116
f 94/234/117 191/249/118 192/235/119 95/224/120
f 96/231/121 15/222/122 69/229/123 97/241/124
f 135/32/125 134/31/126 136/33/127 137/34/128
f 139/68/129 138/67/130 140/69/131 141/70/132
f 263/206/133 264/202/134 250/199/135 251/203/136
f 267/189/137 354/190/138 355/186/139 247/185/140
f 27/219/141 193/225/142 194/226/143 26/220/144
f 194/226/145 195/238/146 29/227/147 26/220/148
f 29/227/149 220/228/150 221/217/151 26/220/152
f 143/533/153 142/532/154 144/536/155 145/537/156
f 144/536/157 122/540/158 123/541/159 145/537/160
f 147/559/161 146/558/162 148/562/163 149/563/164
f 148/562/165 130/566/166 131/567/167 149/563/168
f 34/279/169 6/298/170 35/314/171 33/299/172
f 35/314/173 18/326/174 36/315/175 33/299/176
f 36/315/177 19/300/178 37/280/179 33/299/180
f 179/331/181 180/330/182 8/341/183 40/342/184
f 40/342/185 16/354/186 178/343/187 179/331/188
f 210/308/189 211/321/190 22/309/191 42/293/192
f 44/295/193 5/311/194 45/296/195 43/277/196
f 45/296/197 10/283/198 46/263/199 43/277/200
f 46/263/201 24/245/202 47/258/203 43/277/204
f 151/26/205 150/25/206 152/29/207 153/30/208
f 152/29/209 134/31/210 135/32/211 153/30/212
f 155/62/213 154/61/214 156/65/215 157/66/216
f 156/65/217 138/67/218 139/68/219 157/66/220
f 253/211/221 377/215/222 376/216/223 261/214/224
f 261/214/225 262/210/226 252/207/227 253/211/228
f 187/538/229 188/539/230 160/534/231 161/535/232
f 160/534/233 214/531/234 215/530/235 161/535/236
f 112/528/237 142/532/238 143/533/239 113/529/240
f 196/254/241 197/272/242 63/255/243 61/240/244
f 63/255/245 218/256/246 219/239/247 61/240/248
f 219/239/249 220/228/250 29/227/251 61/240/252
f 32/278/253 6/298/254 34/279/255 65/259/256
f 34/279/257 14/260/258 66/242/259 65/259/260
f 66/242/261 11/232/262 64/246/263 65/259/264
f 68/243/265 7/244/266 69/229/267 67/230/268
f 69/229/269 15/222/270 30/221/271 67/230/272
f 30/221/273 11/232/274 66/242/275 67/230/276
f 163/27/277 162/28/278 164/23/279 165/24/280
f 164/23/281 114/20/282 115/19/283 165/24/284
f 116/21/285 150/25/286 151/26/287 117/22/288
f 166/63/289 167/64/290 168/59/291 169/60/292
f 168/59/293 118/56/294 119/55/295 169/60/296
f 120/57/297 154/61/298 155/62/299 121/58/300
f 174/549/301 175/548/302 162/550/303 163/551/304
f 170/568/305 171/569/306 185/565/307 186/564/308
f 203/556/309 204/557/310 126/553/311 127/552/312
f 128/554/313 146/558/314 147/559/315 129/555/316
f 132/572/317 198/574/318 199/575/319 133/573/320
f 183/349/321 184/359/322 4/367/323 80/360/324
f 80/360/325 20/350/326 182/339/327 183/349/328
f 206/327/329 207/316/330 19/300/331 36/315/332
f 50/340/333 8/341/334 180/330/335 181/329/336
f 208/301/337 209/302/338 21/282/339 83/281/340
f 83/281/341 19/300/342 207/316/343 208/301/344
f 85/261/345 7/244/346 68/243/347 84/262/348
f 68/243/349 14/260/350 37/280/351 84/262/352
f 37/280/353 19/300/354 83/281/355 84/262/356
f 71/363/357 2/370/358 176/364/359 177/355/360
f 212/333/361 200/345/362 17/334/363 87/322/364
f 87/322/365 22/309/366 211/321/367 212/333/368
f 31/323/369 5/311/370 44/295/371 88/310/372
f 44/295/373 23/276/374 89/294/375 88/310/376
f 89/294/377 22/309/378 87/322/379 88/310/380
f 91/257/381 7/244/382 85/261/383 90/275/384
f 85/261/385 21/282/386 42/293/387 90/275/388
f 42/293/389 22/309/390 89/294/391 90/275/392
f 60/266/393 189/287/394 190/267/395 92/248/396
f 190/267/397 191/249/398 94/234/399 92/248/400
f 94/234/401 224/233/402 225/247/403 92/248/404
f 192/235/405 193/225/406 27/219/407 95/224/408
f 27/219/409 222/218/410 223/223/411 95/224/412
f 223/223/413 224/233/414 94/234/415 95/224/416
f 69/229/417 7/244/418 91/257/419 97/241/420
f 91/257/421 23/276/422 47/258/423 97/241/424
f 47/258/425 24/245/426 96/231/427 97/241/428
f 136/33/429 171/35/430 170/36/431 137/34/432
f 140/69/433 158/71/434 159/72/435 141/70/436
f 251/203/437 252/207/438 262/210/439 263/206/440
f 247/185/441 248/191/442 266/194/443 267/189/444
f 249/195/445 250/199/446 264/202/447 265/198/448
f 265/198/449 266/194/450 248/191/451 249/195/452
f 10/283/453 45/296/454 112/312/455 110/303/456
f 381/374/457 111/375/458 113/376/459
f 16/354/460 40/342/461 116/353/462 114/362/463
f 73/403/464 72/399/465 115/400/466 117/404/467
f 12/253/468 28/237/469 120/252/470 118/270/471
f 76/401/472 75/405/473 119/406/474 121/402/475
f 17/334/476 200/345/477 201/357/478 122/346/479
f 202/384/480 360/380/481 123/382/482
f 18/326/483 35/314/484 128/325/485 126/336/486
f 338/421/487 127/431/488 129/430/489
f 217/273/490 218/256/491 63/255/492 132/274/493
f 359/413/494 216/423/495 133/420/496
f 20/350/497 80/360/498 136/368/499 134/361/500
f 98/418/501 51/415/502 135/416/503 137/419/504
f 25/268/505 93/288/506 140/306/507 138/289/508
f 104/387/509 57/390/510 139/391/511 141/388/512
f 5/311/513 31/323/514 144/335/515 142/324/516
f 143/378/517 145/379/518 360/380/519 381/374/520 113/376/521
f 31/323/522 17/334/523 122/346/524 144/335/525
f 360/380/526 145/379/527 123/382/528
f 6/298/529 32/278/530 148/297/531 146/313/532
f 147/429/533 149/427/534 359/413/535 338/421/536 129/430/537
f 32/278/538 13/264/539 130/284/540 148/297/541
f 359/413/542 149/427/543 131/425/544
f 8/341/545 50/340/546 152/351/547 150/352/548
f 48/411/549 49/407/550 151/408/551 153/412/552
f 50/340/553 20/350/554 134/361/555 152/351/556
f 51/415/557 48/411/558 153/412/559 135/416/560
f 9/236/561 56/250/562 156/269/563 154/251/564
f 54/393/565 55/397/566 155/398/567 157/394/568
f 56/250/569 25/268/570 138/289/571 156/269/572
f 57/390/573 54/393/574 157/394/575 139/391/576
f 188/304/577 189/287/578 60/266/579 160/286/580
f 381/374/581 187/383/582 161/381/583
f 60/266/584 213/265/585 214/285/586 160/286/587
f 215/377/588 381/374/589 161/381/590
f 45/296/591 5/311/592 142/324/593 112/312/594
f 2/370/595 71/363/596 164/369/597 162/373/598
f 70/395/599 360/380/600 163/392/601 165/396/602
f 71/363/603 16/354/604 114/362/605 164/369/606
f 72/399/607 70/395/608 165/396/609 115/400/610
f 40/342/611 8/341/612 150/352/613 116/353/614
f 49/407/615 73/403/616 117/404/617 151/408/618
f 3/291/619 62/271/620 168/290/621 167/307/622
f 74/409/623 359/413/624 166/414/625 169/410/626
f 62/271/627 12/253/628 118/270/629 168/290/630
f 75/405/631 74/409/632 169/410/633 119/406/634
f 28/237/635 9/236/636 154/251/637 120/252/638
f 55/397/639 76/401/640 121/402/641 155/398/642
f 175/371/643 176/364/644 2/370/645 162/373/646
f 360/380/647 174/389/648 163/392/649
f 4/367/650 184/359/651 185/366/652 171/372/653
f 186/424/654 338/421/655 170/422/656
f 204/347/657 205/337/658 18/326/659 126/336/660
f 338/421/661 203/428/662 127/431/663
f 35/314/664 6/298/665 146/313/666 128/325/667
f 63/255/668 197/272/669 198/292/670 132/274/671
f 199/417/672 359/413/673 133/420/674
f 80/360/675 4/367/676 171/372/677 136/368/678
f 338/421/679 98/418/680 137/419/681 170/422/682
f 93/288/683 1/305/684 158/319/685 140/306/686
f 381/374/687 104/387/688 141/388/689 159/385/690
s 1
f 307/73/691 308/74/692 369/75/693 368/76/694
s 2
f 368/76/695 367/94/696 306/95/697 307/73/698
s off
f 274/109/699 363/110/700 362/111/701 233/112/702
f 234/115/703 273/116/704 274/109/705 233/112/706
f 272/120/707 273/116/708 234/115/709 235/121/710
f 236/124/711 271/125/712 272/120/713 235/121/714
f 270/128/715 271/125/716 236/124/717 237/129/718
f 238/132/719 269/133/720 270/128/721 237/129/722
f 268/136/723 269/133/724 238/132/725 239/137/726
f 340/140/727 341/141/728 268/136/729 239/137/730
s 3
f 372/145/731 311/146/732 312/147/733 373/148/734
s off
f 174/389/735 360/380/736 125/386/737
f 124/546/738 175/548/739 174/549/740 125/547/741
f 77/356/742 176/364/743 175/371/744 124/365/745
f 177/355/746 176/364/747 77/356/748 86/344/749
f 41/332/750 178/343/751 177/355/752 86/344/753
f 179/331/754 178/343/755 41/332/756 38/320/757
f 39/317/758 180/330/759 179/331/760 38/320/761
f 181/329/762 180/330/763 39/317/764 82/318/765
f 81/328/766 182/339/767 181/329/768 82/318/769
f 183/349/770 182/339/771 81/328/772 79/338/773
f 78/348/774 184/359/775 183/349/776 79/338/777
f 185/366/778 184/359/779 78/348/780 172/358/781
f 186/564/782 185/565/783 172/560/784 173/561/785
f 338/421/786 186/424/787 173/426/788
f 187/383/789 381/374/790 159/385/791
f 159/542/792 158/543/793 188/539/794 187/538/795
f 1/305/796 189/287/797 188/304/798 158/319/799
f 190/267/800 189/287/801 1/305/802 93/288/803
f 93/288/804 25/268/805 191/249/806 190/267/807
f 192/235/808 191/249/809 25/268/810 56/250/811
f 56/250/812 9/236/813 193/225/814 192/235/815
f 194/226/816 193/225/817 9/236/818 28/237/819
f 28/237/820 12/253/821 195/238/822 194/226/823
f 196/254/824 195/238/825 12/253/826 62/271/827
f 62/271/828 3/291/829 197/272/830 196/254/831
f 198/292/832 197/272/833 3/291/834 167/307/835
f 199/575/836 198/574/837 167/576/838 166/577/839
f 359/413/840 199/417/841 166/414/842
f 201/357/843 200/345/844 77/356/845 124/365/846
f 202/545/847 201/544/848 124/546/849 125/547/850
f 360/380/851 202/384/852 125/386/853
f 203/428/854 338/421/855 173/426/856
f 172/560/857 204/557/858 203/556/859 173/561/860
f 78/348/861 205/337/862 204/347/863 172/358/864
f 206/327/865 205/337/866 78/348/867 79/338/868
f 81/328/869 207/316/870 206/327/871 79/338/872
f 208/301/873 207/316/874 81/328/875 82/318/876
f 39/317/877 209/302/878 208/301/879 82/318/880
f 210/308/881 209/302/882 39/317/883 38/320/884
f 41/332/885 211/321/886 210/308/887 38/320/888
f 212/333/889 211/321/890 41/332/891 86/344/892
f 77/356/893 200/345/894 212/333/895 86/344/896
f 214/285/897 213/265/898 10/283/899 110/303/900
f 215/530/901 214/531/902 110/527/903 111/526/904
f 381/374/905 215/377/906 111/375/907
s 4
f 312/147/908 313/166/909 374/167/910 373/148/911
s off
f 216/423/912 359/413/913 131/425/914
f 131/567/915 130/566/916 217/570/917 216/571/918
f 13/264/919 218/256/920 217/273/921 130/284/922
f 219/239/923 218/256/924 13/264/925 64/246/926
f 64/246/927 11/232/928 220/228/929 219/239/930
f 221/217/931 220/228/932 11/232/933 30/221/934
f 30/221/935 15/222/936 222/218/937 221/217/938
f 223/223/939 222/218/940 15/222/941 96/231/942
f 96/231/943 24/245/944 224/233/945 223/223/946
f 225/247/947 224/233/948 24/245/949 46/263/950
f 46/263/951 10/283/952 213/265/953 225/247/954
f 106/432/955 105/433/956 227/434/957 226/435/958
f 358/448/959 107/446/960 228/447/961 357/449/962
f 58/440/963 380/444/964 379/445/965 229/441/966
f 59/436/967 58/440/968 229/441/969 230/437/970
f 105/433/971 59/436/972 230/437/973 227/434/974
f 107/446/975 108/442/976 231/443/977 228/447/978
f 109/438/979 106/432/980 226/435/981 232/439/982
f 108/442/983 109/438/984 232/439/985 231/443/986
f 361/450/987 101/451/988 233/452/989 362/453/990
f 101/451/991 102/454/992 234/455/993 233/452/994
f 102/454/995 103/456/996 235/457/997 234/455/998
f 103/456/999 100/458/1000 236/459/1001 235/457/1002
f 100/458/1003 99/460/1004 237/461/1005 236/459/1006
f 99/460/1007 53/462/1008 238/463/1009 237/461/1010
f 53/462/1011 52/464/1012 239/465/1013 238/463/1014
f 52/464/1015 339/466/1016 340/467/1017 239/465/1018
f 247/185/1019 355/186/1020 356/182/1021 275/181/1022
f 275/181/1023 276/188/1024 248/191/1025 247/185/1026
f 249/195/1027 248/191/1028 276/188/1029 277/192/1030
f 277/192/1031 278/197/1032 250/199/1033 249/195/1034
f 251/203/1035 250/199/1036 278/197/1037 279/200/1038
f 279/200/1039 280/205/1040 252/207/1041 251/203/1042
f 253/211/1043 252/207/1044 280/205/1045 281/208/1046
f 281/208/1047 378/213/1048 377/215/1049 253/211/1050
f 254/117/1051 365/118/1052 364/114/1053 246/113/1054
f 246/113/1055 245/119/1056 255/122/1057 254/117/1058
f 256/126/1059 255/122/1060 245/119/1061 244/123/1062
f 244/123/1063 243/127/1064 257/130/1065 256/126/1066
f 258/134/1067 257/130/1068 243/127/1069 242/131/1070
f 242/131/1071 241/135/1072 259/138/1073 258/134/1074
f 260/142/1075 259/138/1076 241/135/1077 240/139/1078
f 240/139/1079 342/143/1080 343/144/1081 260/142/1082
f 268/136/1083 341/141/1084 342/143/1085 240/139/1086
f 240/139/1087 241/135/1088 269/133/1089 268/136/1090
f 270/128/1091 269/133/1092 241/135/1093 242/131/1094
f 242/131/1095 243/127/1096 271/125/1097 270/128/1098
f 272/120/1099 271/125/1100 243/127/1101 244/123/1102
f 244/123/1103 245/119/1104 273/116/1105 272/120/1106
f 274/109/1107 273/116/1108 245/119/1109 246/113/1110
f 246/113/1111 364/114/1112 363/110/1113 274/109/1114
f 275/181/1115 356/182/1116 357/183/1117 228/184/1118
f 231/187/1119 276/188/1120 275/181/1121 228/184/1122
f 277/192/1123 276/188/1124 231/187/1125 232/193/1126
f 226/196/1127 278/197/1128 277/192/1129 232/193/1130
f 279/200/1131 278/197/1132 226/196/1133 227/201/1134
f 230/204/1135 280/205/1136 279/200/1137 227/201/1138
f 281/208/1139 280/205/1140 230/204/1141 229/209/1142
f 379/212/1143 378/213/1144 281/208/1145 229/209/1146
s 2
f 336/101/1147 337/107/1148 345/108/1149 346/102/1150
s 1
f 347/79/1151 335/93/1152 336/101/1153 346/102/1154
s off
f 347/79/1155 348/80/1156 334/81/1157 294/82/1158 325/83/1159 285/84/1160 317/85/1161 301/86/1162 309/87/1163 370/88/1164 369/75/1165 308/74/1166 300/78/1167 316/89/1168 284/90/1169 324/91/1170 295/92/1171 335/93/1172
f 371/468/1173 370/469/1174 309/470/1175 301/471/1176 317/472/1177 285/473/1178 325/474/1179 294/475/1180 334/476/1181 348/477/1182 349/478/1183 333/479/1184 293/480/1185 326/481/1186 286/482/1187 318/483/1188 302/484/1189 310/485/1190
s 3
f 331/168/1191 332/153/1192 350/152/1193 351/169/1194
s 4
f 351/169/1195 352/175/1196 330/176/1197 331/168/1198
s off
f 266/486/1199 265/487/1200 264/488/1201 263/489/1202 262/490/1203 261/491/1204 376/492/1205 375/493/1206 374/494/1207 313/495/1208 305/496/1209 321/497/1210 289/498/1211 329/499/1212 290/500/1213 330/501/1214 352/502/1215 353/503/1216 354/504/1217 267/505/1218
s 4
f 328/171/1219 329/178/1220 289/179/1221 288/172/1222
s 3
f 288/172/1223 287/156/1224 327/155/1225 328/171/1226
s 1
f 323/99/1227 324/91/1228 284/90/1229 283/98/1230
s 2
f 283/98/1231 282/104/1232 322/105/1233 323/99/1234
f 299/77/1235 298/97/1236 314/103/1237 315/96/1238
s 1
f 315/96/1239 316/89/1240 300/78/1241 299/77/1242
s 3
f 304/165/1243 303/158/1244 319/157/1245 320/173/1246
s 4
f 320/173/1247 321/180/1248 305/174/1249 304/165/1250
s 2
f 307/73/698 306/95/697 298/97/1236 299/77/1235
s 1
f 299/77/1242 300/78/1241 308/74/692 307/73/691
s off
f 293/149/1251 333/150/1252 349/151/1253 350/152/1254 332/153/1255 292/154/1256 327/155/1257 287/156/1258 319/157/1259 303/158/1260 311/146/1261 372/145/1262 371/159/1263 310/160/1264 302/161/1265 318/162/1266 286/163/1267 326/164/1268
s 3
f 312/147/733 311/146/732 303/158/1244 304/165/1243
s 4
f 304/165/1250 305/174/1249 313/166/909 312/147/908
s 2
f 315/96/1238 314/103/1237 282/104/1232 283/98/1231
s 1
f 283/98/1230 284/90/1229 316/89/1240 315/96/1239
s 3
f 320/173/1246 319/157/1245 287/156/1224 288/172/1223
s 4
f 288/172/1222 289/179/1221 321/180/1248 320/173/1247
s 2
f 323/99/1234 322/105/1233 297/106/1269 296/100/1270
s 1
f 296/100/1271 295/92/1272 324/91/1228 323/99/1227
s 3
f 328/171/1226 327/155/1225 292/154/1273 291/170/1274
s 4
f 291/170/1275 290/177/1276 329/178/1220 328/171/1219
f 331/168/1198 330/176/1197 290/177/1276 291/170/1275
s 3
f 291/170/1274 292/154/1273 332/153/1192 331/168/1191
s 1
f 336/101/1153 335/93/1152 295/92/1272 296/100/1271
s 2
f 296/100/1270 297/106/1269 337/107/1148 336/101/1147
s off
f 366/506/1277 365/507/1278 254/508/1279 255/509/1280 256/510/1281 257/511/1282 258/512/1283 259/513/1284 260/514/1285 343/515/1286 344/516/1287 345/517/1288 337/518/1289 297/519/1290 322/520/1291 282/521/1292 314/522/1293 298/523/1294 306/524/1295 367/525/1296
