# This file uses centimeters as units for non-parametric coordinates.

mtllib BaseWall.mtl
g default
v 0.020000 0.003676 10.026290
v 0.020000 5.003676 10.026290
v -0.980000 0.003676 10.026290
v -0.980000 5.003676 10.026290
v -0.980000 10.003680 10.026290
v 0.020000 10.003680 10.026290
v -0.980000 0.003676 5.026293
v -0.980000 5.003676 5.026293
v -0.980000 0.003676 0.026293
v -0.980000 5.003676 0.026293
v -0.980000 10.003680 0.026293
v -0.980000 10.003680 5.026293
v 0.020000 0.003676 0.026293
v 0.020000 5.003676 0.026293
v 0.020000 10.003680 0.026293
v 0.020000 0.003676 5.026293
v 0.020000 5.003676 5.026293
v 0.020000 10.003680 5.026293
v 0.020000 6.003676 5.026293
v 0.020000 7.003677 5.026293
v 0.020000 8.003678 5.026293
v 0.020000 9.003679 5.026293
v 0.020000 6.003676 10.026291
v 0.020000 7.003677 10.026291
v 0.020000 8.003678 10.026290
v 0.020000 9.003679 10.026290
v 0.020000 5.003676 6.026292
v 0.020000 5.003676 7.026292
v 0.020000 5.003676 8.026291
v 0.020000 5.003676 9.026291
v 0.020000 10.003680 7.026292
v 0.020000 10.003680 8.026291
v 0.020000 10.003680 9.026291
v 0.020000 1.003676 10.026291
v 0.020000 2.003676 10.026291
v 0.020000 3.003676 10.026290
v 0.020000 4.003676 10.026290
v 0.020000 4.003676 0.026293
v 0.020000 3.003676 0.026293
v 0.020000 2.003676 0.026293
v 0.020000 1.003676 0.026293
v 0.020000 9.003679 0.026293
v 0.020000 8.003678 0.026293
v 0.020000 7.003677 0.026293
v 0.020000 6.003676 0.026293
v 0.020000 5.003676 1.026293
v 0.020000 5.003676 2.026293
v 0.020000 5.003676 3.026293
v 0.020000 5.003676 4.026293
v 0.020000 4.003676 5.026293
v 0.020000 3.003676 5.026293
v 0.020000 2.003676 5.026293
v 0.020000 1.003676 5.026293
v 0.020000 0.003676 4.026293
v 0.020000 0.003676 3.026293
v 0.020000 0.003676 2.026293
v 0.020000 0.003676 1.026293
v 0.020000 0.003676 9.026291
v 0.020000 0.003676 8.026291
v 0.020000 0.003676 7.026292
v 0.020000 0.003676 6.026292
v 0.020000 10.003680 1.026293
v 0.020000 10.003680 2.026293
v 0.020000 10.003680 3.026293
v 0.020000 10.003680 4.026293
v -0.980000 4.003676 10.026291
v -0.980000 3.003676 10.026291
v -0.980000 2.003676 10.026290
v -0.980000 1.003676 10.026290
v -0.980000 9.003679 10.026291
v -0.980000 8.003678 10.026291
v -0.980000 7.003677 10.026290
v -0.980000 6.003676 10.026290
v -0.980000 5.003676 9.026291
v -0.980000 5.003676 8.026291
v -0.980000 5.003676 7.026292
v -0.980000 5.003676 6.026292
v -0.980000 4.003676 5.026293
v -0.980000 3.003676 5.026293
v -0.980000 2.003676 5.026293
v -0.980000 1.003676 5.026293
v -0.980000 0.003676 6.026292
v -0.980000 0.003676 7.026292
v -0.980000 0.003676 8.026291
v -0.980000 0.003676 9.026291
v -0.980000 5.003676 4.026293
v -0.980000 5.003676 3.026293
v -0.980000 5.003676 2.026293
v -0.980000 5.003676 1.026293
v -0.980000 4.003676 0.026293
v -0.980000 3.003676 0.026293
v -0.980000 2.003676 0.026293
v -0.980000 1.003676 0.026293
v -0.980000 0.003676 1.026293
v -0.980000 0.003676 2.026293
v -0.980000 0.003676 3.026293
v -0.980000 0.003676 4.026293
v -0.980000 10.003680 4.026293
v -0.980000 10.003680 3.026293
v -0.980000 10.003680 2.026293
v -0.980000 10.003680 1.026293
v -0.980000 9.003679 0.026293
v -0.980000 8.003678 0.026293
v -0.980000 7.003677 0.026293
v -0.980000 6.003676 0.026293
v -0.980000 6.003676 5.026293
v -0.980000 7.003677 5.026293
v -0.980000 8.003678 5.026293
v -0.980000 9.003679 5.026293
v -0.980000 10.003680 9.026291
v -0.980000 10.003680 8.026291
v -0.980000 10.003680 7.026292
v -0.980000 10.003680 6.026292
v 0.020000 10.003680 6.066070
v -0.980000 9.003679 4.026293
v -0.980000 9.003679 3.026293
v -0.980000 9.003679 2.026293
v -0.980000 9.003679 1.026293
v -0.980000 8.003678 1.026293
v -0.980000 8.003678 2.026293
v -0.980000 8.003678 3.026293
v -0.980000 8.003678 4.026293
v -0.980000 7.003679 1.026293
v -0.980000 7.003679 2.026293
v -0.980000 7.003678 3.026293
v -0.980000 7.003678 4.026293
v -0.980000 6.003677 4.026293
v -0.980000 6.003677 3.026293
v -0.980000 6.003677 2.026293
v -0.980000 6.003677 1.026293
v -0.980000 4.003676 1.026293
v -0.980000 4.003676 2.026293
v -0.980000 4.003676 3.026293
v -0.980000 4.003676 4.026293
v -0.980000 4.003676 6.026292
v -0.980000 3.003676 6.026292
v -0.980000 3.003676 4.026293
v -0.980000 3.003676 3.026293
v -0.980000 3.003676 2.026293
v -0.980000 3.003676 1.026293
v -0.980000 2.003677 1.026293
v -0.980000 2.003677 2.026293
v -0.980000 2.003677 3.026293
v -0.980000 2.003677 4.026293
v -0.980000 2.003677 6.026292
v -0.980000 1.003677 1.026293
v -0.980000 1.003677 2.026293
v -0.980000 1.003677 3.026293
v -0.980000 1.003677 4.026293
v -0.980000 1.003677 6.026292
v -0.980000 1.003677 7.026292
v -0.980000 2.003677 7.026292
v -0.980000 3.003676 7.026292
v -0.980000 4.003676 7.026292
v -0.980000 4.003676 8.026291
v -0.980000 3.003676 8.026291
v -0.980000 2.003677 8.026290
v -0.980000 1.003676 8.026290
v -0.980000 1.003676 9.026290
v -0.980000 2.003676 9.026290
v -0.980000 3.003676 9.026291
v -0.980000 4.003676 9.026291
v -0.980000 9.003679 9.026291
v -0.980000 9.003679 8.026291
v -0.980000 9.003679 7.026292
v -0.980000 9.003679 6.026292
v -0.980000 8.003678 9.026291
v -0.980000 8.003678 8.026291
v -0.980000 8.003678 7.026292
v -0.980000 8.003678 6.026292
v -0.980000 7.003679 9.026291
v -0.980000 7.003678 8.026291
v -0.980000 7.003679 7.026292
v -0.980000 7.003678 6.026292
v -0.980000 6.003677 9.026291
v -0.980000 6.003677 8.026291
v -0.980000 6.003677 7.026292
v -0.980000 6.003677 6.026292
v 0.020000 9.003679 1.026293
v 0.020000 8.003678 1.026293
v 0.020000 7.003677 1.026293
v 0.020000 6.003676 1.026293
v 0.020000 4.003676 1.026293
v 0.020000 3.003676 1.026293
v 0.020000 2.003676 1.026293
v 0.020000 1.003676 1.026293
v 0.020000 9.003679 2.026293
v 0.020000 8.003678 2.026293
v 0.020000 7.003677 2.026293
v 0.020000 6.003676 2.026293
v 0.020000 4.003676 2.026293
v 0.020000 3.003676 2.026293
v 0.020000 2.003676 2.026293
v 0.020000 1.003676 2.026293
v 0.020000 1.003676 3.026292
v 0.020000 2.003676 3.026292
v 0.020000 3.003676 3.026292
v 0.020000 4.003676 3.026292
v 0.020000 6.003676 3.026292
v 0.020000 7.003677 3.026292
v 0.020000 8.003678 3.026292
v 0.020000 9.003679 3.026292
v 0.020000 9.003679 4.026292
v 0.020000 8.003678 4.026292
v 0.020000 7.003677 4.026292
v 0.020000 6.003676 4.026292
v 0.020000 4.003676 4.026292
v 0.020000 3.003676 4.026292
v 0.020000 2.003676 4.026292
v 0.020000 1.003676 4.026292
v 0.020000 9.003679 6.062092
v 0.020000 8.003678 6.058112
v 0.020000 7.003677 6.054138
v 0.020000 6.003676 6.050158
v 0.020000 5.003676 6.046181
v 0.020000 4.003676 6.042202
v 0.020000 3.003676 6.038227
v 0.020000 2.003676 6.034247
v 0.020000 1.003676 6.030268
v 0.020000 1.003676 7.026292
v 0.020000 2.003676 7.026290
v 0.020000 3.003676 7.026294
v 0.020000 4.003676 7.026292
v 0.020000 6.003676 7.026290
v 0.020000 7.003677 7.026290
v 0.020000 8.003678 7.026292
v 0.020000 9.003679 7.026292
v 0.020000 9.003679 8.026291
v 0.020000 8.003678 8.026290
v 0.020000 7.003677 8.026293
v 0.020000 6.003676 8.026289
v 0.020000 4.003676 8.026291
v 0.020000 3.003676 8.026291
v 0.020000 2.003676 8.026293
v 0.020000 1.003676 8.026291
v 0.020000 1.003676 9.026291
v 0.020000 2.003676 9.026292
v 0.020000 3.003676 9.026291
v 0.020000 4.003676 9.026291
v 0.020000 6.003676 9.026290
v 0.020000 7.003677 9.026292
v 0.020000 8.003678 9.026290
v 0.020000 9.003679 9.026291
vt 1.000000 -4.000000
vt 1.000000 -9.000000
vt 0.000000 -4.000000
vt 0.000000 -9.000000
vt 0.000000 1.000000
vt 1.000000 1.000000
vt 10.000000 -4.000000
vt 5.000000 -4.000000
vt 5.000000 -9.000000
vt 10.000000 -9.000000
vt 5.000000 1.000000
vt 10.000000 1.000000
vt 0.000000 -4.000000
vt 0.000000 -9.000000
vt 0.000000 1.000000
vt 1.000000 -9.000000
vt 1.000000 -4.000000
vt 0.000000 -4.000000
vt 0.000000 -9.000000
vt 0.000000 1.000000
vt 1.000000 1.000000
vt 10.000000 -9.000000
vt 10.000000 -4.000000
vt 5.000000 -4.000000
vt 5.000000 -9.000000
vt 0.000000 -4.000000
vt 0.000000 -9.000000
vt 5.000000 1.000000
vt 0.000000 1.000000
vt 10.000000 1.000000
vt 0.000000 -4.000000
vt 1.000000 1.000000
vt 1.000000 -4.000000
vt 1.000000 -9.000000
vt 0.000000 -9.000000
vt 1.000000 -9.000000
vt 1.000000 -4.000000
vt 0.000000 -4.000000
vt 0.000000 1.000000
vt 1.000000 1.000000
vt 5.000000 -3.000000
vt 5.000000 -2.000000
vt 5.000000 -1.000000
vt 5.000000 0.000000
vt 1.000000 -3.000000
vt 0.000000 -3.000000
vt 1.000000 -2.000000
vt 0.000000 -2.000000
vt 1.000000 -1.000000
vt 0.000000 -1.000000
vt 1.000000 0.000000
vt 0.000000 0.000000
vt 4.000000 -4.000000
vt 3.000000 -4.000000
vt 2.000000 -4.000000
vt 1.000000 -4.000000
vt 3.000000 1.000000
vt 0.000000 -2.000000
vt 2.000000 1.000000
vt 0.000000 -1.000000
vt 1.000000 1.000000
vt 0.000000 0.000000
vt 1.000000 -8.000000
vt 0.000000 -8.000000
vt 1.000000 -7.000000
vt 0.000000 -7.000000
vt 1.000000 -6.000000
vt 0.000000 -6.000000
vt 1.000000 -5.000000
vt 0.000000 -5.000000
vt 0.000000 -5.000000
vt 10.000000 -5.000000
vt 0.000000 -6.000000
vt 10.000000 -6.000000
vt 0.000000 -7.000000
vt 10.000000 -7.000000
vt 0.000000 -8.000000
vt 10.000000 -8.000000
vt 0.000000 0.000000
vt 10.000000 0.000000
vt 0.000000 -1.000000
vt 10.000000 -1.000000
vt 0.000000 -2.000000
vt 10.000000 -2.000000
vt 0.000000 -3.000000
vt 10.000000 -3.000000
vt 9.000000 -4.000000
vt 8.000000 -4.000000
vt 7.000000 -4.000000
vt 6.000000 -4.000000
vt 5.000000 -5.000000
vt 5.000000 -6.000000
vt 5.000000 -7.000000
vt 5.000000 -8.000000
vt 6.000000 -9.000000
vt 1.000000 -5.000000
vt 7.000000 -9.000000
vt 1.000000 -6.000000
vt 8.000000 -9.000000
vt 1.000000 -7.000000
vt 9.000000 -9.000000
vt 1.000000 -8.000000
vt 1.000000 -9.000000
vt 1.000000 0.000000
vt 2.000000 -9.000000
vt 1.000000 -1.000000
vt 3.000000 -9.000000
vt 1.000000 -2.000000
vt 4.000000 -9.000000
vt 1.000000 -3.000000
vt 9.000000 1.000000
vt 0.000000 -8.000000
vt 8.000000 1.000000
vt 0.000000 -7.000000
vt 7.000000 1.000000
vt 0.000000 -6.000000
vt 6.000000 1.000000
vt 0.000000 -5.000000
vt 0.000000 -5.000000
vt 10.000000 -5.000000
vt 0.000000 -6.000000
vt 10.000000 -6.000000
vt 0.000000 -7.000000
vt 10.000000 -7.000000
vt 0.000000 -8.000000
vt 10.000000 -8.000000
vt 0.000000 0.000000
vt 10.000000 0.000000
vt 0.000000 -1.000000
vt 10.000000 -1.000000
vt 0.000000 -2.000000
vt 10.000000 -2.000000
vt 0.000000 -3.000000
vt 10.000000 -3.000000
vt 9.000000 -4.000000
vt 8.000000 -4.000000
vt 7.000000 -4.000000
vt 6.000000 -4.000000
vt 5.000000 -5.000000
vt 5.000000 -6.000000
vt 5.000000 -7.000000
vt 5.000000 -8.000000
vt 6.000000 -9.000000
vt 0.000000 -3.000000
vt 7.000000 -9.000000
vt 0.000000 -2.000000
vt 8.000000 -9.000000
vt 0.000000 -1.000000
vt 9.000000 -9.000000
vt 0.000000 0.000000
vt 4.000000 -4.000000
vt 3.000000 -4.000000
vt 2.000000 -4.000000
vt 1.000000 -4.000000
vt 0.000000 -5.000000
vt 1.000000 -5.000000
vt 0.000000 -6.000000
vt 1.000000 -6.000000
vt 0.000000 -7.000000
vt 1.000000 -7.000000
vt 0.000000 -8.000000
vt 1.000000 -8.000000
vt 1.000000 -9.000000
vt 0.000000 -8.000000
vt 2.000000 -9.000000
vt 0.000000 -7.000000
vt 3.000000 -9.000000
vt 0.000000 -6.000000
vt 4.000000 -9.000000
vt 0.000000 -5.000000
vt 4.000000 1.000000
vt 1.000000 -5.000000
vt 3.000000 1.000000
vt 1.000000 -6.000000
vt 2.000000 1.000000
vt 1.000000 -7.000000
vt 1.000000 1.000000
vt 1.000000 -8.000000
vt 0.000000 0.000000
vt 1.000000 0.000000
vt 0.000000 -1.000000
vt 1.000000 -1.000000
vt 0.000000 -2.000000
vt 1.000000 -2.000000
vt 0.000000 -3.000000
vt 1.000000 -3.000000
vt 5.000000 -3.000000
vt 5.000000 -2.000000
vt 5.000000 -1.000000
vt 5.000000 0.000000
vt 9.000000 1.000000
vt 1.000000 0.000000
vt 8.000000 1.000000
vt 1.000000 -1.000000
vt 7.000000 1.000000
vt 1.000000 -2.000000
vt 6.000000 1.000000
vt 1.000000 -3.000000
vt 3.960223 1.000000
vt 0.000000 -2.960222
vt 4.000000 0.000000
vt 3.000000 0.000000
vt 2.000000 0.000000
vt 1.000000 0.000000
vt 1.000000 -1.000000
vt 2.000000 -1.000000
vt 3.000000 -1.000000
vt 4.000000 -1.000000
vt 1.000000 -1.999999
vt 2.000000 -1.999999
vt 3.000000 -1.999999
vt 4.000000 -1.999999
vt 4.000000 -3.000000
vt 3.000000 -3.000000
vt 2.000000 -3.000000
vt 1.000000 -3.000000
vt 1.000000 -5.000000
vt 2.000000 -5.000000
vt 3.000000 -5.000000
vt 4.000000 -5.000000
vt 6.000000 -5.000000
vt 6.000000 -6.000000
vt 4.000000 -6.000000
vt 3.000000 -6.000000
vt 2.000000 -6.000000
vt 1.000000 -6.000000
vt 1.000000 -6.999999
vt 2.000000 -6.999999
vt 3.000000 -6.999999
vt 4.000000 -6.999999
vt 6.000000 -6.999999
vt 1.000000 -8.000000
vt 2.000000 -8.000000
vt 3.000000 -8.000000
vt 4.000000 -8.000000
vt 6.000000 -8.000000
vt 7.000000 -8.000000
vt 7.000000 -6.999999
vt 7.000000 -6.000000
vt 7.000000 -5.000000
vt 7.999999 -5.000000
vt 7.999999 -6.000000
vt 7.999999 -6.999999
vt 7.999999 -7.999999
vt 9.000000 -8.000000
vt 9.000000 -7.000000
vt 9.000000 -6.000000
vt 9.000000 -5.000000
vt 9.000000 0.000000
vt 8.000000 0.000000
vt 7.000000 0.000000
vt 6.000000 0.000000
vt 9.000000 -1.000000
vt 8.000000 -1.000000
vt 7.000000 -1.000000
vt 6.000000 -1.000000
vt 9.000000 -1.999999
vt 8.000000 -1.999999
vt 7.000000 -1.999999
vt 6.000000 -1.999999
vt 9.000000 -3.000000
vt 8.000000 -3.000000
vt 7.000000 -3.000000
vt 6.000000 -3.000000
vt 9.000000 0.000000
vt 9.000000 -1.000000
vt 9.000000 -2.000000
vt 9.000000 -3.000000
vt 9.000000 -5.000000
vt 9.000000 -6.000000
vt 9.000000 -7.000000
vt 9.000000 -8.000000
vt 8.000000 0.000000
vt 8.000000 -1.000000
vt 8.000000 -2.000000
vt 8.000000 -3.000000
vt 8.000000 -5.000000
vt 8.000000 -6.000000
vt 8.000000 -7.000000
vt 8.000000 -8.000000
vt 7.000001 -8.000000
vt 7.000001 -7.000000
vt 7.000001 -6.000000
vt 7.000001 -5.000000
vt 7.000001 -3.000000
vt 7.000001 -2.000000
vt 7.000001 -1.000000
vt 7.000001 0.000000
vt 6.000000 0.000000
vt 6.000000 -1.000000
vt 6.000000 -2.000000
vt 6.000000 -3.000000
vt 6.000000 -5.000000
vt 6.000000 -6.000000
vt 6.000000 -7.000000
vt 6.000000 -8.000000
vt 3.964200 0.000000
vt 3.968180 -1.000000
vt 3.972155 -2.000000
vt 3.976135 -3.000000
vt 3.980112 -4.000000
vt 3.984090 -5.000000
vt 3.988065 -6.000000
vt 3.992045 -7.000000
vt 3.996025 -8.000000
vt 3.000000 -8.000000
vt 3.000002 -7.000000
vt 2.999998 -6.000000
vt 3.000000 -5.000000
vt 3.000002 -3.000000
vt 3.000002 -2.000000
vt 2.999999 -1.000000
vt 3.000000 0.000000
vt 2.000001 0.000000
vt 2.000000 -1.000000
vt 1.999999 -2.000000
vt 2.000002 -3.000000
vt 2.000001 -5.000000
vt 2.000000 -6.000000
vt 1.999999 -7.000000
vt 2.000001 -8.000000
vt 1.000000 -8.000000
vt 1.000000 -7.000000
vt 1.000000 -6.000000
vt 1.000000 -5.000000
vt 1.000001 -3.000000
vt 1.000000 -2.000000
vt 1.000000 -1.000000
vt 1.000000 0.000000
vn 0.000000 0.000000 1.000000
vn 0.000000 0.000000 1.000000
vn 0.000001 0.000000 1.000000
vn 0.000001 0.000000 1.000000
vn 0.000001 0.000000 1.000000
vn 0.000001 0.000000 1.000000
vn 0.000000 0.000000 1.000000
vn 0.000000 0.000000 1.000000
vn -1.000000 0.000000 -0.000000
vn -1.000000 0.000000 -0.000000
vn -1.000000 0.000000 0.000000
vn -1.000000 0.000000 0.000000
vn -1.000000 0.000000 0.000000
vn -1.000000 0.000000 0.000000
vn -1.000000 0.000000 0.000000
vn -1.000000 0.000000 0.000000
vn -1.000000 0.000000 0.000000
vn -1.000000 0.000000 0.000000
vn -1.000000 0.000000 0.000000
vn -1.000000 0.000000 0.000000
vn -1.000000 0.000000 -0.000000
vn -1.000000 0.000000 -0.000000
vn -1.000000 0.000000 0.000000
vn -1.000000 0.000000 0.000000
vn 0.000000 0.000000 -1.000000
vn 0.000000 0.000000 -1.000000
vn 0.000000 0.000000 -1.000000
vn 0.000000 0.000000 -1.000000
vn 0.000000 0.000000 -1.000000
vn 0.000000 0.000000 -1.000000
vn 0.000000 0.000000 -1.000000
vn 0.000000 0.000000 -1.000000
vn 1.000000 0.000000 0.000000
vn 1.000000 0.000000 0.000000
vn 1.000000 0.000000 0.000000
vn 1.000000 0.000000 0.000000
vn 1.000000 0.000000 0.000000
vn 1.000000 0.000000 0.000000
vn 1.000000 -0.000000 0.000000
vn 1.000000 0.000000 0.000000
vn 1.000000 0.000000 0.000000
vn 1.000000 0.000000 0.000000
vn 1.000000 0.000000 0.000000
vn 1.000000 0.000000 0.000000
vn 1.000000 0.000000 0.000000
vn 1.000000 0.000000 0.000000
vn 1.000000 0.000000 0.000000
vn 1.000000 0.000000 0.000000
vn 1.000000 0.000000 0.000000
vn 0.000000 1.000000 0.000000
vn 0.000000 1.000000 0.000000
vn 0.000000 1.000000 0.000000
vn 0.000000 1.000000 0.000000
vn 0.000000 1.000000 0.000000
vn 0.000000 1.000000 0.000000
vn 0.000000 1.000000 0.000000
vn 0.000000 1.000000 0.000000
vn -0.000000 -1.000000 0.000000
vn -0.000000 -1.000000 0.000000
vn -0.000000 -1.000000 0.000000
vn -0.000000 -1.000000 -0.000000
vn 0.000000 -1.000000 0.000000
vn 0.000000 -1.000000 0.000000
vn 0.000000 -1.000000 -0.000000
vn 0.000000 -1.000000 -0.000000
vn -1.000000 0.000000 -0.000000
vn -1.000000 0.000000 -0.000000
vn -1.000000 -0.000000 -0.000000
vn -1.000000 0.000000 -0.000000
vn -1.000000 0.000000 0.000000
vn -1.000000 0.000000 0.000000
vn -1.000000 0.000000 0.000000
vn -1.000000 0.000000 -0.000000
vn -1.000000 0.000000 0.000000
vn -1.000000 0.000000 0.000000
vn -1.000000 -0.000000 0.000000
vn -1.000000 0.000000 -0.000000
vn -1.000000 -0.000000 0.000000
vn -1.000000 0.000000 0.000000
vn -1.000000 0.000000 0.000000
vn -1.000000 0.000000 -0.000000
vn -1.000000 0.000000 0.000000
vn -1.000000 0.000000 0.000000
vn -1.000000 0.000000 0.000000
vn -1.000000 0.000000 0.000000
vn 0.000000 1.000000 0.000000
vn 0.000000 1.000000 0.000000
vn 0.000000 1.000000 -0.000000
vn 0.000000 1.000000 -0.000000
vn 0.000000 1.000000 0.000000
vn 0.000000 1.000000 0.000000
vn 0.000000 1.000000 0.000000
vn 0.000000 1.000000 0.000000
vn 0.000000 1.000000 0.000000
vn 0.000000 1.000000 0.000000
vn 0.000000 1.000000 0.000000
vn 0.000000 1.000000 0.000000
vn -1.000000 0.000000 0.000000
vn -1.000000 0.000000 0.000000
vn -1.000000 0.000000 -0.000000
vn -1.000000 0.000000 -0.000000
vn -1.000000 0.000000 0.000000
vn -1.000000 0.000000 0.000000
vn -1.000000 0.000000 0.000000
vn -1.000000 0.000000 0.000000
vn -1.000000 -0.000000 -0.000000
vn -1.000000 -0.000000 -0.000000
vn -1.000000 -0.000000 0.000000
vn -1.000000 0.000000 -0.000000
vn -1.000000 0.000000 0.000000
vn -1.000000 0.000000 0.000000
vn -1.000000 0.000000 0.000000
vn -1.000000 0.000000 0.000000
vn -1.000000 0.000000 -0.000000
vn -1.000000 0.000000 -0.000000
vn -1.000000 0.000000 0.000000
vn -1.000000 0.000000 -0.000000
vn -1.000000 0.000000 0.000000
vn -1.000000 0.000000 0.000000
vn -1.000000 0.000000 -0.000000
vn -1.000000 0.000000 0.000000
vn -1.000000 0.000000 0.000000
vn -1.000000 -0.000000 0.000000
vn -1.000000 -0.000000 0.000000
vn -1.000000 0.000000 0.000000
vn -1.000000 -0.000000 -0.000000
vn -1.000000 -0.000000 -0.000000
vn -1.000000 -0.000000 -0.000000
vn -1.000000 -0.000000 0.000000
vn -1.000000 -0.000000 0.000000
vn -1.000000 -0.000000 0.000000
vn -1.000000 0.000000 -0.000000
vn -1.000000 0.000000 -0.000000
vn -1.000000 0.000000 0.000000
vn -1.000000 0.000000 0.000000
vn -1.000000 0.000000 0.000000
vn -1.000000 0.000000 0.000000
vn -1.000000 0.000000 0.000000
vn -1.000000 0.000000 0.000000
vn -1.000000 0.000000 0.000000
vn -1.000000 0.000000 -0.000000
vn -1.000000 0.000000 -0.000000
vn -1.000000 0.000000 0.000000
vn -1.000000 0.000000 0.000000
vn -1.000000 0.000000 0.000000
vn -1.000000 0.000000 0.000000
vn -1.000000 0.000000 -0.000000
vn -1.000000 -0.000000 -0.000000
vn -1.000000 0.000000 -0.000000
vn -1.000000 0.000000 0.000000
vn -1.000000 0.000000 -0.000000
vn -1.000000 0.000000 0.000000
vn -1.000000 0.000000 0.000000
vn -1.000000 0.000000 0.000000
vn -1.000000 0.000000 -0.000000
vn -1.000000 0.000000 0.000000
vn -1.000000 -0.000000 0.000000
vn -1.000000 0.000000 0.000000
vn -1.000000 0.000000 0.000000
vn -1.000000 -0.000000 0.000000
vn -1.000000 -0.000000 0.000000
vn -1.000000 -0.000000 -0.000000
vn -1.000000 0.000000 0.000000
vn -1.000000 -0.000000 -0.000000
vn -1.000000 0.000000 0.000000
vn -1.000000 0.000000 -0.000000
vn -1.000000 0.000000 0.000000
vn -1.000000 0.000000 0.000000
vn -1.000000 0.000000 0.000000
vn -1.000000 0.000000 0.000000
vn -1.000000 0.000000 0.000000
vn -1.000000 0.000000 0.000000
vn -1.000000 0.000000 0.000000
vn -1.000000 0.000000 0.000000
vn -1.000000 0.000000 0.000000
vn -1.000000 -0.000000 -0.000000
vn -1.000000 -0.000000 -0.000000
vn -1.000000 0.000000 -0.000000
vn -1.000000 0.000000 0.000000
vn -1.000000 0.000000 0.000000
vn -1.000000 0.000000 0.000000
vn -1.000000 0.000000 0.000000
vn -1.000000 0.000000 0.000000
vn -1.000000 0.000000 0.000000
vn -1.000000 0.000000 -0.000000
vn -1.000000 0.000000 -0.000000
vn -1.000000 0.000000 -0.000000
vn -1.000000 0.000000 -0.000000
vn -1.000000 0.000000 -0.000000
vn -1.000000 0.000000 0.000000
vn -1.000000 0.000000 0.000000
vn -1.000000 0.000000 0.000000
vn -1.000000 0.000000 0.000000
vn -1.000000 -0.000000 0.000000
vn -1.000000 -0.000000 -0.000000
vn -1.000000 -0.000000 0.000000
vn -1.000000 -0.000000 -0.000000
vn -1.000000 0.000000 0.000000
vn -1.000000 0.000000 0.000000
vn -1.000000 -0.000000 0.000000
vn -1.000000 -0.000000 -0.000000
vn -1.000000 -0.000000 0.000000
vn -1.000000 -0.000000 -0.000000
vn -1.000000 0.000000 0.000000
vn -1.000000 0.000000 0.000000
vn 0.000000 0.000000 -1.000000
vn 0.000000 0.000000 -1.000000
vn 0.000000 0.000000 -1.000000
vn 0.000000 0.000000 -1.000000
vn 0.000000 0.000000 -1.000000
vn 0.000000 0.000000 -1.000000
vn 0.000000 0.000000 -1.000000
vn 0.000000 0.000000 -1.000000
vn 0.000000 0.000000 -1.000000
vn 0.000000 0.000000 -1.000000
vn 0.000000 0.000000 -1.000000
vn 0.000000 0.000000 -1.000000
vn 0.000000 0.000000 -1.000000
vn 0.000000 0.000000 -1.000000
vn 0.000000 0.000000 -1.000000
vn 0.000000 0.000000 -1.000000
vn 1.000000 0.000000 0.000000
vn 1.000000 0.000000 0.000000
vn 1.000000 0.000000 0.000000
vn 1.000000 0.000000 0.000000
vn 1.000000 -0.000000 0.000000
vn 1.000000 0.000000 0.000000
vn 1.000000 0.000000 0.000000
vn 1.000000 0.000000 0.000000
vn 1.000000 0.000000 0.000000
vn 1.000000 0.000000 0.000000
vn 1.000000 0.000000 0.000000
vn 1.000000 0.000000 0.000000
vn 1.000000 -0.000000 0.000000
vn 1.000000 -0.000000 0.000000
vn 1.000000 -0.000000 0.000000
vn 1.000000 0.000000 0.000000
vn 1.000000 -0.000000 0.000000
vn 1.000000 0.000000 0.000000
vn 1.000000 0.000000 0.000000
vn 1.000000 0.000000 0.000000
vn 1.000000 0.000000 0.000000
vn 1.000000 0.000000 0.000000
vn 1.000000 0.000000 0.000000
vn 1.000000 0.000000 0.000000
vn 1.000000 0.000000 0.000000
vn 1.000000 0.000000 0.000000
vn 1.000000 0.000000 0.000000
vn 1.000000 0.000000 0.000000
vn 1.000000 0.000000 0.000000
vn 1.000000 0.000000 0.000000
vn 1.000000 0.000000 0.000000
vn 1.000000 0.000000 0.000000
vn 1.000000 0.000000 0.000000
vn 1.000000 0.000000 0.000000
vn 1.000000 0.000000 0.000000
vn 1.000000 0.000000 0.000000
vn 1.000000 0.000000 0.000000
vn 1.000000 0.000000 0.000000
vn 1.000000 0.000000 0.000000
vn 1.000000 0.000000 0.000000
vn 1.000000 0.000000 0.000000
vn 1.000000 0.000000 0.000000
vn 1.000000 0.000000 0.000000
vn 1.000000 -0.000000 0.000000
vn 1.000000 0.000000 0.000000
vn 1.000000 0.000000 0.000000
vn 1.000000 0.000000 0.000000
vn 1.000000 0.000000 0.000000
vn 1.000000 0.000000 0.000000
vn 1.000000 0.000000 0.000000
vn 1.000000 0.000000 0.000000
vn 1.000000 0.000000 0.000000
vn 1.000000 0.000000 0.000000
vn 1.000000 0.000000 0.000000
vn 1.000000 0.000000 0.000000
vn 1.000000 0.000000 0.000000
vn 1.000000 0.000000 0.000000
vn 1.000000 0.000000 0.000000
vn 1.000000 0.000000 0.000000
vn 1.000000 0.000000 0.000000
vn 1.000000 0.000000 0.000000
vn 1.000000 0.000000 0.000000
vn 1.000000 0.000000 0.000000
vn 1.000000 0.000000 0.000000
vn 1.000000 0.000000 0.000000
vn 1.000000 0.000000 0.000000
vn 1.000000 -0.000000 0.000000
vn 1.000000 -0.000000 0.000000
vn 1.000000 0.000000 0.000000
vn 1.000000 0.000000 0.000000
vn 1.000000 0.000000 0.000000
vn 1.000000 0.000000 0.000000
vn 1.000000 0.000000 0.000000
vn 1.000000 0.000000 0.000000
vn 1.000000 0.000000 0.000000
vn 1.000000 0.000000 0.000000
vn 1.000000 0.000000 0.000000
vn 1.000000 0.000000 0.000000
vn 1.000000 0.000000 0.000000
vn 1.000000 0.000000 0.000000
vn 1.000000 0.000000 0.000000
vn 1.000000 0.000000 0.000000
vn 1.000000 0.000000 0.000000
vn 1.000000 0.000000 0.000000
vn 1.000000 0.000000 0.000000
vn 1.000000 0.000000 0.000000
vn 1.000000 0.000000 0.000000
vn 1.000000 -0.000000 0.000000
vn 1.000000 0.000000 0.000000
vn 1.000000 -0.000000 0.000000
vn 1.000000 0.000000 0.000000
vn 1.000000 0.000000 0.000000
vn 1.000000 0.000000 0.000000
vn 1.000000 0.000000 0.000000
vn 1.000000 -0.000000 0.000000
vn 1.000000 0.000000 0.000000
vn 1.000000 0.000000 0.000000
vn 1.000000 0.000000 0.000000
vn 1.000000 0.000000 0.000000
vn 1.000000 0.000000 0.000000
vn 1.000000 -0.000000 0.000000
vn 1.000000 0.000000 0.000000
vn 1.000000 -0.000000 0.000000
vn 1.000000 -0.000000 0.000000
vn 1.000000 0.000000 0.000000
vn 1.000000 0.000000 0.000000
vn 1.000000 0.000000 0.000000
vn 1.000000 0.000000 0.000000
vn 1.000000 0.000000 0.000000
vn 1.000000 -0.000000 0.000000
vn 1.000000 0.000000 0.000000
vn 1.000000 -0.000000 0.000000
vn 1.000000 -0.000000 0.000000
vn 1.000000 0.000000 0.000000
vn 1.000000 -0.000000 0.000000
vn 1.000000 0.000000 0.000000
vn 1.000000 0.000000 0.000000
vn 1.000000 0.000000 0.000000
vn 1.000000 0.000000 0.000000
vn 1.000000 0.000000 0.000000
vn 1.000000 0.000000 0.000000
vn 1.000000 -0.000000 0.000000
vn 1.000000 -0.000000 0.000000
vn 1.000000 -0.000000 0.000000
vn 1.000000 -0.000000 0.000000
vn 1.000000 0.000000 0.000000
vn 1.000000 0.000000 0.000000
vn 1.000000 0.000000 0.000000
vn 1.000000 0.000000 0.000000
vn 0.000000 1.000000 0.000000
vn 0.000000 1.000000 0.000000
vn 0.000000 1.000000 0.000000
vn 0.000000 1.000000 0.000000
vn 0.000000 0.000000 1.000000
vn 0.000000 0.000000 1.000000
vn -0.000000 0.000000 1.000000
vn -0.000000 0.000000 1.000000
vn -0.000001 -0.000000 1.000000
vn -0.000001 -0.000000 1.000000
vn 0.000000 0.000000 1.000000
vn 0.000000 0.000000 1.000000
vn 0.000000 0.000000 1.000000
vn 0.000000 0.000000 1.000000
vn -0.000001 -0.000000 1.000000
vn -0.000001 -0.000000 1.000000
vn -0.000000 0.000000 1.000000
vn -0.000000 0.000000 1.000000
vn 0.000000 0.000000 1.000000
vn 0.000000 0.000000 1.000000
vn 0.000000 -1.000000 -0.000000
vn 0.000000 -1.000000 -0.000000
vn -0.000000 -1.000000 0.000000
vn -0.000000 -1.000000 0.000000
vn -0.000000 -1.000000 0.000000
vn -0.000000 -1.000000 0.000000
vn 0.000000 -1.000000 0.000000
vn 0.000000 -1.000000 0.000000
vn 0.000000 -1.000000 -0.000000
vn 0.000000 -1.000000 -0.000000
vn 0.000000 -1.000000 0.000000
vn 0.000000 -1.000000 0.000000
vn 0.000000 -1.000000 -0.000000
vn 0.000000 -1.000000 -0.000000
vn 0.000000 -1.000000 0.000000
vn 0.000000 -1.000000 0.000000
s 1
g SubDivWall:BasicWall
usemtl SubDivWall:ProBuilderDefault
f 67/121/1 36/67/2 37/69/3 66/119/4
s 2
f 26/51/5 70/127/6 71/129/7 25/49/8
s 3
f 154/240/9 76/137/10 77/138/11 135/221/12
s 4
f 90/155/13 131/217/14 89/154/15 10/13/16
s 5
f 103/181/17 119/205/18 118/204/19 102/179/20
s 6
f 76/137/21 177/263/22 178/264/23 77/138/24
s 7
f 9/16/25 93/162/26 41/77/27 13/19/28
s 8
f 105/186/29 45/85/30 14/18/31 10/17/32
s 9
f 13/22/33 41/78/34 186/272/35 57/101/36
s 10
f 16/25/37 53/94/38 219/305/39 61/109/40
s 11
f 17/24/41 19/41/42 214/300/43 215/301/44 27/53/45
s 12
f 14/23/46 45/86/47 182/268/48 46/87/49
s 13
f 113/198/50 114/200/51 18/31/52 12/33/53
s 14
f 15/35/54 11/34/55 101/178/56 62/112/57
s 15
f 94/164/58 57/102/59 56/100/60 95/166/61
s 16
f 1/40/62 3/39/63 85/150/64 58/104/65
s 4
f 131/217/14 132/218/66 88/153/67 89/154/15
s 5
f 119/205/18 120/206/68 117/203/69 118/204/19
s 4
f 8/8/70 86/151/71 134/220/72 78/139/73
s 5
f 109/190/74 115/201/75 122/208/76 108/189/77
f 120/206/68 121/207/78 116/202/79 117/203/69
s 4
f 132/218/66 133/219/80 87/152/81 88/153/67
s 5
f 121/207/78 122/208/76 115/201/75 116/202/79
s 4
f 133/219/80 134/220/72 86/151/71 87/152/81
s 6
f 77/138/24 178/264/23 106/187/82 8/8/83
s 3
f 78/139/84 135/221/12 77/138/11 8/8/85
s 13
f 111/194/86 32/60/87 31/58/88 112/196/89
f 112/196/89 31/58/88 114/200/51 113/198/50
s 14
f 65/118/90 98/172/91 12/33/92 18/31/93
f 64/116/94 99/174/95 98/172/91 65/118/90
f 63/114/96 100/176/97 99/174/95 64/116/94
f 62/112/57 101/178/56 100/176/97 63/114/96
s 5
f 12/11/98 98/171/99 115/201/75 109/190/74
f 116/202/79 115/201/75 98/171/99 99/173/100
f 117/203/69 116/202/79 99/173/100 100/175/101
f 118/204/19 117/203/69 100/175/101 101/177/102
f 102/179/20 118/204/19 101/177/102 11/15/103
f 104/183/104 123/209/105 119/205/18 103/181/17
f 123/209/105 124/210/106 120/206/68 119/205/18
f 124/210/106 125/211/107 121/207/78 120/206/68
f 125/211/107 126/212/108 122/208/76 121/207/78
f 108/189/77 122/208/76 126/212/108 107/188/109
f 89/154/110 130/216/111 105/185/112 10/13/113
f 88/153/114 129/215/115 130/216/111 89/154/110
f 87/152/116 128/214/117 129/215/115 88/153/114
f 86/151/118 127/213/119 128/214/117 87/152/116
f 106/187/120 127/213/119 86/151/118 8/8/121
f 107/188/109 126/212/108 127/213/119 106/187/120
f 128/214/117 127/213/119 126/212/108 125/211/107
f 129/215/115 128/214/117 125/211/107 124/210/106
f 130/216/111 129/215/115 124/210/106 123/209/105
f 105/185/112 130/216/111 123/209/105 104/183/104
s 4
f 92/159/122 141/227/123 140/226/124 91/157/125
f 141/227/123 142/228/126 139/225/127 140/226/124
f 142/228/126 143/229/128 138/224/129 139/225/127
f 143/229/128 144/230/130 137/223/131 138/224/129
f 79/140/132 137/223/131 144/230/130 80/141/133
s 3
f 80/141/134 145/231/135 136/222/136 79/140/137
f 152/238/138 153/239/139 136/222/136 145/231/135
f 153/239/139 154/240/9 135/221/12 136/222/136
f 79/140/137 136/222/136 135/221/12 78/139/84
s 4
f 78/139/73 134/220/72 137/223/131 79/140/132
f 138/224/129 137/223/131 134/220/72 133/219/80
f 139/225/127 138/224/129 133/219/80 132/218/66
f 140/226/124 139/225/127 132/218/66 131/217/14
f 91/157/125 140/226/124 131/217/14 90/155/13
f 93/161/140 146/232/141 141/227/123 92/159/122
f 146/232/141 147/233/142 142/228/126 141/227/123
f 147/233/142 148/234/143 143/229/128 142/228/126
f 148/234/143 149/235/144 144/230/130 143/229/128
f 80/141/133 144/230/130 149/235/144 81/142/145
s 3
f 81/142/146 150/236/147 145/231/135 80/141/134
f 151/237/148 152/238/138 145/231/135 150/236/147
s 4
f 94/163/149 146/232/141 93/161/140 9/14/150
f 95/165/151 147/233/142 146/232/141 94/163/149
f 96/167/152 148/234/143 147/233/142 95/165/151
f 97/169/153 149/235/144 148/234/143 96/167/152
f 81/142/145 149/235/144 97/169/153 7/9/154
s 3
f 82/143/155 150/236/147 81/142/146 7/9/156
f 83/145/157 151/237/148 150/236/147 82/143/155
f 85/149/158 159/245/159 158/244/160 84/147/161
f 159/245/159 160/246/162 157/243/163 158/244/160
f 160/246/162 161/247/164 156/242/165 157/243/163
f 161/247/164 162/248/166 155/241/167 156/242/165
f 162/248/166 74/135/168 75/136/169 155/241/167
s 6
f 74/135/170 175/261/171 176/262/172 75/136/173
f 75/136/173 176/262/172 177/263/22 76/137/21
s 3
f 155/241/167 75/136/169 76/137/10 154/240/9
f 156/242/165 155/241/167 154/240/9 153/239/139
f 157/243/163 156/242/165 153/239/139 152/238/138
f 158/244/160 157/243/163 152/238/138 151/237/148
f 84/147/161 158/244/160 151/237/148 83/145/157
f 69/126/174 159/245/159 85/149/158 3/10/175
f 68/124/176 160/246/162 159/245/159 69/126/174
f 67/122/177 161/247/164 160/246/162 68/124/176
f 66/120/178 162/248/166 161/247/164 67/122/177
f 4/7/179 74/135/168 162/248/166 66/120/178
s 6
f 73/134/180 175/261/171 74/135/170 4/7/181
f 5/12/182 110/191/183 163/249/184 70/128/185
f 164/250/186 163/249/184 110/191/183 111/193/187
f 165/251/188 164/250/186 111/193/187 112/195/189
f 166/252/190 165/251/188 112/195/189 113/197/191
f 109/190/192 166/252/190 113/197/191 12/11/193
f 70/128/185 163/249/184 167/253/194 71/130/195
f 168/254/196 167/253/194 163/249/184 164/250/186
f 169/255/197 168/254/196 164/250/186 165/251/188
f 170/256/198 169/255/197 165/251/188 166/252/190
f 108/189/199 170/256/198 166/252/190 109/190/192
f 71/130/195 167/253/194 171/257/200 72/132/201
f 172/258/202 171/257/200 167/253/194 168/254/196
f 173/259/203 172/258/202 168/254/196 169/255/197
f 174/260/204 173/259/203 169/255/197 170/256/198
f 107/188/205 174/260/204 170/256/198 108/189/199
f 72/132/201 171/257/200 175/261/171 73/134/180
f 176/262/172 175/261/171 171/257/200 172/258/202
f 177/263/22 176/262/172 172/258/202 173/259/203
f 178/264/23 177/263/22 173/259/203 174/260/204
f 106/187/82 178/264/23 174/260/204 107/188/205
s 8
f 104/184/206 44/83/207 45/85/30 105/186/29
f 103/182/208 43/81/209 44/83/207 104/184/206
f 102/180/210 42/79/211 43/81/209 103/182/208
f 15/20/212 42/79/211 102/180/210 11/21/213
s 7
f 38/71/214 90/156/215 10/17/216 14/18/217
f 39/73/218 91/158/219 90/156/215 38/71/214
f 40/75/220 92/160/221 91/158/219 39/73/218
f 41/77/27 93/162/26 92/160/221 40/75/220
s 9
f 184/270/222 185/271/223 40/76/224 39/74/225
s 10
f 217/303/226 218/304/227 52/93/228 51/92/229
f 218/304/227 219/305/39 53/94/38 52/93/228
s 9
f 185/271/223 186/272/35 41/78/34 40/76/224
f 46/87/230 183/269/231 38/72/232 14/23/233
s 10
f 215/301/234 216/302/235 50/91/236 17/24/237 27/53/238
f 216/302/235 217/303/226 51/92/229 50/91/236
s 9
f 183/269/231 184/270/222 39/74/225 38/72/232
s 12
f 180/266/239 181/267/240 44/84/241 43/82/242
s 11
f 212/298/243 213/299/244 20/42/245 21/43/246
f 213/299/244 214/300/43 19/41/42 20/42/245
s 12
f 181/267/240 182/268/48 45/86/47 44/84/241
f 62/111/247 179/265/248 42/80/249 15/30/250
s 11
f 114/199/251 211/297/252 22/44/253 18/28/254
f 211/297/252 212/298/243 21/43/246 22/44/253
s 12
f 179/265/248 180/266/239 43/82/242 42/80/249
f 63/113/255 187/273/256 179/265/248 62/111/247
f 187/273/256 188/274/257 180/266/239 179/265/248
f 188/274/257 189/275/258 181/267/240 180/266/239
f 189/275/258 190/276/259 182/268/48 181/267/240
f 46/87/49 182/268/48 190/276/259 47/88/260
s 9
f 47/88/261 191/277/262 183/269/231 46/87/230
f 191/277/262 192/278/263 184/270/222 183/269/231
f 192/278/263 193/279/264 185/271/223 184/270/222
f 193/279/264 194/280/265 186/272/35 185/271/223
f 57/101/36 186/272/35 194/280/265 56/99/266
s 12
f 65/117/267 203/289/268 202/288/269 64/115/270
f 203/289/268 204/290/271 201/287/272 202/288/269
f 204/290/271 205/291/273 200/286/274 201/287/272
f 205/291/273 206/292/275 199/285/276 200/286/274
f 48/89/277 199/285/276 206/292/275 49/90/278
s 9
f 49/90/279 207/293/280 198/284/281 48/89/282
f 207/293/280 208/294/283 197/283/284 198/284/281
f 208/294/283 209/295/285 196/282/286 197/283/284
f 209/295/285 210/296/287 195/281/288 196/282/286
f 55/97/289 195/281/288 210/296/287 54/95/290
f 56/99/266 194/280/265 195/281/288 55/97/289
f 196/282/286 195/281/288 194/280/265 193/279/264
f 197/283/284 196/282/286 193/279/264 192/278/263
f 198/284/281 197/283/284 192/278/263 191/277/262
f 48/89/282 198/284/281 191/277/262 47/88/261
s 12
f 47/88/260 190/276/259 199/285/276 48/89/277
f 200/286/274 199/285/276 190/276/259 189/275/258
f 201/287/272 200/286/274 189/275/258 188/274/257
f 202/288/269 201/287/272 188/274/257 187/273/256
f 64/115/270 202/288/269 187/273/256 63/113/255
f 22/44/291 203/289/268 65/117/267 18/28/292
f 21/43/293 204/290/271 203/289/268 22/44/291
f 20/42/294 205/291/273 204/290/271 21/43/293
f 19/41/295 206/292/275 205/291/273 20/42/294
f 49/90/278 206/292/275 19/41/295 17/24/296
s 9
f 50/91/297 207/293/280 49/90/279 17/24/298
f 51/92/299 208/294/283 207/293/280 50/91/297
f 52/93/300 209/295/285 208/294/283 51/92/299
f 53/94/301 210/296/287 209/295/285 52/93/300
f 54/95/290 210/296/287 53/94/301 16/25/302
s 11
f 32/59/303 228/314/304 227/313/305 31/57/306
f 228/314/304 229/315/307 226/312/308 227/313/305
f 229/315/307 230/316/309 225/311/310 226/312/308
f 230/316/309 231/317/311 224/310/312 225/311/310
f 28/54/313 224/310/312 231/317/311 29/55/314
s 10
f 29/55/315 232/318/316 223/309/317 28/54/318
f 232/318/316 233/319/319 222/308/320 223/309/317
f 233/319/319 234/320/321 221/307/322 222/308/320
f 234/320/321 235/321/323 220/306/324 221/307/322
f 60/107/325 220/306/324 235/321/323 59/105/326
f 61/109/40 219/305/39 220/306/324 60/107/325
f 221/307/322 220/306/324 219/305/39 218/304/227
f 222/308/320 221/307/322 218/304/227 217/303/226
f 223/309/317 222/308/320 217/303/226 216/302/235
f 28/54/318 223/309/317 216/302/235 215/301/234
s 11
f 215/301/44 214/300/43 224/310/312 28/54/313
f 225/311/310 224/310/312 214/300/43 213/299/244
f 226/312/308 225/311/310 213/299/244 212/298/243
f 227/313/305 226/312/308 212/298/243 211/297/252
f 31/57/306 227/313/305 211/297/252 114/199/251
f 26/52/327 243/329/328 33/61/329 6/29/330
f 25/50/331 242/328/332 243/329/328 26/52/327
f 24/48/333 241/327/334 242/328/332 25/50/331
f 23/46/335 240/326/336 241/327/334 24/48/333
f 30/56/337 240/326/336 23/46/335 2/26/338
s 10
f 37/70/339 239/325/340 30/56/341 2/26/342
f 36/68/343 238/324/344 239/325/340 37/70/339
f 35/66/345 237/323/346 238/324/344 36/68/343
f 34/64/347 236/322/348 237/323/346 35/66/345
f 58/103/349 236/322/348 34/64/347 1/27/350
f 59/105/326 235/321/323 236/322/348 58/103/349
f 237/323/346 236/322/348 235/321/323 234/320/321
f 238/324/344 237/323/346 234/320/321 233/319/319
f 239/325/340 238/324/344 233/319/319 232/318/316
f 30/56/341 239/325/340 232/318/316 29/55/315
s 11
f 29/55/314 231/317/311 240/326/336 30/56/337
f 241/327/334 240/326/336 231/317/311 230/316/309
f 242/328/332 241/327/334 230/316/309 229/315/307
f 243/329/328 242/328/332 229/315/307 228/314/304
f 33/61/329 243/329/328 228/314/304 32/59/303
s 13
f 5/32/351 6/29/352 33/62/353 110/192/354
f 110/192/354 33/62/353 32/60/87 111/194/86
s 2
f 5/5/355 70/127/6 26/51/5 6/6/356
f 25/49/8 71/129/7 72/131/357 24/47/358
f 23/45/359 73/133/360 4/3/361 2/1/362
f 24/47/358 72/131/357 73/133/360 23/45/359
s 1
f 66/119/4 37/69/3 2/1/363 4/3/364
f 69/125/365 34/63/366 35/65/367 68/123/368
f 68/123/368 35/65/367 36/67/2 67/121/1
f 1/2/369 34/63/366 69/125/365 3/4/370
s 16
f 58/104/65 85/150/64 84/148/371 59/106/372
f 60/108/373 83/146/374 82/144/375 61/110/376
f 59/106/372 84/148/371 83/146/374 60/108/373
f 61/110/376 82/144/375 7/38/377 16/37/378
s 15
f 97/170/379 54/96/380 16/37/381 7/38/382
f 96/168/383 55/98/384 54/96/380 97/170/379
f 95/166/61 56/100/60 55/98/384 96/168/383
f 9/14/385 13/36/386 57/102/59 94/164/58
