# This file uses centimeters as units for non-parametric coordinates.

mtllib BaseFloor.mtl
g default
v 0.000444 0.035000 9.995180
v -4.999557 0.035000 9.995180
v -9.999557 0.035000 9.995180
v -9.999557 1.035000 9.995180
v -4.999557 1.035000 9.995180
v 0.000444 1.035000 9.995180
v -9.999557 0.035000 4.995180
v -9.999557 0.035000 -0.004821
v -9.999557 1.035000 -0.004821
v -9.999557 1.035000 4.995180
v -4.999557 0.035000 -0.004821
v 0.000444 0.035000 -0.004821
v 0.000444 1.035000 -0.004821
v -4.999557 1.035000 -0.004821
v 0.000444 0.035000 4.995180
v 0.000444 1.035000 4.995180
v -4.999557 1.035000 4.995180
v -4.999557 0.035000 4.995180
v -9.999557 0.035000 5.995180
v -9.999557 1.035000 5.995180
v -4.999557 1.035000 5.995180
v 0.000444 1.035000 5.995180
v 0.000444 0.035000 5.995180
v -4.999557 0.035000 5.995180
v -9.999557 0.035000 6.995180
v -9.999557 1.035000 6.995180
v -4.999557 1.035000 6.995180
v 0.000444 1.035000 6.995180
v 0.000444 0.035000 6.995180
v -4.999557 0.035000 6.995180
v -9.999557 0.035000 7.995179
v -9.999557 1.035000 7.995179
v -4.999557 1.035000 7.995179
v 0.000444 1.035000 7.995179
v 0.000444 0.035000 7.995179
v -4.999557 0.035000 7.995179
v -9.999557 0.035000 8.995179
v -9.999557 1.035000 8.995180
v -4.999557 1.035000 8.995179
v 0.000444 1.035000 8.995179
v 0.000444 0.035000 8.995180
v -4.999557 0.035000 8.995179
v -3.999557 0.035000 9.995180
v -3.999557 1.035000 9.995180
v -3.999557 1.035000 8.995179
v -3.999557 1.035000 7.995179
v -3.999557 1.035000 6.995180
v -3.999557 1.035000 5.995180
v -3.999557 1.035000 4.995180
v -3.999557 1.035000 -0.004821
v -3.999557 0.035000 -0.004821
v -3.999557 0.035000 4.995180
v -3.999557 0.035000 5.995180
v -3.999557 0.035000 6.995180
v -3.999557 0.035000 7.995179
v -3.999557 0.035000 8.995179
v -2.999557 0.035000 9.995180
v -2.999557 1.035000 9.995180
v -2.999557 1.035000 8.995179
v -2.999557 1.035000 7.995179
v -2.999557 1.035000 6.995180
v -2.999557 1.035000 5.995180
v -2.999557 1.035000 4.995180
v -2.999557 1.035000 -0.004821
v -2.999557 0.035000 -0.004821
v -2.999557 0.035000 4.995180
v -2.999557 0.035000 5.995180
v -2.999557 0.035000 6.995180
v -2.999557 0.035000 7.995179
v -2.999557 0.035000 8.995180
v -1.999558 0.035000 9.995180
v -1.999558 1.035000 9.995180
v -1.999557 1.035000 8.995179
v -1.999557 1.035000 7.995178
v -1.999558 1.035000 6.995180
v -1.999558 1.035000 5.995180
v -1.999558 1.035000 4.995180
v -1.999558 1.035000 -0.004821
v -1.999558 0.035000 -0.004821
v -1.999558 0.035000 4.995180
v -1.999558 0.035000 5.995180
v -1.999558 0.035000 6.995180
v -1.999557 0.035000 7.995179
v -1.999557 0.035000 8.995180
v -0.999557 0.035000 9.995180
v -0.999557 1.035000 9.995180
v -0.999557 1.035000 8.995179
v -0.999557 1.035000 7.995178
v -0.999557 1.035000 6.995180
v -0.999557 1.035000 5.995180
v -0.999557 1.035000 4.995180
v -0.999557 1.035000 -0.004821
v -0.999557 0.035000 -0.004821
v -0.999557 0.035000 4.995180
v -0.999557 0.035000 5.995180
v -0.999557 0.035000 6.995180
v -0.999557 0.035000 7.995179
v -0.999557 0.035000 8.995180
v -8.999557 0.035000 9.995180
v -8.999557 1.035000 9.995180
v -8.999557 1.035000 8.995180
v -8.999557 1.035000 7.995179
v -8.999557 1.035000 6.995180
v -8.999557 1.035000 5.995180
v -8.999557 1.035000 4.995180
v -8.999557 1.035000 -0.004821
v -8.999557 0.035000 -0.004821
v -8.999557 0.035000 4.995180
v -8.999557 0.035000 5.995180
v -8.999557 0.035000 6.995180
v -8.999557 0.035000 7.995179
v -8.999557 0.035000 8.995179
v -7.999557 0.035000 9.995180
v -7.999557 1.035000 9.995180
v -7.999557 1.035000 8.995180
v -7.999557 1.035000 7.995179
v -7.999557 1.035000 6.995180
v -7.999557 1.035000 5.995180
v -7.999557 1.035000 4.995180
v -7.999557 1.035000 -0.004821
v -7.999557 0.035000 -0.004821
v -7.999557 0.035000 4.995180
v -7.999557 0.035000 5.995180
v -7.999557 0.035000 6.995180
v -7.999557 0.035000 7.995179
v -7.999557 0.035000 8.995179
v -6.999557 0.035000 9.995180
v -6.999557 1.035000 9.995180
v -6.999557 1.035000 8.995179
v -6.999557 1.035000 7.995179
v -6.999557 1.035000 6.995180
v -6.999557 1.035000 5.995180
v -6.999557 1.035000 4.995180
v -6.999557 1.035000 -0.004821
v -6.999557 0.035000 -0.004821
v -6.999557 0.035000 4.995180
v -6.999557 0.035000 5.995180
v -6.999557 0.035000 6.995180
v -6.999557 0.035000 7.995178
v -6.999557 0.035000 8.995179
v -5.999557 0.035000 9.995180
v -5.999557 1.035000 9.995180
v -5.999557 1.035000 8.995179
v -5.999557 1.035000 7.995179
v -5.999557 1.035000 6.995180
v -5.999557 1.035000 5.995180
v -5.999557 1.035000 4.995180
v -5.999557 1.035000 -0.004821
v -5.999557 0.035000 -0.004821
v -5.999557 0.035000 4.995180
v -5.999557 0.035000 5.995180
v -5.999557 0.035000 6.995180
v -5.999557 0.035000 7.995178
v -5.999557 0.035000 8.995179
v -9.999557 0.035000 0.995180
v -9.999557 1.035000 0.995179
v -8.999557 1.035000 0.995179
v -7.999557 1.035000 0.995179
v -6.999557 1.035000 0.995179
v -5.999557 1.035000 0.995179
v -4.999557 1.035000 0.995179
v -3.999557 1.035000 0.995179
v -2.999557 1.035000 0.995179
v -1.999558 1.035000 0.995179
v -0.999557 1.035000 0.995179
v 0.000444 1.035000 0.995180
v 0.000444 0.035000 0.995179
v -0.999557 0.035000 0.995180
v -1.999558 0.035000 0.995180
v -2.999557 0.035000 0.995180
v -3.999557 0.035000 0.995180
v -4.999557 0.035000 0.995179
v -5.999557 0.035000 0.995180
v -6.999557 0.035000 0.995180
v -7.999557 0.035000 0.995180
v -8.999557 0.035000 0.995180
v -9.999557 0.035000 1.995180
v -9.999557 1.035000 1.995180
v -8.999557 1.035000 1.995180
v -7.999557 1.035000 1.995180
v -6.999557 1.035000 1.995180
v -5.999557 1.035000 1.995180
v -4.999557 1.035000 1.995180
v -3.999557 1.035000 1.995180
v -2.999557 1.035000 1.995180
v -1.999558 1.035000 1.995180
v -0.999557 1.035000 1.995180
v 0.000444 1.035000 1.995180
v 0.000444 0.035000 1.995180
v -0.999557 0.035000 1.995180
v -1.999558 0.035000 1.995180
v -2.999557 0.035000 1.995180
v -3.999557 0.035000 1.995180
v -4.999557 0.035000 1.995180
v -5.999557 0.035000 1.995180
v -6.999557 0.035000 1.995180
v -7.999557 0.035000 1.995180
v -8.999557 0.035000 1.995180
v -9.999557 0.035000 2.995179
v -9.999557 1.035000 2.995179
v -8.999557 1.035000 2.995179
v -7.999557 1.035000 2.995179
v -6.999557 1.035000 2.995179
v -5.999557 1.035000 2.995179
v -4.999557 1.035000 2.995179
v -3.999557 1.035000 2.995179
v -2.999557 1.035000 2.995179
v -1.999558 1.035000 2.995179
v -0.999557 1.035000 2.995179
v 0.000444 1.035000 2.995179
v 0.000444 0.035000 2.995179
v -0.999557 0.035000 2.995179
v -1.999557 0.035000 2.995179
v -2.999557 0.035000 2.995179
v -3.999557 0.035000 2.995179
v -4.999557 0.035000 2.995179
v -5.999557 0.035000 2.995179
v -6.999557 0.035000 2.995179
v -7.999557 0.035000 2.995179
v -8.999557 0.035000 2.995179
v -9.999557 0.035000 3.995179
v -9.999557 1.035000 3.995180
v -8.999557 1.035000 3.995180
v -7.999557 1.035000 3.995180
v -6.999557 1.035000 3.995180
v -5.999557 1.035000 3.995180
v -4.999557 1.035000 3.995180
v -3.999557 1.035000 3.995180
v -2.999557 1.035000 3.995180
v -1.999558 1.035000 3.995180
v -0.999557 1.035000 3.995180
v 0.000444 1.035000 3.995179
v 0.000444 0.035000 3.995180
v -0.999557 0.035000 3.995179
v -1.999557 0.035000 3.995179
v -2.999557 0.035000 3.995179
v -3.999557 0.035000 3.995179
v -4.999557 0.035000 3.995180
v -5.999557 0.035000 3.995179
v -6.999557 0.035000 3.995179
v -7.999557 0.035000 3.995179
v -8.999557 0.035000 3.995179
vt 5.000000 0.000000
vt 10.000000 0.000000
vt 0.000000 0.000000
vt 5.000000 1.000000
vt 0.000000 1.000000
vt 10.000000 1.000000
vt 0.000000 -4.000000
vt 5.000000 -4.000000
vt 10.000000 -4.000000
vt 5.000000 -9.000000
vt 10.000000 -9.000000
vt 0.000000 -9.000000
vt 5.000000 0.000000
vt 10.000000 0.000000
vt 0.000000 0.000000
vt 0.000000 1.000000
vt 5.000000 1.000000
vt 10.000000 1.000000
vt 10.000000 0.000000
vt 5.000000 0.000000
vt 0.000000 0.000000
vt 5.000000 1.000000
vt 0.000000 1.000000
vt 10.000000 1.000000
vt 10.000000 0.000000
vt 5.000000 0.000000
vt 0.000000 0.000000
vt 5.000000 1.000000
vt 0.000000 1.000000
vt 10.000000 1.000000
vt 10.000000 -9.000000
vt 10.000000 -4.000000
vt 5.000000 -4.000000
vt 5.000000 -9.000000
vt 0.000000 -4.000000
vt 0.000000 -9.000000
vt 5.000000 1.000000
vt 0.000000 1.000000
vt 10.000000 1.000000
vt 6.000000 0.000000
vt 0.000000 -3.000000
vt 6.000000 1.000000
vt 10.000000 -3.000000
vt 5.000000 -3.000000
vt 4.000000 1.000000
vt 0.000000 -3.000000
vt 4.000000 0.000000
vt 10.000000 -3.000000
vt 5.000000 -3.000000
vt 7.000000 0.000000
vt 0.000000 -2.000000
vt 7.000000 1.000000
vt 10.000000 -2.000000
vt 5.000000 -2.000000
vt 3.000000 1.000000
vt 0.000000 -2.000000
vt 3.000000 0.000000
vt 10.000000 -2.000000
vt 5.000000 -2.000000
vt 7.999999 0.000000
vt 0.000000 -1.000001
vt 7.999999 1.000000
vt 10.000000 -1.000001
vt 5.000000 -1.000001
vt 2.000001 1.000000
vt 0.000000 -1.000001
vt 2.000001 0.000000
vt 10.000000 -1.000001
vt 5.000000 -1.000001
vt 9.000000 0.000000
vt 0.000000 -0.000000
vt 9.000000 1.000000
vt 10.000000 -0.000000
vt 5.000000 -0.000000
vt 1.000000 1.000000
vt 0.000000 -0.000000
vt 1.000000 0.000000
vt 10.000000 -0.000000
vt 5.000000 -0.000000
vt 6.000000 0.000000
vt 6.000000 1.000000
vt 6.000000 1.000000
vt 4.000000 1.000000
vt 4.000000 -0.000000
vt 4.000000 -1.000001
vt 4.000000 -2.000000
vt 4.000000 -3.000000
vt 4.000000 -4.000000
vt 4.000000 1.000000
vt 4.000000 -9.000000
vt 4.000000 0.000000
vt 6.000000 -9.000000
vt 6.000000 -4.000000
vt 6.000000 -3.000000
vt 6.000000 -2.000000
vt 6.000000 -1.000001
vt 6.000000 -0.000000
vt 7.000000 0.000000
vt 7.000000 1.000000
vt 7.000000 1.000000
vt 3.000000 1.000000
vt 3.000000 -0.000000
vt 3.000000 -1.000001
vt 3.000000 -2.000000
vt 3.000000 -3.000000
vt 3.000000 -4.000000
vt 3.000000 1.000000
vt 3.000000 -9.000000
vt 3.000000 0.000000
vt 7.000000 -9.000000
vt 7.000000 -4.000000
vt 7.000000 -3.000000
vt 7.000000 -2.000000
vt 7.000000 -1.000001
vt 7.000000 -0.000000
vt 7.999999 0.000000
vt 7.999999 1.000000
vt 7.999999 1.000000
vt 2.000001 1.000000
vt 2.000001 -0.000000
vt 2.000001 -1.000001
vt 2.000001 -2.000000
vt 2.000001 -3.000000
vt 2.000001 -4.000000
vt 2.000001 1.000000
vt 2.000001 -9.000000
vt 2.000001 0.000000
vt 7.999999 -9.000000
vt 7.999999 -4.000000
vt 7.999999 -3.000000
vt 7.999999 -2.000000
vt 7.999999 -1.000001
vt 7.999999 -0.000000
vt 9.000000 0.000000
vt 9.000000 1.000000
vt 9.000000 1.000000
vt 1.000000 1.000000
vt 1.000000 -0.000000
vt 1.000000 -1.000001
vt 1.000000 -2.000000
vt 1.000000 -3.000000
vt 1.000000 -4.000000
vt 1.000000 1.000000
vt 1.000000 -9.000000
vt 1.000000 0.000000
vt 9.000000 -9.000000
vt 9.000000 -4.000000
vt 9.000000 -3.000000
vt 9.000000 -2.000000
vt 9.000000 -1.000001
vt 9.000000 -0.000000
vt 1.000000 0.000000
vt 1.000000 1.000000
vt 1.000000 1.000000
vt 9.000000 1.000000
vt 9.000000 -0.000000
vt 9.000000 -1.000001
vt 9.000000 -2.000000
vt 9.000000 -3.000000
vt 9.000000 -4.000000
vt 9.000000 1.000000
vt 9.000000 -9.000000
vt 9.000000 0.000000
vt 1.000000 -9.000000
vt 1.000000 -4.000000
vt 1.000000 -3.000000
vt 1.000000 -2.000000
vt 1.000000 -1.000001
vt 1.000000 -0.000000
vt 2.000000 0.000000
vt 2.000000 1.000000
vt 2.000000 1.000000
vt 8.000000 1.000000
vt 8.000000 -0.000000
vt 8.000000 -1.000001
vt 8.000000 -2.000000
vt 8.000000 -3.000000
vt 8.000000 -4.000000
vt 8.000000 1.000000
vt 8.000000 -9.000000
vt 8.000000 0.000000
vt 2.000000 -9.000000
vt 2.000000 -4.000000
vt 2.000000 -3.000000
vt 2.000000 -2.000000
vt 2.000000 -1.000001
vt 2.000000 -0.000000
vt 2.999999 0.000000
vt 2.999999 1.000000
vt 2.999999 1.000000
vt 7.000001 1.000000
vt 7.000001 -0.000000
vt 7.000001 -1.000001
vt 7.000001 -2.000000
vt 7.000001 -3.000000
vt 7.000001 -4.000000
vt 7.000001 1.000000
vt 7.000001 -9.000000
vt 7.000001 0.000000
vt 2.999999 -9.000000
vt 2.999999 -4.000000
vt 2.999999 -3.000000
vt 2.999999 -2.000000
vt 2.999999 -1.000001
vt 2.999999 -0.000000
vt 4.000000 0.000000
vt 4.000000 1.000000
vt 4.000000 1.000000
vt 6.000000 1.000000
vt 6.000000 -0.000000
vt 6.000000 -1.000001
vt 6.000000 -2.000000
vt 6.000000 -3.000000
vt 6.000000 -4.000000
vt 6.000000 1.000000
vt 6.000000 -9.000000
vt 6.000000 0.000000
vt 4.000000 -9.000000
vt 4.000000 -4.000000
vt 4.000000 -3.000000
vt 4.000000 -2.000000
vt 4.000000 -1.000001
vt 4.000000 -0.000000
vt 1.000000 0.000000
vt 0.000000 -8.000000
vt 1.000000 1.000000
vt 10.000000 -8.000000
vt 9.000000 -8.000000
vt 8.000000 -8.000000
vt 7.000001 -8.000000
vt 6.000001 -8.000000
vt 5.000000 -8.000000
vt 4.000000 -8.000000
vt 3.000000 -8.000000
vt 2.000001 -8.000000
vt 1.000000 -8.000000
vt 9.000000 1.000000
vt 0.000000 -8.000000
vt 9.000000 0.000000
vt 10.000000 -8.000000
vt 9.000000 -8.000000
vt 7.999999 -8.000000
vt 7.000000 -8.000000
vt 6.000000 -8.000000
vt 5.000000 -8.000000
vt 4.000000 -8.000000
vt 2.999999 -8.000000
vt 2.000000 -8.000000
vt 1.000000 -8.000000
vt 2.000000 0.000000
vt 0.000000 -7.000000
vt 2.000000 1.000000
vt 10.000000 -7.000000
vt 9.000000 -7.000000
vt 8.000000 -7.000000
vt 7.000001 -7.000000
vt 6.000001 -7.000000
vt 5.000000 -7.000000
vt 4.000000 -7.000000
vt 3.000000 -7.000000
vt 2.000001 -7.000000
vt 1.000000 -7.000000
vt 8.000000 1.000000
vt 0.000000 -7.000000
vt 8.000000 0.000000
vt 10.000000 -7.000000
vt 9.000000 -7.000000
vt 7.999999 -7.000000
vt 7.000000 -7.000000
vt 6.000000 -7.000000
vt 5.000000 -7.000000
vt 4.000000 -7.000000
vt 2.999999 -7.000000
vt 2.000000 -7.000000
vt 1.000000 -7.000000
vt 2.999999 0.000000
vt 0.000000 -6.000001
vt 2.999999 1.000000
vt 10.000000 -6.000001
vt 9.000000 -6.000001
vt 8.000000 -6.000001
vt 7.000001 -6.000001
vt 6.000000 -6.000001
vt 5.000000 -6.000001
vt 4.000000 -6.000001
vt 3.000000 -6.000001
vt 2.000001 -6.000001
vt 1.000000 -6.000001
vt 7.000001 1.000000
vt 0.000000 -6.000001
vt 7.000001 0.000000
vt 10.000000 -6.000001
vt 9.000000 -6.000001
vt 7.999999 -6.000001
vt 7.000000 -6.000001
vt 6.000000 -6.000001
vt 5.000000 -6.000001
vt 4.000000 -6.000001
vt 2.999999 -6.000001
vt 2.000000 -6.000001
vt 1.000000 -6.000001
vt 4.000000 0.000000
vt 0.000000 -5.000000
vt 4.000000 1.000000
vt 10.000000 -5.000000
vt 9.000000 -5.000000
vt 8.000000 -5.000000
vt 7.000001 -5.000000
vt 6.000000 -5.000000
vt 5.000000 -5.000000
vt 4.000000 -5.000000
vt 3.000000 -5.000000
vt 2.000001 -5.000000
vt 1.000000 -5.000000
vt 6.000000 1.000000
vt 0.000000 -5.000000
vt 6.000000 0.000000
vt 10.000000 -5.000000
vt 9.000000 -5.000000
vt 7.999999 -5.000000
vt 7.000000 -5.000000
vt 6.000000 -5.000000
vt 5.000000 -5.000000
vt 4.000000 -5.000000
vt 2.999999 -5.000000
vt 2.000000 -5.000000
vt 1.000000 -5.000000
vn 0.000000 0.000000 1.000000
vn 0.000000 0.000000 1.000000
vn 0.000000 0.000000 1.000000
vn 0.000000 0.000000 1.000000
vn 0.000000 0.000000 1.000000
vn 0.000000 0.000000 1.000000
vn 0.000000 0.000000 1.000000
vn 0.000000 0.000000 1.000000
vn -1.000000 0.000000 0.000000
vn -1.000000 0.000000 0.000000
vn -1.000000 0.000000 0.000000
vn -1.000000 0.000000 0.000000
vn -1.000000 0.000000 0.000000
vn -1.000000 0.000000 0.000000
vn -1.000000 0.000000 0.000000
vn -1.000000 0.000000 0.000000
vn 0.000000 0.000000 -1.000000
vn 0.000000 0.000000 -1.000000
vn 0.000000 0.000000 -1.000000
vn 0.000000 0.000000 -1.000000
vn 0.000000 0.000000 -1.000000
vn 0.000000 0.000000 -1.000000
vn 0.000000 0.000000 -1.000000
vn 0.000000 0.000000 -1.000000
vn 1.000000 0.000000 0.000000
vn 1.000000 -0.000000 0.000000
vn 1.000000 0.000000 0.000000
vn 1.000000 0.000000 0.000000
vn 1.000000 0.000000 0.000000
vn 1.000000 0.000000 0.000000
vn 1.000000 0.000000 0.000000
vn 1.000000 0.000000 0.000000
vn 0.000000 1.000000 0.000000
vn 0.000000 1.000000 0.000000
vn 0.000000 1.000000 0.000000
vn 0.000000 1.000000 0.000000
vn 0.000000 1.000000 0.000000
vn 0.000000 1.000000 0.000000
vn 0.000000 1.000000 0.000000
vn 0.000000 1.000000 0.000000
vn 0.000000 1.000000 0.000000
vn 0.000000 1.000000 0.000000
vn 0.000000 1.000000 0.000000
vn 0.000000 1.000000 0.000000
vn 0.000000 1.000000 0.000000
vn 0.000000 1.000000 0.000000
vn 0.000000 1.000000 0.000000
vn 0.000000 1.000000 0.000000
vn 0.000000 -1.000000 0.000000
vn 0.000000 -1.000000 0.000000
vn 0.000000 -1.000000 0.000000
vn 0.000000 -1.000000 0.000000
vn 0.000000 -1.000000 0.000000
vn 0.000000 -1.000000 0.000000
vn 0.000000 -1.000000 0.000000
vn 0.000000 -1.000000 0.000000
vn 0.000000 -1.000000 0.000000
vn 0.000000 -1.000000 0.000000
vn 0.000000 -1.000000 0.000000
vn 0.000000 -1.000000 0.000000
vn 0.000000 -1.000000 0.000000
vn 0.000000 -1.000000 0.000000
vn 0.000000 -1.000000 0.000000
vn 0.000000 -1.000000 0.000000
vn -1.000000 0.000000 0.000000
vn -1.000000 0.000000 0.000000
vn 0.000000 1.000000 0.000000
vn 0.000000 1.000000 0.000000
vn 0.000000 1.000000 -0.000000
vn 0.000000 1.000000 -0.000000
vn 1.000000 0.000000 -0.000000
vn 1.000000 0.000000 -0.000000
vn 0.000000 -1.000000 0.000000
vn 0.000000 -1.000000 0.000000
vn 0.000000 -1.000000 0.000000
vn 0.000000 -1.000000 0.000000
vn -1.000000 0.000000 0.000000
vn -1.000000 0.000000 0.000000
vn 0.000000 1.000000 0.000000
vn 0.000000 1.000000 0.000000
vn 0.000000 1.000000 -0.000000
vn 0.000000 1.000000 -0.000000
vn 1.000000 0.000000 -0.000000
vn 1.000000 0.000000 -0.000000
vn 0.000000 -1.000000 0.000000
vn 0.000000 -1.000000 0.000000
vn 0.000000 -1.000000 0.000000
vn 0.000000 -1.000000 0.000000
vn -1.000000 0.000000 0.000000
vn -1.000000 0.000000 0.000000
vn 0.000000 1.000000 0.000000
vn 0.000000 1.000000 0.000000
vn 0.000000 1.000000 0.000000
vn 0.000000 1.000000 0.000000
vn 1.000000 0.000000 0.000000
vn 1.000000 0.000000 0.000000
vn 0.000000 -1.000000 -0.000000
vn 0.000000 -1.000000 -0.000000
vn 0.000000 -1.000000 0.000000
vn 0.000000 -1.000000 0.000000
vn -1.000000 0.000000 0.000000
vn -1.000000 0.000000 0.000000
vn 0.000000 1.000000 0.000000
vn 0.000000 1.000000 0.000000
vn 0.000000 1.000000 0.000000
vn 0.000000 1.000000 0.000000
vn 1.000000 0.000000 0.000000
vn 1.000000 0.000000 0.000000
vn 0.000000 -1.000000 -0.000000
vn 0.000000 -1.000000 0.000000
vn 0.000000 -1.000000 0.000000
vn 0.000000 -1.000000 0.000000
vn 0.000000 0.000000 1.000000
vn 0.000000 0.000000 1.000000
vn 0.000000 1.000000 0.000000
vn 0.000000 1.000000 0.000000
vn 0.000000 1.000000 0.000000
vn 0.000000 1.000000 0.000000
vn 0.000000 1.000000 0.000000
vn 0.000000 1.000000 0.000000
vn 0.000000 1.000000 0.000000
vn 0.000000 1.000000 0.000000
vn 0.000000 0.000000 -1.000000
vn 0.000000 0.000000 -1.000000
vn 0.000000 -1.000000 0.000000
vn 0.000000 -1.000000 0.000000
vn 0.000000 -1.000000 0.000000
vn 0.000000 -1.000000 0.000000
vn 0.000000 -1.000000 0.000000
vn 0.000000 -1.000000 0.000000
vn 0.000000 -1.000000 0.000000
vn 0.000000 -1.000000 0.000000
vn 0.000000 0.000000 1.000000
vn 0.000000 0.000000 1.000000
vn 0.000000 1.000000 -0.000000
vn 0.000000 1.000000 -0.000000
vn 0.000000 1.000000 0.000000
vn 0.000000 1.000000 0.000000
vn 0.000000 1.000000 0.000000
vn 0.000000 1.000000 0.000000
vn 0.000000 1.000000 0.000000
vn 0.000000 1.000000 0.000000
vn 0.000000 0.000000 -1.000000
vn 0.000000 0.000000 -1.000000
vn 0.000000 -1.000000 0.000000
vn 0.000000 -1.000000 0.000000
vn 0.000000 -1.000000 0.000000
vn 0.000000 -1.000000 0.000000
vn 0.000000 -1.000000 -0.000000
vn 0.000000 -1.000000 -0.000000
vn 0.000000 -1.000000 0.000000
vn 0.000000 -1.000000 0.000000
vn 0.000000 0.000000 1.000000
vn 0.000000 0.000000 1.000000
vn 0.000000 1.000000 -0.000000
vn 0.000000 1.000000 0.000000
vn 0.000000 1.000000 -0.000000
vn 0.000000 1.000000 0.000000
vn 0.000000 1.000000 0.000000
vn 0.000000 1.000000 0.000000
vn 0.000000 1.000000 0.000000
vn 0.000000 1.000000 0.000000
vn 0.000000 0.000000 -1.000000
vn 0.000000 0.000000 -1.000000
vn 0.000000 -1.000000 0.000000
vn 0.000000 -1.000000 0.000000
vn 0.000000 -1.000000 0.000000
vn 0.000000 -1.000000 0.000000
vn 0.000000 -1.000000 0.000000
vn 0.000000 -1.000000 0.000000
vn 0.000000 -1.000000 -0.000000
vn 0.000000 -1.000000 0.000000
vn 0.000000 0.000000 1.000000
vn 0.000000 0.000000 1.000000
vn 0.000000 1.000000 0.000000
vn 0.000000 1.000000 0.000000
vn 0.000000 1.000000 -0.000000
vn 0.000000 1.000000 -0.000000
vn 0.000000 1.000000 0.000000
vn 0.000000 1.000000 0.000000
vn 0.000000 1.000000 0.000000
vn 0.000000 1.000000 0.000000
vn 0.000000 0.000000 -1.000000
vn 0.000000 0.000000 -1.000000
vn 0.000000 -1.000000 0.000000
vn 0.000000 -1.000000 0.000000
vn 0.000000 -1.000000 0.000000
vn 0.000000 -1.000000 0.000000
vn 0.000000 -1.000000 0.000000
vn 0.000000 -1.000000 0.000000
vn 0.000000 -1.000000 -0.000000
vn 0.000000 -1.000000 0.000000
vn 0.000000 0.000000 1.000000
vn 0.000000 0.000000 1.000000
vn 0.000000 1.000000 0.000000
vn 0.000000 1.000000 0.000000
vn 0.000000 1.000000 0.000000
vn 0.000000 1.000000 0.000000
vn 0.000000 1.000000 0.000000
vn 0.000000 1.000000 0.000000
vn 0.000000 1.000000 0.000000
vn 0.000000 1.000000 0.000000
vn 0.000000 0.000000 -1.000000
vn 0.000000 0.000000 -1.000000
vn 0.000000 -1.000000 0.000000
vn 0.000000 -1.000000 0.000000
vn 0.000000 -1.000000 0.000000
vn 0.000000 -1.000000 0.000000
vn 0.000000 -1.000000 0.000000
vn 0.000000 -1.000000 0.000000
vn 0.000000 -1.000000 0.000000
vn 0.000000 -1.000000 0.000000
vn 0.000000 0.000000 1.000000
vn 0.000000 0.000000 1.000000
vn 0.000000 1.000000 0.000000
vn 0.000000 1.000000 0.000000
vn 0.000000 1.000000 0.000000
vn 0.000000 1.000000 0.000000
vn 0.000000 1.000000 0.000000
vn 0.000000 1.000000 0.000000
vn 0.000000 1.000000 0.000000
vn 0.000000 1.000000 0.000000
vn 0.000000 0.000000 -1.000000
vn 0.000000 0.000000 -1.000000
vn 0.000000 -1.000000 0.000000
vn 0.000000 -1.000000 0.000000
vn 0.000000 -1.000000 0.000000
vn 0.000000 -1.000000 0.000000
vn 0.000000 -1.000000 0.000000
vn 0.000000 -1.000000 0.000000
vn 0.000000 -1.000000 0.000000
vn 0.000000 -1.000000 0.000000
vn 0.000000 0.000000 1.000000
vn 0.000000 0.000000 1.000000
vn 0.000000 1.000000 0.000000
vn 0.000000 1.000000 0.000000
vn 0.000000 1.000000 0.000000
vn 0.000000 1.000000 0.000000
vn 0.000000 1.000000 0.000000
vn 0.000000 1.000000 0.000000
vn 0.000000 1.000000 0.000000
vn 0.000000 1.000000 0.000000
vn 0.000000 0.000000 -1.000000
vn 0.000000 0.000000 -1.000000
vn 0.000000 -1.000000 0.000000
vn 0.000000 -1.000000 0.000000
vn 0.000000 -1.000000 0.000000
vn 0.000000 -1.000000 0.000000
vn 0.000000 -1.000000 0.000000
vn 0.000000 -1.000000 0.000000
vn 0.000000 -1.000000 0.000000
vn 0.000000 -1.000000 0.000000
vn 0.000000 0.000000 1.000000
vn 0.000000 0.000000 1.000000
vn 0.000000 1.000000 0.000000
vn 0.000000 1.000000 0.000000
vn 0.000000 1.000000 0.000000
vn 0.000000 1.000000 0.000000
vn 0.000000 1.000000 0.000000
vn 0.000000 1.000000 0.000000
vn 0.000000 1.000000 0.000000
vn 0.000000 1.000000 0.000000
vn 0.000000 0.000000 -1.000000
vn 0.000000 0.000000 -1.000000
vn 0.000000 -1.000000 0.000000
vn 0.000000 -1.000000 0.000000
vn 0.000000 -1.000000 0.000000
vn 0.000000 -1.000000 0.000000
vn 0.000000 -1.000000 0.000000
vn 0.000000 -1.000000 0.000000
vn 0.000000 -1.000000 0.000000
vn 0.000000 -1.000000 0.000000
vn -1.000000 -0.000000 0.000000
vn -1.000000 -0.000000 0.000000
vn 0.000000 1.000000 0.000000
vn 0.000000 1.000000 0.000000
vn 0.000000 1.000000 0.000000
vn 0.000000 1.000000 0.000000
vn 0.000000 1.000000 0.000000
vn 0.000000 1.000000 0.000000
vn 0.000000 1.000000 0.000000
vn 0.000000 1.000000 0.000000
vn 0.000000 1.000000 0.000000
vn 0.000000 1.000000 0.000000
vn 0.000000 1.000000 0.000000
vn 0.000000 1.000000 0.000000
vn 1.000000 0.000000 -0.000000
vn 1.000000 0.000000 -0.000000
vn 0.000000 -1.000000 -0.000000
vn 0.000000 -1.000000 -0.000000
vn 0.000000 -1.000000 -0.000000
vn 0.000000 -1.000000 0.000000
vn 0.000000 -1.000000 0.000000
vn 0.000000 -1.000000 0.000000
vn 0.000000 -1.000000 0.000000
vn 0.000000 -1.000000 0.000000
vn 0.000000 -1.000000 0.000000
vn 0.000000 -1.000000 0.000000
vn 0.000000 -1.000000 0.000000
vn 0.000000 -1.000000 0.000000
vn -1.000000 -0.000000 0.000000
vn -1.000000 -0.000000 0.000000
vn 0.000000 1.000000 0.000000
vn 0.000000 1.000000 0.000000
vn 0.000000 1.000000 0.000000
vn 0.000000 1.000000 0.000000
vn 0.000000 1.000000 0.000000
vn 0.000000 1.000000 0.000000
vn 0.000000 1.000000 0.000000
vn 0.000000 1.000000 0.000000
vn 0.000000 1.000000 0.000000
vn 0.000000 1.000000 0.000000
vn 0.000000 1.000000 0.000000
vn 0.000000 1.000000 0.000000
vn 1.000000 0.000000 -0.000000
vn 1.000000 0.000000 -0.000000
vn 0.000000 -1.000000 -0.000000
vn 0.000000 -1.000000 -0.000000
vn 0.000000 -1.000000 -0.000000
vn 0.000000 -1.000000 0.000000
vn 0.000000 -1.000000 0.000000
vn 0.000000 -1.000000 0.000000
vn 0.000000 -1.000000 0.000000
vn 0.000000 -1.000000 0.000000
vn 0.000000 -1.000000 -0.000000
vn 0.000000 -1.000000 0.000000
vn 0.000000 -1.000000 0.000000
vn 0.000000 -1.000000 0.000000
vn -1.000000 0.000000 0.000000
vn -1.000000 0.000000 0.000000
vn 0.000000 1.000000 0.000000
vn 0.000000 1.000000 0.000000
vn 0.000000 1.000000 0.000000
vn 0.000000 1.000000 0.000000
vn 0.000000 1.000000 0.000000
vn 0.000000 1.000000 0.000000
vn 0.000000 1.000000 0.000000
vn 0.000000 1.000000 0.000000
vn 0.000000 1.000000 0.000000
vn 0.000000 1.000000 -0.000000
vn 0.000000 1.000000 -0.000000
vn 0.000000 1.000000 0.000000
vn 1.000000 0.000000 0.000000
vn 1.000000 0.000000 0.000000
vn 0.000000 -1.000000 0.000000
vn 0.000000 -1.000000 0.000000
vn 0.000000 -1.000000 0.000000
vn 0.000000 -1.000000 -0.000000
vn 0.000000 -1.000000 -0.000000
vn 0.000000 -1.000000 0.000000
vn 0.000000 -1.000000 0.000000
vn 0.000000 -1.000000 -0.000000
vn 0.000000 -1.000000 -0.000000
vn 0.000000 -1.000000 -0.000000
vn 0.000000 -1.000000 0.000000
vn 0.000000 -1.000000 0.000000
vn -1.000000 0.000000 0.000000
vn -1.000000 0.000000 0.000000
vn 0.000000 1.000000 0.000000
vn 0.000000 1.000000 0.000000
vn 0.000000 1.000000 0.000000
vn 0.000000 1.000000 0.000000
vn 0.000000 1.000000 0.000000
vn 0.000000 1.000000 0.000000
vn 0.000000 1.000000 0.000000
vn 0.000000 1.000000 0.000000
vn 0.000000 1.000000 0.000000
vn 0.000000 1.000000 -0.000000
vn 0.000000 1.000000 -0.000000
vn 0.000000 1.000000 0.000000
vn 1.000000 0.000000 0.000000
vn 1.000000 0.000000 0.000000
vn 0.000000 -1.000000 0.000000
vn 0.000000 -1.000000 0.000000
vn 0.000000 -1.000000 0.000000
vn 0.000000 -1.000000 -0.000000
vn 0.000000 -1.000000 0.000000
vn 0.000000 -1.000000 0.000000
vn 0.000000 -1.000000 0.000000
vn 0.000000 -1.000000 0.000000
vn 0.000000 -1.000000 0.000000
vn 0.000000 -1.000000 0.000000
vn 0.000000 -1.000000 0.000000
vn 0.000000 -1.000000 0.000000
s 1
g SubDivFloor:BasicFloor
usemtl SubDivFloor:ProBuilderDefault
f 2/1/1 43/80/2 44/82/3 5/4/4
s 2
f 3/3/5 99/152/6 100/154/7 4/5/8
s 3
f 7/13/9 19/40/10 20/42/11 10/17/12
s 4
f 8/15/13 155/224/14 156/226/15 9/16/16
s 5
f 106/161/17 107/163/18 8/19/19 9/24/20
s 6
f 50/89/21 51/91/22 11/20/23 14/22/24
s 7
f 166/237/25 167/239/26 12/25/27 13/30/28
s 8
f 22/45/29 23/47/30 15/26/31 16/28/32
s 9
f 21/44/33 48/87/34 49/88/35 17/8/36
s 10
f 20/43/37 104/159/38 105/160/39 10/9/40
s 11
f 156/227/41 157/228/42 106/162/43 9/11/44
s 12
f 161/232/45 162/233/46 50/90/47 14/10/48
s 13
f 51/92/49 171/244/50 172/245/51 11/34/52
s 14
f 107/164/53 176/249/54 155/225/55 8/36/56
s 15
f 108/165/57 109/166/58 19/41/59 7/35/60
s 16
f 52/93/61 53/94/62 24/49/63 18/33/64
s 3
f 20/42/11 19/40/10 25/50/65 26/52/66
s 10
f 26/53/67 103/158/68 104/159/38 20/43/37
s 9
f 27/54/69 47/86/70 48/87/34 21/44/33
s 8
f 28/55/71 29/57/72 23/47/30 22/45/29
s 16
f 24/49/63 53/94/62 54/95/73 30/59/74
s 15
f 19/41/59 109/166/58 110/167/75 25/51/76
s 3
f 26/52/66 25/50/65 31/60/77 32/62/78
s 10
f 32/63/79 102/157/80 103/158/68 26/53/67
s 9
f 33/64/81 46/85/82 47/86/70 27/54/69
s 8
f 34/65/83 35/67/84 29/57/72 28/55/71
s 16
f 30/59/74 54/95/73 55/96/85 36/69/86
s 15
f 25/51/76 110/167/75 111/168/87 31/61/88
s 3
f 32/62/78 31/60/77 37/70/89 38/72/90
s 10
f 38/73/91 101/156/92 102/157/80 32/63/79
s 9
f 39/74/93 45/84/94 46/85/82 33/64/81
s 8
f 40/75/95 41/77/96 35/67/84 34/65/83
s 16
f 36/69/86 55/96/85 56/97/97 42/79/98
s 15
f 31/61/88 111/168/87 112/169/99 37/71/100
s 3
f 38/72/90 37/70/89 3/14/101 4/18/102
s 10
f 4/18/103 100/155/104 101/156/92 38/73/91
s 9
f 5/4/105 44/83/106 45/84/94 39/74/93
s 8
f 6/29/107 1/27/108 41/77/96 40/75/95
s 16
f 42/79/98 56/97/97 43/81/109 2/37/110
s 15
f 37/71/100 112/169/99 99/153/111 3/38/112
s 1
f 44/82/3 43/80/2 57/98/113 58/100/114
s 9
f 45/84/94 44/83/106 58/101/115 59/102/116
f 46/85/82 45/84/94 59/102/116 60/103/117
f 47/86/70 46/85/82 60/103/117 61/104/118
f 48/87/34 47/86/70 61/104/118 62/105/119
f 49/88/35 48/87/34 62/105/119 63/106/120
s 12
f 50/90/47 162/233/46 163/234/121 64/108/122
s 6
f 64/107/123 65/109/124 51/91/22 50/89/21
s 13
f 65/110/125 170/243/126 171/244/50 51/92/49
s 16
f 66/111/127 67/112/128 53/94/62 52/93/61
f 54/95/73 53/94/62 67/112/128 68/113/129
f 55/96/85 54/95/73 68/113/129 69/114/130
f 56/97/97 55/96/85 69/114/130 70/115/131
f 43/81/109 56/97/97 70/115/131 57/99/132
s 1
f 58/100/114 57/98/113 71/116/133 72/118/134
s 9
f 59/102/116 58/101/115 72/119/135 73/120/136
f 60/103/117 59/102/116 73/120/136 74/121/137
f 61/104/118 60/103/117 74/121/137 75/122/138
f 62/105/119 61/104/118 75/122/138 76/123/139
f 63/106/120 62/105/119 76/123/139 77/124/140
s 12
f 64/108/122 163/234/121 164/235/141 78/126/142
s 6
f 78/125/143 79/127/144 65/109/124 64/107/123
s 13
f 79/128/145 169/242/146 170/243/126 65/110/125
s 16
f 80/129/147 81/130/148 67/112/128 66/111/127
f 68/113/129 67/112/128 81/130/148 82/131/149
f 69/114/130 68/113/129 82/131/149 83/132/150
f 70/115/131 69/114/130 83/132/150 84/133/151
f 57/99/132 70/115/131 84/133/151 71/117/152
s 1
f 72/118/134 71/116/133 85/134/153 86/136/154
s 9
f 73/120/136 72/119/135 86/137/155 87/138/156
f 74/121/137 73/120/136 87/138/156 88/139/157
f 75/122/138 74/121/137 88/139/157 89/140/158
f 76/123/139 75/122/138 89/140/158 90/141/159
f 77/124/140 76/123/139 90/141/159 91/142/160
s 12
f 78/126/142 164/235/141 165/236/161 92/144/162
s 6
f 92/143/163 93/145/164 79/127/144 78/125/143
s 13
f 93/146/165 168/241/166 169/242/146 79/128/145
s 16
f 94/147/167 95/148/168 81/130/148 80/129/147
f 82/131/149 81/130/148 95/148/168 96/149/169
f 83/132/150 82/131/149 96/149/169 97/150/170
f 84/133/151 83/132/150 97/150/170 98/151/171
f 71/117/152 84/133/151 98/151/171 85/135/172
s 1
f 86/136/154 85/134/153 1/2/173 6/6/174
s 9
f 87/138/156 86/137/155 6/29/175 40/76/176
f 88/139/157 87/138/156 40/76/176 34/66/177
f 89/140/158 88/139/157 34/66/177 28/56/178
f 90/141/159 89/140/158 28/56/178 22/46/179
f 91/142/160 90/141/159 22/46/179 16/7/180
s 12
f 92/144/162 165/236/161 166/238/181 13/12/182
s 6
f 12/21/183 93/145/164 92/143/163 13/23/184
s 13
f 12/31/185 167/240/186 168/241/166 93/146/165
s 16
f 15/32/187 23/48/188 95/148/168 94/147/167
f 96/149/169 95/148/168 23/48/188 29/58/189
f 97/150/170 96/149/169 29/58/189 35/68/190
f 98/151/171 97/150/170 35/68/190 41/78/191
f 85/135/172 98/151/171 41/78/191 1/39/192
s 2
f 100/154/7 99/152/6 113/170/193 114/172/194
s 10
f 101/156/92 100/155/104 114/173/195 115/174/196
f 102/157/80 101/156/92 115/174/196 116/175/197
f 103/158/68 102/157/80 116/175/197 117/176/198
f 104/159/38 103/158/68 117/176/198 118/177/199
f 105/160/39 104/159/38 118/177/199 119/178/200
s 11
f 157/228/42 158/229/201 120/180/202 106/162/43
s 5
f 120/179/203 121/181/204 107/163/18 106/161/17
s 14
f 121/182/205 175/248/206 176/249/54 107/164/53
s 15
f 122/183/207 123/184/208 109/166/58 108/165/57
f 110/167/75 109/166/58 123/184/208 124/185/209
f 111/168/87 110/167/75 124/185/209 125/186/210
f 112/169/99 111/168/87 125/186/210 126/187/211
f 99/153/111 112/169/99 126/187/211 113/171/212
s 2
f 114/172/194 113/170/193 127/188/213 128/190/214
s 10
f 115/174/196 114/173/195 128/191/215 129/192/216
f 116/175/197 115/174/196 129/192/216 130/193/217
f 117/176/198 116/175/197 130/193/217 131/194/218
f 118/177/199 117/176/198 131/194/218 132/195/219
f 119/178/200 118/177/199 132/195/219 133/196/220
s 11
f 158/229/201 159/230/221 134/198/222 120/180/202
s 5
f 134/197/223 135/199/224 121/181/204 120/179/203
s 14
f 135/200/225 174/247/226 175/248/206 121/182/205
s 15
f 136/201/227 137/202/228 123/184/208 122/183/207
f 124/185/209 123/184/208 137/202/228 138/203/229
f 125/186/210 124/185/209 138/203/229 139/204/230
f 126/187/211 125/186/210 139/204/230 140/205/231
f 113/171/212 126/187/211 140/205/231 127/189/232
s 2
f 128/190/214 127/188/213 141/206/233 142/208/234
s 10
f 129/192/216 128/191/215 142/209/235 143/210/236
f 130/193/217 129/192/216 143/210/236 144/211/237
f 131/194/218 130/193/217 144/211/237 145/212/238
f 132/195/219 131/194/218 145/212/238 146/213/239
f 133/196/220 132/195/219 146/213/239 147/214/240
s 11
f 159/230/221 160/231/241 148/216/242 134/198/222
s 5
f 148/215/243 149/217/244 135/199/224 134/197/223
s 14
f 149/218/245 173/246/246 174/247/226 135/200/225
s 15
f 150/219/247 151/220/248 137/202/228 136/201/227
f 138/203/229 137/202/228 151/220/248 152/221/249
f 139/204/230 138/203/229 152/221/249 153/222/250
f 140/205/231 139/204/230 153/222/250 154/223/251
f 127/189/232 140/205/231 154/223/251 141/207/252
s 2
f 142/208/234 141/206/233 2/1/253 5/4/254
s 10
f 143/210/236 142/209/235 5/4/255 39/74/256
f 144/211/237 143/210/236 39/74/256 33/64/257
f 145/212/238 144/211/237 33/64/257 27/54/258
f 146/213/239 145/212/238 27/54/258 21/44/259
f 147/214/240 146/213/239 21/44/259 17/8/260
s 11
f 160/231/241 161/232/261 14/10/262 148/216/242
s 5
f 11/20/263 149/217/244 148/215/243 14/22/264
s 14
f 11/34/265 172/245/266 173/246/246 149/218/245
s 15
f 18/33/267 24/49/268 151/220/248 150/219/247
f 152/221/249 151/220/248 24/49/268 30/59/269
f 153/222/250 152/221/249 30/59/269 36/69/270
f 154/223/251 153/222/250 36/69/270 42/79/271
f 141/207/252 154/223/251 42/79/271 2/37/272
s 4
f 156/226/15 155/224/14 177/250/273 178/252/274
s 11
f 178/253/275 179/254/276 157/228/42 156/227/41
f 179/254/276 180/255/277 158/229/201 157/228/42
f 180/255/277 181/256/278 159/230/221 158/229/201
f 181/256/278 182/257/279 160/231/241 159/230/221
f 182/257/279 183/258/280 161/232/261 160/231/241
s 12
f 183/258/281 184/259/282 162/233/46 161/232/45
f 163/234/121 162/233/46 184/259/282 185/260/283
f 164/235/141 163/234/121 185/260/283 186/261/284
f 165/236/161 164/235/141 186/261/284 187/262/285
f 166/238/181 165/236/161 187/262/285 188/264/286
s 7
f 188/263/287 189/265/288 167/239/26 166/237/25
s 13
f 168/241/166 167/240/186 189/266/289 190/267/290
f 169/242/146 168/241/166 190/267/290 191/268/291
f 170/243/126 169/242/146 191/268/291 192/269/292
f 171/244/50 170/243/126 192/269/292 193/270/293
f 172/245/51 171/244/50 193/270/293 194/271/294
s 14
f 173/246/246 172/245/266 194/271/295 195/272/296
f 174/247/226 173/246/246 195/272/296 196/273/297
f 175/248/206 174/247/226 196/273/297 197/274/298
f 176/249/54 175/248/206 197/274/298 198/275/299
f 155/225/55 176/249/54 198/275/299 177/251/300
s 4
f 178/252/274 177/250/273 199/276/301 200/278/302
s 11
f 200/279/303 201/280/304 179/254/276 178/253/275
f 201/280/304 202/281/305 180/255/277 179/254/276
f 202/281/305 203/282/306 181/256/278 180/255/277
f 203/282/306 204/283/307 182/257/279 181/256/278
f 204/283/307 205/284/308 183/258/280 182/257/279
s 12
f 205/284/309 206/285/310 184/259/282 183/258/281
f 185/260/283 184/259/282 206/285/310 207/286/311
f 186/261/284 185/260/283 207/286/311 208/287/312
f 187/262/285 186/261/284 208/287/312 209/288/313
f 188/264/286 187/262/285 209/288/313 210/290/314
s 7
f 210/289/315 211/291/316 189/265/288 188/263/287
s 13
f 190/267/290 189/266/289 211/292/317 212/293/318
f 191/268/291 190/267/290 212/293/318 213/294/319
f 192/269/292 191/268/291 213/294/319 214/295/320
f 193/270/293 192/269/292 214/295/320 215/296/321
f 194/271/294 193/270/293 215/296/321 216/297/322
s 14
f 195/272/296 194/271/295 216/297/323 217/298/324
f 196/273/297 195/272/296 217/298/324 218/299/325
f 197/274/298 196/273/297 218/299/325 219/300/326
f 198/275/299 197/274/298 219/300/326 220/301/327
f 177/251/300 198/275/299 220/301/327 199/277/328
s 4
f 200/278/302 199/276/301 221/302/329 222/304/330
s 11
f 222/305/331 223/306/332 201/280/304 200/279/303
f 223/306/332 224/307/333 202/281/305 201/280/304
f 224/307/333 225/308/334 203/282/306 202/281/305
f 225/308/334 226/309/335 204/283/307 203/282/306
f 226/309/335 227/310/336 205/284/308 204/283/307
s 12
f 227/310/337 228/311/338 206/285/310 205/284/309
f 207/286/311 206/285/310 228/311/338 229/312/339
f 208/287/312 207/286/311 229/312/339 230/313/340
f 209/288/313 208/287/312 230/313/340 231/314/341
f 210/290/314 209/288/313 231/314/341 232/316/342
s 7
f 232/315/343 233/317/344 211/291/316 210/289/315
s 13
f 212/293/318 211/292/317 233/318/345 234/319/346
f 213/294/319 212/293/318 234/319/346 235/320/347
f 214/295/320 213/294/319 235/320/347 236/321/348
f 215/296/321 214/295/320 236/321/348 237/322/349
f 216/297/322 215/296/321 237/322/349 238/323/350
s 14
f 217/298/324 216/297/323 238/323/351 239/324/352
f 218/299/325 217/298/324 239/324/352 240/325/353
f 219/300/326 218/299/325 240/325/353 241/326/354
f 220/301/327 219/300/326 241/326/354 242/327/355
f 199/277/328 220/301/327 242/327/355 221/303/356
s 4
f 222/304/330 221/302/329 7/13/357 10/17/358
s 11
f 105/160/359 223/306/332 222/305/331 10/9/360
f 119/178/361 224/307/333 223/306/332 105/160/359
f 133/196/362 225/308/334 224/307/333 119/178/361
f 147/214/363 226/309/335 225/308/334 133/196/362
f 17/8/364 227/310/336 226/309/335 147/214/363
s 12
f 17/8/365 49/88/366 228/311/338 227/310/337
f 229/312/339 228/311/338 49/88/366 63/106/367
f 230/313/340 229/312/339 63/106/367 77/124/368
f 231/314/341 230/313/340 77/124/368 91/142/369
f 232/316/342 231/314/341 91/142/369 16/7/370
s 7
f 15/26/371 233/317/344 232/315/343 16/28/372
s 13
f 234/319/346 233/318/345 15/32/373 94/147/374
f 235/320/347 234/319/346 94/147/374 80/129/375
f 236/321/348 235/320/347 80/129/375 66/111/376
f 237/322/349 236/321/348 66/111/376 52/93/377
f 238/323/350 237/322/349 52/93/377 18/33/378
s 14
f 239/324/352 238/323/351 18/33/379 150/219/380
f 240/325/353 239/324/352 150/219/380 136/201/381
f 241/326/354 240/325/353 136/201/381 122/183/382
f 242/327/355 241/326/354 122/183/382 108/165/383
f 221/303/356 242/327/355 108/165/383 7/35/384
