# This file uses centimeters as units for non-parametric coordinates.

mtllib SpellBook.mtl
g default
v 236.536150 -4.700000 324.571967
v 436.536150 -4.700000 324.571967
v 236.536150 5.300000 324.571967
v 436.536150 5.300000 324.571967
v 236.536150 5.300000 224.571967
v 436.536150 5.300000 224.571967
v 236.536150 -4.700000 224.571967
v 436.536150 -4.700000 224.571967
vt 0.472120 0.525744
vt 0.492514 0.525744
vt 0.492514 0.546138
vt 0.472120 0.546138
vt 0.535434 0.600800
vt 0.515041 0.600800
vt 0.515041 0.580406
vt 0.535434 0.580406
vt 0.139490 0.648664
vt 0.139490 0.557453
vt 0.230687 0.557453
vt 0.230687 0.648664
vt 0.568691 0.648692
vt 0.568691 0.557485
vt 0.659891 0.557485
vt 0.659891 0.648692
vt 0.472120 0.622661
vt 0.500961 0.622661
vt 0.500961 0.651503
vt 0.472120 0.651503
vt 0.804751 0.749322
vt 0.804751 0.720481
vt 0.833592 0.720481
vt 0.833592 0.749322
vn 0.000000 1.000000 0.000000
vn 0.000000 1.000000 0.000000
vn 0.000000 1.000000 0.000000
vn 0.000000 1.000000 0.000000
vn 1.000000 0.000000 0.000000
vn 1.000000 0.000000 0.000000
vn 1.000000 0.000000 0.000000
vn 1.000000 0.000000 0.000000
vn -1.000000 0.000000 0.000000
vn -1.000000 0.000000 0.000000
vn -1.000000 0.000000 0.000000
vn -1.000000 0.000000 0.000000
vn 0.000000 0.000000 1.000000
vn 0.000000 0.000000 1.000000
vn 0.000000 0.000000 1.000000
vn 0.000000 0.000000 1.000000
vn 0.000000 0.000000 -1.000000
vn 0.000000 0.000000 -1.000000
vn 0.000000 0.000000 -1.000000
vn 0.000000 0.000000 -1.000000
vn 0.000000 -1.000000 0.000000
vn 0.000000 -1.000000 0.000000
vn 0.000000 -1.000000 0.000000
vn 0.000000 -1.000000 0.000000
s off
g BookMarkFlat
usemtl aiStandardSurface6SG
f 3/9/1 4/10/2 6/11/3 5/12/4
f 2/1/5 8/2/6 6/3/7 4/4/8
f 3/5/9 5/6/10 7/7/11 1/8/12
f 2/17/13 4/18/14 3/19/15 1/20/16
f 5/21/17 6/22/18 8/23/19 7/24/20
f 7/13/21 8/14/22 2/15/23 1/16/24
g default
v -325.000000 -43.789627 417.503241
v -292.503227 -43.789627 450.000000
v -315.481906 -43.789627 440.481913
v -325.000000 43.789627 417.503241
v -315.481906 43.789627 440.481913
v -292.503227 43.789627 450.000000
v 325.000000 -43.789627 417.503241
v 315.481906 -43.789627 440.481913
v 292.503227 -43.789627 450.000000
v 325.000000 43.789627 417.503241
v 292.503227 43.789627 450.000000
v 315.481906 43.789627 440.481913
v -315.481906 43.789627 -440.481913
v -325.000000 43.789627 -417.503241
v -292.503227 43.789627 -450.000000
v -325.000000 -43.789627 -417.503241
v -315.481906 -43.789627 -440.481913
v -292.503227 -43.789627 -450.000000
v 315.481906 43.789627 -440.481913
v 292.503227 43.789627 -450.000000
v 325.000000 43.789627 -417.503241
v 325.000000 -43.789627 -417.503241
v 292.503227 -43.789627 -450.000000
v 315.481906 -43.789627 -440.481913
v -292.503227 43.789627 417.503268
v 292.503266 43.789627 417.503241
v 325.000000 43.789627 -404.244974
v 292.503227 43.789627 -404.451719
v -292.503227 43.789627 -408.183745
v -325.000000 43.789627 -408.390811
v 292.503227 -43.789627 417.503241
v 292.503227 -43.789627 -417.503294
v -292.503227 -43.789627 417.503241
v -292.503266 -43.789627 -417.503241
v -282.123236 33.409625 450.000000
v -282.123236 -33.409625 450.000000
v 292.503227 -33.409625 450.000000
v 292.503227 33.409625 450.000000
v -282.123236 -33.409625 -450.000000
v -282.123236 33.409625 -450.000000
v 292.503227 33.409625 -450.000000
v 292.503227 -33.409625 -450.000000
v 325.000000 33.409625 417.503241
v 325.000000 -33.409625 417.503241
v 325.000000 -33.409625 -417.503241
v 325.000000 33.409625 -417.503241
v 325.000000 33.409625 -404.244974
v 315.481906 -33.409625 440.481913
v 315.481906 33.409625 440.481913
v 315.481906 33.409625 -440.481913
v 315.481906 -33.409625 -440.481913
v -282.123236 33.409625 439.680013
v -282.123236 -33.409625 439.680013
v 290.528592 -33.409625 440.072796
v 290.528592 33.409625 440.072796
v -282.123236 -33.409625 -439.680013
v -282.123236 33.409625 -439.680013
v 290.528592 33.409625 -440.072796
v 290.528592 -33.409625 -440.072796
v 315.072779 33.409625 415.528598
v 315.072779 -33.409625 415.528598
v 315.072779 -33.409625 -415.528598
v 315.072779 33.409625 -415.528598
v 314.680003 33.409625 -404.244974
v 308.740059 -33.409625 433.740073
v 308.740059 33.409625 433.740073
v 308.740059 33.409625 -433.740073
v 308.740059 -33.409625 -433.740073
vt 0.422699 0.696722
vt 0.284345 0.696722
vt 0.284345 0.529266
vt 0.422699 0.529266
vt 0.422699 0.531541
vt 0.284345 0.700384
vt 0.422699 0.700384
vt 0.422699 0.525604
vt 0.284345 0.525604
vt 0.718182 0.707069
vt 0.718182 0.525624
vt 0.886523 0.525624
vt 0.886523 0.707069
vt 0.720014 0.707069
vt 0.713546 0.707069
vt 0.713546 0.525624
vt 0.891159 0.525624
vt 0.891159 0.707069
vt 0.944241 0.679612
vt 0.944241 0.511308
vt 0.965751 0.511308
vt 0.965751 0.679612
vt 0.944241 0.506673
vt 0.965751 0.506673
vt 0.944241 0.684247
vt 0.965751 0.684247
vt 0.965751 0.702295
vt 0.965751 0.704959
vt 0.944241 0.704959
vt 0.944241 0.702295
vt 0.965751 0.870599
vt 0.944241 0.870599
vt 0.965751 0.697660
vt 0.944241 0.697660
vt 0.965751 0.875234
vt 0.944241 0.875234
vt 0.981796 0.644765
vt 0.981796 0.506673
vt 0.983873 0.506673
vt 0.983873 0.644765
vt 0.999968 0.502410
vt 0.999968 0.640501
vt 0.997891 0.640501
vt 0.997891 0.502410
vt 0.000000 0.017811
vt 0.024659 0.017811
vt 0.024659 0.470318
vt 0.000000 0.470469
vt 0.024659 0.000000
vt 0.007226 0.005207
vt 0.468620 0.017811
vt 0.468620 0.468280
vt 0.024659 0.493261
vt 0.007226 0.488053
vt 0.000000 0.475450
vt 0.468620 0.000000
vt 0.493261 0.468205
vt 0.493261 0.017811
vt 0.468620 0.493261
vt 0.486053 0.005207
vt 0.486053 0.488053
vt 0.493261 0.475450
vt 0.972931 0.493261
vt 0.972931 0.475450
vt 0.997571 0.475450
vt 0.990364 0.488053
vt 0.528970 0.493261
vt 0.528970 0.475450
vt 0.997571 0.017811
vt 0.972931 0.017811
vt 0.504311 0.475450
vt 0.511537 0.488053
vt 0.528970 0.017811
vt 0.972931 0.000000
vt 0.990364 0.005207
vt 0.504311 0.017811
vt 0.528970 0.000000
vt 0.511537 0.005207
vt 0.472120 0.506673
vt 0.908080 0.506673
vt 0.906571 0.512105
vt 0.472120 0.512332
vt 0.925508 0.511879
vt 0.920378 0.515576
vt 0.932713 0.524478
vt 0.925168 0.525535
vt 0.932713 0.981977
vt 0.925168 0.980921
vt 0.925508 0.994577
vt 0.920378 0.990880
vt 0.908080 0.999782
vt 0.906571 0.994350
vt 0.472120 0.999782
vt 0.472120 0.994124
vt 0.436152 1.000000
vt 0.000000 1.000000
vt 0.000000 0.994339
vt 0.434642 0.994566
vt 0.453587 0.994792
vt 0.448455 0.991094
vt 0.460796 0.982187
vt 0.453248 0.981111
vt 0.460796 0.531770
vt 0.452984 0.531770
vt 0.460796 0.524486
vt 0.453248 0.525580
vt 0.453587 0.511881
vt 0.448455 0.515580
vt 0.436152 0.506673
vt 0.434642 0.512108
vt 0.000000 0.506673
vt 0.000000 0.512334
vt 0.589623 0.834026
vt 0.472120 0.834026
vt 0.472120 0.698339
vt 0.589623 0.698339
vt 0.472120 0.694027
vt 0.589623 0.694027
vt 0.117512 0.834045
vt 0.000000 0.834045
vt 0.000000 0.698345
vt 0.117512 0.698345
vt 0.000000 0.694058
vt 0.117512 0.694058
vt 0.547231 0.525711
vt 0.552705 0.525711
vt 0.552705 0.680614
vt 0.547231 0.680614
vt 0.555176 0.544072
vt 0.555176 0.662259
vt 0.692127 0.525711
vt 0.692127 0.544072
vt 0.692127 0.680614
vt 0.692127 0.662259
vt 0.697602 0.525711
vt 0.697602 0.544072
vt 0.697602 0.680614
vt 0.697602 0.662259
vt 0.118030 0.525691
vt 0.123507 0.525691
vt 0.123507 0.680645
vt 0.118030 0.680645
vt 0.125978 0.544040
vt 0.125978 0.662295
vt 0.262974 0.525691
vt 0.262974 0.544040
vt 0.262974 0.680645
vt 0.262974 0.662295
vt 0.268451 0.525691
vt 0.268451 0.544040
vt 0.268451 0.680645
vt 0.268451 0.662295
vn -0.000686 0.000000 1.000000
vn -0.000686 0.000000 1.000000
vn 0.010053 0.000000 0.999950
vn 0.010053 0.000000 0.999950
vn -0.000686 0.000000 -1.000000
vn -0.000686 0.000000 -1.000000
vn 0.010053 0.000000 -0.999950
vn 0.010053 0.000000 -0.999950
vn 0.999968 0.002876 0.007456
vn 0.999968 0.002876 0.007456
vn 0.999968 0.002876 -0.007456
vn 0.999968 0.002876 -0.007456
vn 0.999996 0.002939 0.000000
vn -0.999938 0.000000 -0.011093
vn -0.999938 0.000000 -0.011093
vn -0.999938 0.000000 0.011093
vn -0.999938 0.000000 0.011093
vn -1.000000 0.000000 0.000000
vn -0.923879 0.000000 0.382684
vn -0.923879 0.000000 0.382684
vn -0.382684 0.000000 0.923879
vn -0.109226 0.000000 0.994017
vn -0.109226 0.000000 0.994017
vn -0.382684 0.000000 0.923879
vn 0.328443 0.000000 0.944524
vn 0.328443 0.000000 0.944524
vn 0.944524 0.000000 0.328442
vn 0.944524 0.000000 0.328442
vn -0.923879 0.000000 -0.382684
vn -0.923879 0.000000 -0.382684
vn -0.382684 0.000000 -0.923879
vn -0.109226 0.000000 -0.994017
vn -0.109226 0.000000 -0.994017
vn -0.382684 0.000000 -0.923879
vn 0.328443 0.000000 -0.944524
vn 0.328443 0.000000 -0.944524
vn 0.944524 0.000000 -0.328442
vn 0.944524 0.000000 -0.328442
vn 0.000000 1.000000 0.000000
vn 0.000000 1.000000 0.000000
vn 0.000000 1.000000 0.000000
vn 0.000000 1.000000 0.000000
vn 0.000000 -1.000000 0.000000
vn 0.000000 -1.000000 0.000000
vn 0.000000 -1.000000 0.000000
vn 0.000000 -1.000000 0.000000
vn 0.000000 1.000000 0.000000
vn 0.000000 1.000000 0.000000
vn 0.000000 1.000000 0.000000
vn 0.000000 1.000000 0.000000
vn 0.000000 1.000000 0.000000
vn 0.000000 1.000000 0.000000
vn 0.000000 1.000000 0.000000
vn 0.000000 1.000000 0.000000
vn 0.000000 1.000000 0.000000
vn 0.000000 1.000000 0.000000
vn 0.000000 1.000000 0.000000
vn 0.000000 1.000000 0.000000
vn 0.000000 1.000000 0.000000
vn 0.000000 1.000000 0.000000
vn 0.000000 -1.000000 0.000000
vn 0.000000 -1.000000 0.000000
vn 0.000000 -1.000000 0.000000
vn 0.000000 -1.000000 0.000000
vn 0.000000 -1.000000 0.000000
vn 0.000000 -1.000000 0.000000
vn 0.000000 -1.000000 0.000000
vn 0.000000 -1.000000 0.000000
vn 0.000000 -1.000000 0.000000
vn 0.000000 -1.000000 0.000000
vn 0.000000 -1.000000 0.000000
vn 0.000000 -1.000000 0.000000
vn 0.000000 0.000000 1.000000
vn 0.000000 0.000000 1.000000
vn 0.015788 0.000000 0.999875
vn 0.015788 0.000000 0.999875
vn 0.015788 0.000000 0.999875
vn 0.015788 0.000000 0.999875
vn 0.000000 0.000000 -1.000000
vn 0.000000 0.000000 -1.000000
vn 0.015788 0.000000 -0.999875
vn 0.015788 0.000000 -0.999875
vn 0.015788 0.000000 -0.999875
vn 0.015788 0.000000 -0.999875
vn 0.999938 0.000000 0.011093
vn 0.999938 0.000000 -0.011093
vn 0.999938 0.000000 -0.011093
vn 0.999938 0.000000 0.011093
vn 0.967192 0.000000 -0.254045
vn 1.000000 0.000000 0.000000
vn 1.000000 0.000000 0.000000
vn 0.967192 0.000000 -0.254045
vn 0.999937 0.000000 0.011267
vn 0.999937 0.000000 0.011267
vn 0.382684 0.000000 0.923879
vn 0.382684 0.000000 0.923879
vn 0.382684 0.000000 0.923879
vn 0.382684 0.000000 0.923879
vn 0.923879 0.000000 0.382684
vn 0.923879 0.000000 0.382684
vn 0.923879 0.000000 0.382684
vn 0.923879 0.000000 0.382684
vn 0.382684 0.000000 -0.923879
vn 0.382684 0.000000 -0.923879
vn 0.382684 0.000000 -0.923879
vn 0.382684 0.000000 -0.923879
vn 0.923879 0.000000 -0.382684
vn 0.923879 0.000000 -0.382684
vn 0.923879 0.000000 -0.382684
vn 0.923879 0.000000 -0.382684
vn 1.000000 0.000000 0.000000
vn 1.000000 0.000000 0.000000
vn 1.000000 0.000000 0.000000
vn 1.000000 0.000000 0.000000
vn 0.000000 1.000000 0.000000
vn 0.000000 1.000000 0.000000
vn 0.000000 1.000000 0.000000
vn 0.000000 1.000000 0.000000
vn 0.000000 -1.000000 -0.000000
vn 0.000000 -1.000000 -0.000000
vn 0.000000 -1.000000 -0.000000
vn 0.000000 -1.000000 -0.000000
vn 1.000000 0.000000 0.000000
vn 1.000000 0.000000 0.000000
vn 1.000000 0.000000 0.000000
vn 1.000000 0.000000 0.000000
vn 0.000000 -1.000000 0.000000
vn 0.000000 -1.000000 -0.000000
vn 0.000000 -1.000000 -0.000000
vn 0.000000 -1.000000 0.000000
vn 0.000000 1.000000 0.000000
vn 0.000000 1.000000 0.000000
vn 0.000000 1.000000 0.000000
vn 0.000000 1.000000 0.000000
vn 0.000000 1.000000 0.000000
vn 0.000000 1.000000 -0.000000
vn 0.000000 1.000000 -0.000000
vn 0.000000 1.000000 0.000000
vn 0.000000 -1.000000 -0.000000
vn 0.000000 -1.000000 0.000000
vn 0.000000 -1.000000 0.000000
vn 0.000000 -1.000000 -0.000000
vn 0.000000 -1.000000 0.000000
vn 0.000000 -1.000000 0.000000
vn 0.000000 1.000000 0.000000
vn 0.000000 1.000000 0.000000
vn 0.000000 -1.000000 0.000000
vn 0.000000 -1.000000 -0.000000
vn 0.000000 -1.000000 -0.000000
vn 0.000000 -1.000000 -0.000000
vn 0.000000 1.000000 -0.000000
vn 0.000000 1.000000 0.000000
s 1
g Book
usemtl aiStandardSurface1SG
f 60/137/25 61/138/26 62/139/27 63/140/28
s 2
f 64/143/29 65/144/30 66/145/31 67/146/32
s 3
f 68/25/33 69/26/34 70/27/35 71/28/36 72/29/37
s 4
f 22/34/38 24/35/39 9/36/40 12/37/41 38/38/42
f 9/36/40 11/41/43 13/42/44 12/37/41
s 5
f 11/149/45 10/150/46 14/151/47 13/152/48
s 1
f 62/139/27 73/141/49 74/142/50 63/140/28
s 3
f 73/30/51 69/26/34 68/25/33 74/31/52
s 4
f 22/34/38 21/39/53 25/40/54 24/35/39
s 6
f 21/163/55 23/164/56 26/165/57 25/166/58
s 2
f 66/145/31 75/147/59 76/148/60 67/146/32
s 3
f 75/32/61 71/28/36 70/27/35 76/33/62
s 7
f 12/69/63 33/70/64 37/71/65 38/72/66
s 8
f 17/87/67 39/88/68 15/89/69 16/90/70
s 7
f 34/75/71 36/76/72 37/71/65 33/70/64
f 14/73/73 33/70/64 12/69/63 13/74/74
f 19/80/75 34/75/71 33/70/64 14/73/73
f 18/82/76 34/75/71 19/80/75 20/84/77
f 35/81/78 36/76/72 34/75/71 18/82/76
f 27/85/79 28/83/80 36/76/72 35/81/78 29/86/81
f 37/71/65 36/76/72 28/83/80 23/77/82
f 38/72/66 37/71/65 23/77/82 21/78/83 22/79/84
s 8
f 30/93/85 40/94/86 31/98/87 32/99/88
f 10/91/89 41/92/90 39/88/68 17/87/67
f 31/98/87 40/94/86 42/97/91 26/101/92
f 30/93/85 15/89/69 39/88/68 40/94/86
f 41/92/90 42/97/91 40/94/86 39/88/68
f 9/95/93 41/92/90 10/91/89 11/96/94
f 24/100/95 42/97/91 41/92/90 9/95/93
f 26/101/92 42/97/91 24/100/95 25/102/96
s 5
f 14/151/47 10/150/46 44/153/97 43/154/98
f 10/150/46 17/155/99 45/156/100 44/153/97
f 19/157/101 14/151/47 43/154/98 46/158/102
s 6
f 26/165/57 23/164/56 48/167/103 47/168/104
f 23/164/56 28/169/105 49/170/106 48/167/103
f 31/171/107 26/165/57 47/168/104 50/172/108
s 9
f 15/43/109 30/44/110 53/45/111 52/46/112
s 10
f 29/51/113 35/52/114 55/53/115 54/54/116
f 35/52/114 18/55/117 51/56/118 55/53/115
s 5
f 17/155/99 16/159/119 56/160/120 45/156/100
f 20/161/121 19/157/101 46/158/102 57/162/122
s 9
f 16/49/123 15/43/109 52/46/112 56/50/124
s 10
f 18/55/117 20/59/125 57/60/126 51/56/118
s 6
f 28/169/105 27/173/127 58/174/128 49/170/106
f 32/175/129 31/171/107 50/172/108 59/176/130
s 10
f 27/57/131 29/51/113 54/54/116 58/58/132
s 9
f 30/44/110 32/47/133 59/48/134 53/45/111
s off
f 43/61/135 44/62/136 61/63/137 60/64/138
s 11
f 44/103/139 45/104/140 62/105/141 61/106/142
s 12
f 46/119/143 43/120/144 60/121/145 63/122/146
s off
f 47/65/147 48/66/148 65/67/149 64/68/150
s 12
f 48/135/151 49/133/152 66/134/153 65/136/154
s 11
f 50/115/155 47/117/156 64/118/157 67/116/158
f 52/109/159 53/111/160 70/112/161 69/110/162
s 12
f 54/129/163 55/127/164 72/128/165 71/130/166
f 55/127/164 51/125/167 68/126/168 72/128/165
s 11
f 45/104/140 56/107/169 73/108/170 62/105/141
s 12
f 57/123/171 46/119/143 63/122/146 74/124/172
s 11
f 56/107/169 52/109/159 69/110/162 73/108/170
s 12
f 51/125/167 57/123/171 74/124/172 68/126/168
f 49/133/152 58/131/173 75/132/174 66/134/153
s 11
f 59/113/175 50/115/155 67/116/158 76/114/176
s 12
f 58/131/173 54/129/163 71/130/166 75/132/174
s 11
f 53/111/160 59/113/175 76/114/176 70/112/161
g default
v 105.761211 -4.377877 -252.717480
v 105.761211 -4.377877 -602.733226
v 105.761211 4.377877 -252.717480
v 105.761211 4.377877 -602.733226
v 5.761211 4.377877 -252.717480
v 5.761211 4.377877 -602.733226
v 5.761211 -4.377877 -252.717480
v 5.761211 -4.377877 -602.733226
v 55.761211 4.377877 -252.717480
v 55.761211 -4.377877 -252.717480
v 55.761211 -4.377877 -514.765483
v 55.761211 4.377877 -514.765483
vt 0.900132 0.739564
vt 0.900132 0.720481
vt 0.909674 0.720481
vt 0.909674 0.739564
vt 0.890591 0.720481
vt 0.890591 0.739564
vt 0.000000 0.665160
vt 0.000000 0.525718
vt 0.052199 0.560762
vt 0.052199 0.665160
vt 0.104398 0.525718
vt 0.104398 0.665160
vt 0.180959 0.833471
vt 0.180959 0.729074
vt 0.233158 0.694029
vt 0.233158 0.833471
vt 0.128760 0.833471
vt 0.128760 0.694029
vt 0.504311 0.566994
vt 0.504311 0.525733
vt 0.535202 0.525733
vt 0.535202 0.566994
vt 0.241425 0.598714
vt 0.241425 0.557453
vt 0.272317 0.557453
vt 0.272317 0.598714
vt 0.847671 0.720481
vt 0.861244 0.720481
vt 0.861244 0.747628
vt 0.847671 0.747628
vt 0.874818 0.720481
vt 0.874818 0.747628
vn 1.000000 0.000000 0.000000
vn 1.000000 0.000000 0.000000
vn 1.000000 0.000000 0.000000
vn 1.000000 0.000000 0.000000
vn 0.000000 1.000000 0.000000
vn 0.000000 1.000000 0.000000
vn 0.000000 1.000000 0.000000
vn 0.000000 1.000000 0.000000
vn -1.000000 0.000000 -0.000000
vn -1.000000 0.000000 -0.000000
vn -1.000000 0.000000 -0.000000
vn -1.000000 0.000000 -0.000000
vn 0.000000 -1.000000 0.000000
vn 0.000000 -1.000000 0.000000
vn 0.000000 -1.000000 0.000000
vn 0.000000 -1.000000 0.000000
vn -0.869379 0.000000 -0.494146
vn 0.000000 0.000000 -1.000000
vn 0.000000 0.000000 -1.000000
vn -0.869379 0.000000 -0.494146
vn 0.000000 0.000000 1.000000
vn 0.000000 0.000000 1.000000
vn 0.000000 0.000000 1.000000
vn 0.000000 0.000000 1.000000
vn 0.000000 0.000000 1.000000
vn 0.000000 0.000000 1.000000
vn 0.000000 -1.000000 0.000000
vn 0.000000 -1.000000 0.000000
vn 0.869379 0.000000 -0.494146
vn 0.869379 0.000000 -0.494146
vn 0.000000 1.000000 0.000000
vn 0.000000 1.000000 0.000000
s off
g BookMarkNotch
usemtl aiStandardSurface5SG
f 77/195/177 78/196/178 80/197/179 79/198/180
s 1
f 79/183/181 80/184/182 88/185/183 85/186/184
s off
f 81/199/185 82/200/186 84/201/187 83/202/188
s 2
f 86/189/189 87/190/190 78/191/191 77/192/192
s 3
f 78/203/193 87/204/194 88/205/195 80/206/196
s 4
f 85/177/197 86/178/198 77/179/199 79/180/200
f 83/181/201 86/178/198 85/177/197 81/182/202
s 2
f 83/193/203 84/194/204 87/190/190 86/189/189
s 3
f 88/205/195 87/204/194 84/207/205 82/208/206
s 1
f 85/186/184 88/185/183 82/187/207 81/188/208
g default
v 161.247414 10.668050 -257.646442
v 161.247414 20.668053 -257.646442
v 161.247414 20.668053 -357.646418
v 161.247414 10.668050 -357.646418
v 161.247414 20.668053 -307.646442
v 161.247414 10.668050 -307.646442
v 261.247414 10.668050 -257.646442
v 261.247414 20.668053 -257.646442
v 261.247414 20.668053 -307.646442
v 261.247414 20.668053 -357.646418
v 261.247414 10.668050 -357.646418
v 261.247414 10.668050 -307.646442
v 361.247414 20.668053 -257.646442
v 361.247414 10.668050 -257.646442
v 414.880818 20.668053 -307.646442
v 361.247414 20.668053 -357.646418
v 361.247414 10.668050 -357.646418
v 414.880818 10.668050 -307.646442
vt 0.525238 0.614213
vt 0.535434 0.614213
vt 0.535434 0.634607
vt 0.525238 0.634607
vt 0.515041 0.614213
vt 0.515041 0.634607
vt 0.860019 0.761040
vt 0.872368 0.761040
vt 0.872368 0.785737
vt 0.860019 0.785737
vt 0.847671 0.761040
vt 0.847671 0.785737
vt 0.246790 0.783849
vt 0.292389 0.783849
vt 0.292389 0.829447
vt 0.246790 0.829447
vt 0.292389 0.713776
vt 0.246790 0.738236
vt 0.337987 0.783849
vt 0.337987 0.829447
vt 0.337987 0.738236
vt 0.600881 0.764068
vt 0.646482 0.764068
vt 0.646482 0.809670
vt 0.600881 0.809670
vt 0.646482 0.694005
vt 0.600881 0.718466
vt 0.692084 0.764068
vt 0.692084 0.809670
vt 0.692084 0.718466
vt 0.270266 0.640968
vt 0.241425 0.640968
vt 0.241425 0.626548
vt 0.270266 0.626548
vt 0.241425 0.612127
vt 0.270266 0.612127
vt 0.699467 0.628580
vt 0.670626 0.628580
vt 0.670626 0.614159
vt 0.699467 0.614159
vt 0.670626 0.599738
vt 0.699467 0.599738
vn 0.000000 1.000000 0.000000
vn 0.000000 1.000000 0.000000
vn 0.000000 1.000000 0.000000
vn 0.000000 1.000000 0.000000
vn 0.000000 -1.000000 0.000000
vn 0.000000 -1.000000 0.000000
vn 0.000000 -1.000000 0.000000
vn 0.000000 -1.000000 0.000000
vn 0.000000 1.000000 0.000000
vn 0.000000 1.000000 0.000000
vn 0.000000 1.000000 0.000000
vn 0.000000 -1.000000 0.000000
vn 0.000000 -1.000000 0.000000
vn 0.000000 -1.000000 0.000000
vn 0.000000 0.000000 1.000000
vn 0.000000 0.000000 1.000000
vn 0.000000 0.000000 1.000000
vn 0.000000 0.000000 1.000000
vn 0.000000 0.000000 -1.000000
vn 0.000000 0.000000 -1.000000
vn 0.000000 0.000000 -1.000000
vn 0.000000 0.000000 -1.000000
vn -1.000000 0.000000 0.000000
vn -1.000000 0.000000 0.000000
vn -1.000000 0.000000 0.000000
vn -1.000000 0.000000 0.000000
vn -1.000000 0.000000 0.000000
vn -1.000000 0.000000 0.000000
vn -1.000000 0.000000 0.000000
vn -1.000000 0.000000 0.000000
vn 0.681897 0.000000 -0.731449
vn 0.681897 0.000000 -0.731449
vn 0.681897 0.000000 -0.731449
vn 0.681897 0.000000 -0.731449
vn 0.681897 0.000000 0.731449
vn 0.681897 0.000000 0.731449
vn 0.681897 0.000000 0.731449
vn 0.681897 0.000000 0.731449
vn 0.000000 0.000000 1.000000
vn 0.000000 0.000000 1.000000
vn 0.000000 1.000000 0.000000
vn 0.000000 1.000000 0.000000
vn 0.000000 1.000000 0.000000
vn 0.000000 0.000000 -1.000000
vn 0.000000 0.000000 -1.000000
vn 0.000000 -1.000000 0.000000
vn 0.000000 -1.000000 0.000000
vn 0.000000 -1.000000 0.000000
s 1
g BookMarkPoint
usemtl aiStandardSurface3SG
f 96/221/209 97/222/210 93/223/211 90/224/212
s 2
f 99/230/213 100/231/214 94/232/215 92/233/216
s 1
f 97/222/210 98/227/217 91/228/218 93/223/219
s 2
f 100/231/214 95/236/220 89/237/221 94/232/222
s 5
f 90/239/223 89/240/224 95/241/225 96/242/226
s 6
f 92/245/227 91/246/228 98/247/229 99/248/230
s off
f 94/209/231 89/210/232 90/211/233 93/212/234
f 92/213/235 94/209/236 93/212/237 91/214/238
f 106/215/239 105/216/240 104/217/241 103/218/242
f 102/219/243 106/215/244 103/218/245 101/220/246
s 5
f 96/242/226 95/241/225 102/243/247 101/244/248
s 1
f 103/225/249 97/222/210 96/221/209 101/226/250
f 103/225/249 104/229/251 98/227/217 97/222/210
s 6
f 99/248/230 98/247/229 104/249/252 105/250/253
s 2
f 106/234/254 100/231/214 99/230/213 105/235/255
f 106/234/254 102/238/256 95/236/220 100/231/214
g default
v 222.618032 -6.327699 -116.620590
v 222.618032 3.672304 -116.620590
v 222.618032 3.672304 -216.620542
v 222.618032 -6.327699 -216.620542
v 222.618032 3.672304 -166.620590
v 222.618032 -6.327699 -166.620590
v 322.618032 -6.327699 -116.620590
v 322.618032 3.672304 -116.620590
v 322.618032 3.672304 -166.620590
v 322.618032 3.672304 -216.620542
v 322.618032 -6.327699 -216.620542
v 322.618032 -6.327699 -166.620590
v 422.618032 3.672304 -116.620590
v 422.618032 -6.327699 -116.620590
v 422.618032 3.672304 -216.620542
v 422.618032 -6.327699 -216.620542
v 449.434686 3.672304 -191.620542
v 449.434686 3.672304 -166.620590
v 449.434686 3.672304 -141.620590
v 449.434686 -6.327699 -191.620542
v 449.434686 -6.327699 -141.620590
v 449.434686 -6.327699 -166.620590
vt 0.525238 0.648019
vt 0.535434 0.648019
vt 0.535434 0.668413
vt 0.525238 0.668413
vt 0.515041 0.648019
vt 0.515041 0.668413
vt 0.902212 0.783688
vt 0.902212 0.761040
vt 0.907874 0.761040
vt 0.907874 0.783688
vt 0.890888 0.783688
vt 0.890888 0.761040
vt 0.885226 0.761040
vt 0.885226 0.783688
vt 0.702816 0.778318
vt 0.748415 0.778318
vt 0.748415 0.823918
vt 0.702816 0.823918
vt 0.725616 0.720481
vt 0.748415 0.720481
vt 0.702816 0.732704
vt 0.794015 0.778318
vt 0.794015 0.823918
vt 0.771215 0.720481
vt 0.794015 0.732704
vt 0.348725 0.771634
vt 0.394325 0.771634
vt 0.394325 0.817234
vt 0.348725 0.817234
vt 0.371525 0.713797
vt 0.394325 0.713797
vt 0.348725 0.726027
vt 0.439926 0.771634
vt 0.439926 0.817234
vt 0.417126 0.713797
vt 0.439926 0.726027
vt 0.500961 0.609248
vt 0.472120 0.609248
vt 0.472120 0.594828
vt 0.500961 0.594828
vt 0.472120 0.580406
vt 0.500961 0.580406
vt 0.699467 0.586326
vt 0.670626 0.586326
vt 0.670626 0.571905
vt 0.699467 0.571905
vt 0.670626 0.557485
vt 0.699467 0.557485
vn 0.000000 1.000000 -0.000000
vn 0.000000 1.000000 -0.000000
vn 0.000000 1.000000 0.000000
vn 0.000000 1.000000 0.000000
vn 0.000000 -1.000000 0.000000
vn 0.000000 -1.000000 0.000000
vn 0.000000 -1.000000 0.000000
vn 0.000000 -1.000000 0.000000
vn 0.000000 1.000000 0.000000
vn 0.000000 1.000000 0.000000
vn 0.000000 1.000000 0.000000
vn 0.000000 -1.000000 0.000000
vn 0.000000 -1.000000 0.000000
vn 0.000000 -1.000000 0.000000
vn 0.000000 0.000000 1.000000
vn 0.000000 0.000000 1.000000
vn 0.000000 0.000000 1.000000
vn 0.000000 0.000000 1.000000
vn 0.000000 0.000000 -1.000000
vn 0.000000 0.000000 -1.000000
vn 0.000000 0.000000 -1.000000
vn 0.000000 0.000000 -1.000000
vn -1.000000 0.000000 0.000000
vn -1.000000 0.000000 0.000000
vn -1.000000 0.000000 0.000000
vn -1.000000 0.000000 0.000000
vn -1.000000 0.000000 0.000000
vn -1.000000 0.000000 0.000000
vn -1.000000 0.000000 0.000000
vn -1.000000 0.000000 0.000000
vn 0.681897 0.000000 -0.731448
vn 0.681897 0.000000 -0.731448
vn 0.681897 0.000000 -0.731448
vn 0.681897 0.000000 -0.731448
vn 0.000000 0.000000 1.000000
vn 0.000000 0.000000 1.000000
vn 0.000000 0.000000 -1.000000
vn 0.000000 0.000000 -1.000000
vn 0.000000 1.000000 -0.000000
vn 0.000000 1.000000 0.000000
vn 0.000000 1.000000 0.000000
vn 0.000000 1.000000 -0.000000
vn 0.000000 1.000000 -0.000000
vn 0.681897 0.000000 0.731448
vn 0.681897 0.000000 0.731448
vn 0.681897 0.000000 0.731448
vn 0.681897 0.000000 0.731448
vn 0.000000 -1.000000 0.000000
vn 0.000000 -1.000000 0.000000
vn 0.000000 -1.000000 0.000000
vn 0.000000 -1.000000 0.000000
vn 0.000000 -1.000000 0.000000
vn 1.000000 0.000000 0.000000
vn 1.000000 0.000000 0.000000
vn 1.000000 0.000000 0.000000
vn 1.000000 0.000000 0.000000
s 1
g BookMarkRound
usemtl aiStandardSurface4SG
f 114/265/257 115/266/258 111/267/259 108/268/260
s 2
f 117/276/261 118/277/262 112/278/263 110/279/264
s 1
f 115/266/258 116/272/265 109/273/266 111/267/267
s 2
f 118/277/262 113/283/268 107/284/269 112/278/270
s 5
f 108/287/271 107/288/272 113/289/273 114/290/274
s 6
f 110/293/275 109/294/276 116/295/277 117/296/278
s off
f 112/251/279 107/252/280 108/253/281 111/254/282
f 110/255/283 112/251/284 111/254/285 109/256/286
f 123/257/287 126/258/288 122/259/289 121/260/290
s 5
f 114/290/274 113/289/273 120/291/291 119/292/292
s 6
f 117/296/278 116/295/277 121/297/293 122/298/294
s 1
f 124/270/295 123/274/296 121/275/297 116/272/265 115/266/258
f 125/269/298 124/270/295 115/266/258 114/265/257 119/271/299
s off
f 120/263/300 127/262/301 125/261/302 119/264/303
s 2
f 128/281/304 127/285/305 120/286/306 113/283/268 118/277/262
f 126/280/307 128/281/304 118/277/262 117/276/261 122/282/308
s off
f 126/258/309 123/257/310 125/261/311 127/262/312
